<svg id="Layer_1" data-name="Layer 1" xmlns="http://www.w3.org/2000/svg" viewBox="0 0 1178.89 177.72"><defs><style>.cls-1{fill:#092666;}.cls-2{fill:#007a00;}</style></defs><path class="cls-1" d="M854.84,604.26a14.52,14.52,0,0,1-.92,5.21,13,13,0,0,1-2.53,4.17,11.79,11.79,0,0,1-3.78,2.75,10.89,10.89,0,0,1-4.65,1H788.85a43.82,43.82,0,0,1-9.44-1.11,41.69,41.69,0,0,1-9.89-3.56,49.85,49.85,0,0,1-9.43-6.22,38.28,38.28,0,0,1-8-9.12A48.77,48.77,0,0,1,746.65,585a56,56,0,0,1-2.07-15.85V509h23.93v60.18a24.62,24.62,0,0,0,1.61,9.18,21.44,21.44,0,0,0,4.37,7,18.7,18.7,0,0,0,6.49,4.46,20.63,20.63,0,0,0,8,1.56h41.88V509h23.93Z" transform="translate(-370.56 -451.14)"/><path class="cls-1" d="M964.36,535.05H910.52c-3.26,0-5.71.89-7.37,2.66s-2.48,4.36-2.48,7.77V617.4H876.74V545.48a42.81,42.81,0,0,1,1.56-12,35.9,35.9,0,0,1,4.19-9.37,30.82,30.82,0,0,1,6-6.93,34.48,34.48,0,0,1,14.68-7.32,33.36,33.36,0,0,1,7.13-.85h54Z" transform="translate(-370.56 -451.14)"/><path class="cls-1" d="M1090.35,617.4h-23.93V557.22a24.62,24.62,0,0,0-1.61-9.18,21.44,21.44,0,0,0-4.37-7,18.86,18.86,0,0,0-6.49-4.47,20.8,20.8,0,0,0-8-1.55H1004V617.4H980.1V521.91a13.71,13.71,0,0,1,.92-5.07,12.6,12.6,0,0,1,2.57-4.11,12.34,12.34,0,0,1,3.87-2.76,11.35,11.35,0,0,1,4.69-1h53.94a44.7,44.7,0,0,1,9.52,1.1,43.45,43.45,0,0,1,9.94,3.56,48.06,48.06,0,0,1,9.39,6.22,40.5,40.5,0,0,1,7.91,9.13,46.76,46.76,0,0,1,5.48,12.39,57.18,57.18,0,0,1,2,15.85Z" transform="translate(-370.56 -451.14)"/><path class="cls-2" d="M1145.5,509V617.39h23.94V509Z" transform="translate(-370.56 -451.14)"/><path class="cls-2" d="M1301.5,580.79a43.2,43.2,0,0,1-1.56,12.08,37.18,37.18,0,0,1-4.14,9.43,29.68,29.68,0,0,1-6,6.92,34.18,34.18,0,0,1-14.68,7.32,33.06,33.06,0,0,1-7.22.86h-43.16a33.29,33.29,0,0,1-11-1.71,30.52,30.52,0,0,1-8.6-4.56,30.14,30.14,0,0,1-6.35-6.57,38.75,38.75,0,0,1-4.28-7.78,41.76,41.76,0,0,1-2.44-8.22,42.33,42.33,0,0,1-.78-7.77V545.48q0-10,3.35-17a34.85,34.85,0,0,1,8.38-11.34,31.2,31.2,0,0,1,10.91-6.26,35.45,35.45,0,0,1,10.86-1.91h43.16v26.08h-43q-4.79,0-7.27,2.66c-1.66,1.77-2.48,4.36-2.48,7.77v35.11c0,3.54.81,6.22,2.43,8s4,2.71,7.14,2.71h43.16c3.25,0,5.68-.9,7.27-2.71s2.4-4.41,2.4-7.82V463.13h23.92Z" transform="translate(-370.56 -451.14)"/><path class="cls-2" d="M1431.36,544.88a43.76,43.76,0,0,1-1.74,11.68A36.17,36.17,0,0,1,1424,568.2a32.19,32.19,0,0,1-10.21,9,30.45,30.45,0,0,1-15.33,3.61h-43.16V556h43.16a9.18,9.18,0,0,0,7.55-3.26,12.31,12.31,0,0,0,2.67-8.07,10.7,10.7,0,0,0-3-8,10,10,0,0,0-7.23-2.9h-43.16a9.19,9.19,0,0,0-7.55,3.26,12.3,12.3,0,0,0-2.66,8.07v36.41c0,3.48,1,6.18,3,8.12a10.2,10.2,0,0,0,7.41,2.91h43V617.4h-43.16a34.23,34.23,0,0,1-10.72-1.91,31.07,31.07,0,0,1-10.68-6.17,34,34,0,0,1-8.23-11.13q-3.31-6.87-3.32-16.7V544.88a43.52,43.52,0,0,1,1.75-11.69,36.2,36.2,0,0,1,5.66-11.63,32.23,32.23,0,0,1,10.22-9q6.3-3.62,15.32-3.61h43.16a34.29,34.29,0,0,1,10.73,1.91,31.25,31.25,0,0,1,10.67,6.16,34,34,0,0,1,8.24,11.14Q1431.37,535.05,1431.36,544.88Z" transform="translate(-370.56 -451.14)"/><path class="cls-2" d="M1549.44,581.49a43.76,43.76,0,0,1-1.74,11.68,36.35,36.35,0,0,1-5.66,11.64,32.34,32.34,0,0,1-10.22,9,30.44,30.44,0,0,1-15.32,3.61h-43.17a34.23,34.23,0,0,1-10.72-1.91,31.16,31.16,0,0,1-10.68-6.17,34,34,0,0,1-8.23-11.13q-3.32-6.87-3.32-16.7a44.51,44.51,0,0,1,1.75-11.74,36,36,0,0,1,5.66-11.68,32.23,32.23,0,0,1,10.22-9q6.3-3.62,15.32-3.61h43.17v24.87h-43.17a9.17,9.17,0,0,0-7.54,3.27,12.31,12.31,0,0,0-2.67,8.07c0,3.41,1,6.07,3.08,8a10.37,10.37,0,0,0,7.32,2.86h43a9.26,9.26,0,0,0,7.54-3.21,12.11,12.11,0,0,0,2.67-8V544.88a11.21,11.21,0,0,0-2.9-8.13,9.73,9.73,0,0,0-7.31-3h-52.56V509h52.56a34.28,34.28,0,0,1,10.72,1.91,31.25,31.25,0,0,1,10.67,6.16,34,34,0,0,1,8.24,11.14q3.31,6.87,3.31,16.7Z" transform="translate(-370.56 -451.14)"/><rect class="cls-2" x="773.97" y="11.04" width="25.88" height="25.88"/><path class="cls-1" d="M501.86,591.84a65.51,65.51,0,0,1-11,16.39,61.54,61.54,0,0,1-18.83,13.83c-1,.48-2,.93-3,1.37a80.34,80.34,0,0,1-58.07,0,62.2,62.2,0,0,1-21.87-15.2,66.84,66.84,0,0,1-13.76-23.29,88.37,88.37,0,0,1-4.77-29.68V451.14h37.52v104a58.43,58.43,0,0,0,2.16,16.59,35.91,35.91,0,0,0,6.27,12.43A27.19,27.19,0,0,0,426.56,592a34.93,34.93,0,0,0,27,0,27.45,27.45,0,0,0,10-7.78,35.43,35.43,0,0,0,6.27-12.37c.22-.73.42-1.48.6-2.24l1.61,1.14Z" transform="translate(-370.56 -451.14)"/><path class="cls-2" d="M590.41,485.89a47.46,47.46,0,0,0-11.71-18.22,55.33,55.33,0,0,0-20.2-12.13q-12.27-4.4-29.37-4.4H472.07V537.3L509.54,508l0,0V481.66h19.54a36,36,0,0,1,11.74,1.74l.53.2a22.41,22.41,0,0,1,8.55,5.49,22.74,22.74,0,0,1,5,8.5,34.29,34.29,0,0,1,1.66,11q0,13.63-6.44,21.23t-21.09,7.61H509.59V525.3l-37.52,29.39,34.48,24.37a82.94,82.94,0,0,0,2-9.85l.12-.86,0-.18h20.42q16.77,0,29-4.4a54.88,54.88,0,0,0,20.26-12.25A48.66,48.66,0,0,0,590.3,532.7a71.88,71.88,0,0,0,3.89-24.13A66.47,66.47,0,0,0,590.41,485.89Z" transform="translate(-370.56 -451.14)"/><polygon class="cls-1" points="262.84 0.79 262.84 25.07 316.43 25.07 316.43 134.7 316.43 169.55 316.64 169.55 323.22 169.55 340.9 169.55 340.9 25.07 394.21 25.07 394.21 0.79 262.84 0.79"/></svg>