<svg width="18" height="17" viewBox="0 0 18 17" fill="none" xmlns="http://www.w3.org/2000/svg">
<path d="M9.26921 16.2764C8.23025 16.2764 7.25723 16.0791 6.35014 15.6846C5.44251 15.2895 4.6529 14.7559 3.98131 14.0837C3.30917 13.4122 2.77556 12.6225 2.38048 11.7149C1.98595 10.8078 1.78869 9.83481 1.78869 8.79585C1.78869 7.75689 1.98595 6.78359 2.38048 5.87595C2.77556 4.96887 3.30917 4.17926 3.98131 3.50712C4.6529 2.83554 5.44251 2.30248 6.35014 1.90795C7.25723 1.51287 8.23025 1.31533 9.26921 1.31533C10.3082 1.31533 11.2815 1.51287 12.1891 1.90795C13.0962 2.30248 13.8858 2.83554 14.5579 3.50712C15.2295 4.17926 15.7629 4.96887 16.1579 5.87595C16.5525 6.78359 16.7497 7.75689 16.7497 8.79585C16.7497 9.83481 16.5525 10.8078 16.1579 11.7149C15.7629 12.6225 15.2295 13.4122 14.5579 14.0837C13.8858 14.7559 13.0962 15.2895 12.1891 15.6846C11.2815 16.0791 10.3082 16.2764 9.26921 16.2764ZM8.43804 5.47117V8.77507C8.43804 8.88589 8.45882 8.99311 8.50038 9.09673C8.54194 9.2009 8.60427 9.29455 8.68739 9.37767L11.0354 11.7257C11.1878 11.8781 11.3748 11.9543 11.5965 11.9543C11.8181 11.9543 12.0121 11.8712 12.1783 11.7049C12.3307 11.5526 12.4069 11.3586 12.4069 11.1231C12.4069 10.8876 12.3307 10.6937 12.1783 10.5413L10.1004 8.46338V5.45039C10.1004 5.2149 10.0209 5.02096 9.86183 4.86857C9.70225 4.71619 9.50471 4.64 9.26921 4.64C9.03371 4.64 8.83645 4.71952 8.67742 4.87855C8.51783 5.03813 8.43804 5.23567 8.43804 5.47117ZM2.14194 4.07896C1.98956 4.23135 1.80254 4.30754 1.5809 4.30754C1.35925 4.30754 1.16531 4.22442 0.999079 4.05819C0.846698 3.9058 0.770508 3.71186 0.770508 3.47637C0.770508 3.24087 0.846698 3.04693 0.999079 2.89455L3.38869 0.504939C3.54107 0.352558 3.72808 0.276367 3.94973 0.276367C4.17137 0.276367 4.36531 0.359484 4.53155 0.525718C4.68393 0.678099 4.76012 0.872038 4.76012 1.10754C4.76012 1.34303 4.68393 1.53697 4.53155 1.68935L2.14194 4.07896ZM16.3757 4.05819L13.9861 1.66858C13.8337 1.51619 13.7575 1.32918 13.7575 1.10754C13.7575 0.885891 13.8406 0.691952 14.0069 0.525718C14.1593 0.373337 14.3532 0.297146 14.5887 0.297146C14.8242 0.297146 15.0181 0.373337 15.1705 0.525718L17.5601 2.91533C17.7125 3.06771 17.7887 3.25472 17.7887 3.47637C17.7887 3.69801 17.7056 3.89195 17.5393 4.05819C17.387 4.21057 17.193 4.28676 16.9575 4.28676C16.722 4.28676 16.5281 4.21057 16.3757 4.05819ZM9.26921 14.614C10.89 14.614 12.2647 14.0494 13.3935 12.9201C14.5227 11.7914 15.0874 10.4166 15.0874 8.79585C15.0874 7.17507 14.5227 5.80004 13.3935 4.67076C12.2647 3.54203 10.89 2.97767 9.26921 2.97767C7.64843 2.97767 6.27368 3.54203 5.14495 4.67076C4.01567 5.80004 3.45103 7.17507 3.45103 8.79585C3.45103 10.4166 4.01567 11.7914 5.14495 12.9201C6.27368 14.0494 7.64843 14.614 9.26921 14.614Z" fill="#AEAEAE"/>
</svg>
