<svg width="396" height="300" viewBox="0 0 396 300" fill="none" xmlns="http://www.w3.org/2000/svg">
<g clip-path="url(#clip0_253_9031)">
<path d="M370.643 272.975H25.4267C19.8384 272.975 15.228 268.436 15.228 262.779V36.7318C15.228 33.729 17.6729 31.2849 20.6766 31.2849H376.092C378.676 31.2849 380.772 33.3799 380.772 35.9637V262.71C380.772 268.436 376.231 272.975 370.643 272.975Z" fill="#747E83"/>
<path d="M386.43 276.257H9.56994C4.26107 276.257 0 271.997 0 266.69V255.098H396V266.69C396 271.927 391.739 276.257 386.43 276.257Z" fill="#747E83"/>
<path d="M369.945 40.9218H25.0774V244.972H369.945V40.9218Z" fill="#F5F5F5"/>
<path d="M161.99 255.098L166.95 262.919H236.105L240.646 255.098H161.99Z" fill="#263238"/>
<path d="M380.911 255.028H15.3677V256.215H380.911V255.028Z" fill="#263238"/>
<path d="M122.733 31.3548H84.7324V17.947C84.7324 8.51961 92.3465 0.558716 101.847 0.558716L122.733 0.907878V31.3548Z" fill="#E0E0E0"/>
<path d="M101.008 0.558643C101.008 0.558643 122.593 -1.39666 122.593 26.7458C122.593 54.8882 122.593 245.95 122.593 245.95H292.198V18.7849C292.198 8.51954 283.815 0.139648 273.547 0.139648L101.008 0.558643Z" fill="white"/>
<path d="M101.008 0.558659C101.986 0.558659 148.998 0.418994 226.465 0.139665C236.175 0.139665 246.304 0.0698324 256.852 0.0698324C262.161 0.0698324 267.539 0.0698324 272.988 0C275.712 0 278.576 0.418994 281.161 1.60615C283.745 2.72346 286.05 4.46927 287.937 6.70391C289.823 8.86872 291.15 11.5223 291.848 14.3855C292.058 15.0838 292.128 15.852 292.267 16.5503C292.337 17.2486 292.337 18.0168 292.407 18.7151C292.407 20.1816 292.407 21.648 292.407 23.1145C292.407 28.9804 292.407 34.986 292.407 41.0615C292.407 53.2123 292.407 65.7123 292.407 78.4916C292.407 129.679 292.407 186.034 292.407 245.112C292.407 245.391 292.407 245.67 292.407 245.95V246.159H292.198C231.844 246.159 174.424 246.159 122.593 246.159H122.453V246.02C122.453 170.112 122.523 105.726 122.523 60.2654C122.523 48.8827 122.523 38.6872 122.523 29.8184C122.523 27.5838 122.523 25.4888 122.383 23.3939C122.314 21.3687 121.964 19.4134 121.545 17.5279C121.126 15.7123 120.567 13.9665 119.869 12.4302C119.17 10.8939 118.332 9.49721 117.424 8.24022C115.538 5.79609 113.372 4.05028 111.277 3.00279C109.181 1.88548 107.295 1.32682 105.688 1.04749C104.152 0.768156 102.894 0.628492 102.126 0.628492C101.427 0.488827 101.008 0.558659 101.008 0.558659C101.008 0.558659 101.427 0.488827 102.266 0.488827C103.104 0.488827 104.291 0.558659 105.898 0.837989C107.435 1.11732 109.391 1.67598 111.486 2.7933C113.582 3.84078 115.817 5.58659 117.633 8.03073C118.542 9.28771 119.38 10.6844 120.078 12.2207C120.777 13.8268 121.336 15.5028 121.755 17.3883C122.104 19.2039 122.453 21.1592 122.593 23.2542C122.733 25.2793 122.733 27.4441 122.733 29.6788C122.733 38.5475 122.733 48.743 122.733 60.1257C122.733 105.587 122.803 170.042 122.803 245.88L122.663 245.74C174.494 245.74 231.914 245.74 292.267 245.74L292.058 245.95C292.058 245.67 292.058 245.391 292.058 245.112C292.058 186.034 292.058 129.679 292.058 78.4916C292.058 65.7123 292.058 53.2123 292.058 41.0615C292.058 34.986 292.058 29.0503 292.058 23.1145C291.988 20.1816 292.267 17.2486 291.499 14.4553C290.8 11.662 289.543 9.07821 287.657 6.91341C285.841 4.7486 283.536 3.07263 281.021 1.88547C278.506 0.698324 275.712 0.27933 272.988 0.27933C267.469 0.27933 262.091 0.27933 256.782 0.27933C246.164 0.27933 236.035 0.27933 226.326 0.349162C148.998 0.488827 102.056 0.558659 101.008 0.558659Z" fill="#263238"/>
<path d="M195.241 67.0391C195.241 67.1089 184.902 67.2486 172.189 67.2486C159.476 67.2486 149.137 67.1788 149.137 67.0391C149.137 66.8994 159.476 66.8296 172.189 66.8296C184.902 66.8994 195.241 66.9693 195.241 67.0391Z" fill="#263238"/>
<path d="M205.579 72.5558C205.579 72.6256 192.936 72.7653 177.358 72.7653C161.781 72.7653 149.137 72.6955 149.137 72.5558C149.137 72.4161 161.781 72.3463 177.358 72.3463C192.936 72.3463 205.579 72.486 205.579 72.5558Z" fill="#263238"/>
<path d="M209.281 94.2039C209.281 94.2737 196.219 94.4134 180.152 94.4134C164.086 94.4134 151.023 94.3435 151.023 94.2039C151.023 94.134 164.086 93.9944 180.152 93.9944C196.219 94.0642 209.281 94.134 209.281 94.2039Z" fill="#263238"/>
<path d="M247.282 115.363C247.282 115.433 225.487 115.573 198.594 115.573C171.7 115.573 149.906 115.503 149.906 115.363C149.906 115.293 171.7 115.154 198.594 115.154C225.487 115.154 247.282 115.293 247.282 115.363Z" fill="#263238"/>
<path d="M247.282 121.648C247.282 121.718 225.487 121.858 198.594 121.858C171.7 121.858 149.906 121.788 149.906 121.648C149.906 121.508 171.7 121.439 198.594 121.439C225.487 121.508 247.282 121.578 247.282 121.648Z" fill="#263238"/>
<path d="M247.282 128.003C247.282 128.073 225.487 128.212 198.594 128.212C171.7 128.212 149.906 128.142 149.906 128.003C149.906 127.933 171.7 127.793 198.594 127.793C225.487 127.793 247.282 127.863 247.282 128.003Z" fill="#263238"/>
<path d="M247.282 134.288C247.282 134.358 225.487 134.497 198.594 134.497C171.7 134.497 149.906 134.427 149.906 134.288C149.906 134.218 171.7 134.078 198.594 134.078C225.487 134.078 247.282 134.148 247.282 134.288Z" fill="#263238"/>
<path d="M247.282 140.573C247.282 140.642 225.487 140.782 198.594 140.782C171.7 140.782 149.906 140.712 149.906 140.573C149.906 140.503 171.7 140.363 198.594 140.363C225.487 140.433 247.282 140.503 247.282 140.573Z" fill="#263238"/>
<path d="M186.858 146.858C186.858 146.927 178.616 147.067 168.417 147.067C158.218 147.067 149.976 146.997 149.976 146.858C149.976 146.718 158.218 146.648 168.417 146.648C178.616 146.718 186.858 146.788 186.858 146.858Z" fill="#263238"/>
<path d="M264.745 114.455L247.422 154.679C247.072 155.517 247.91 156.355 248.749 156.006L262.091 150.14C262.65 149.93 263.278 150.21 263.488 150.768L267.958 164.316C268.238 165.223 269.565 165.223 269.845 164.385L286.12 121.02L264.745 114.455Z" fill="#F8C365"/>
<path d="M287.308 121.159L295.62 164.176C295.83 165.084 297.018 165.293 297.506 164.525L305.26 152.165C305.61 151.676 306.238 151.536 306.727 151.885L318.043 160.545C318.812 161.103 319.86 160.405 319.65 159.497L308.683 114.455L287.308 121.159Z" fill="#F8C365"/>
<g opacity="0.3">
<path d="M264.745 114.455L247.422 154.679C247.072 155.517 247.91 156.355 248.749 156.006L262.091 150.14C262.65 149.93 263.278 150.21 263.488 150.768L267.958 164.316C268.238 165.223 269.565 165.223 269.845 164.385L286.12 121.02L264.745 114.455Z" fill="black"/>
</g>
<g opacity="0.3">
<path d="M287.308 121.159L295.62 164.176C295.83 165.084 297.018 165.293 297.506 164.525L305.26 152.165C305.61 151.676 306.238 151.536 306.727 151.885L318.043 160.545C318.812 161.103 319.86 160.405 319.65 159.497L308.683 114.455L287.308 121.159Z" fill="black"/>
</g>
<path d="M288.146 43.9944L293.804 39.8044L298.275 45.2514L304.841 42.5977L307.775 49.0223L314.76 48.1145L316.088 55.0279L323.073 55.8659L322.584 62.919L329.15 65.5028L326.985 72.1368L332.713 76.257L328.871 82.1927L333.411 87.6396L328.242 92.4581L331.246 98.8128L325.099 102.165L326.426 109.078L319.58 110.824L319.161 117.807H312.106L310.01 124.511L303.165 122.696L299.393 128.701L293.245 125.279L288.146 130.098L283.047 125.279L276.83 128.701L273.128 122.696L266.282 124.511L264.116 117.807H257.061L256.642 110.824L249.796 109.078L251.194 102.165L244.977 98.8128L248.05 92.4581L242.881 87.6396L247.352 82.1927L243.58 76.257L249.307 72.1368L247.072 65.5028L253.638 62.919L253.149 55.8659L260.205 55.0279L261.462 48.1145L268.447 49.0223L271.451 42.5977L277.947 45.2514L282.418 39.8044L288.146 43.9944Z" fill="#F8C365"/>
<path d="M310.733 107.535C323.199 95.0717 323.199 74.8655 310.733 62.4026C298.266 49.9398 278.054 49.9398 265.587 62.4027C253.12 74.8655 253.12 95.0718 265.587 107.535C278.054 119.997 298.266 119.997 310.733 107.535Z" fill="white"/>
<path d="M295.132 77.3743L303.723 78.6313C305.121 78.8408 305.679 80.5866 304.701 81.5642L298.484 87.6397C298.065 88.0587 297.926 88.6173 297.996 89.176L299.462 97.6955C299.672 99.0922 298.205 100.14 296.948 99.5112L289.264 95.4609C288.775 95.1816 288.146 95.1816 287.657 95.4609L279.973 99.5112C278.716 100.14 277.249 99.0922 277.459 97.6955L278.925 89.176C278.995 88.6173 278.856 88.0587 278.437 87.6397L272.22 81.5642C271.172 80.5866 271.8 78.8408 273.197 78.6313L281.789 77.3743C282.348 77.3045 282.837 76.9553 283.117 76.4665L286.959 68.7151C287.587 67.4581 289.404 67.4581 290.032 68.7151L293.874 76.4665C294.084 76.9553 294.573 77.3045 295.132 77.3743Z" fill="#F8C365"/>
<path d="M261.602 173.533C261.602 173.603 251.962 173.743 240.017 173.743C228.072 173.743 218.432 173.673 218.432 173.533C218.432 173.464 228.072 173.324 240.017 173.324C251.892 173.324 261.602 173.394 261.602 173.533Z" fill="#263238"/>
<path d="M261.602 179.609C261.602 179.679 251.962 179.818 240.017 179.818C228.072 179.818 218.432 179.749 218.432 179.609C218.432 179.469 228.072 179.399 240.017 179.399C251.892 179.399 261.602 179.469 261.602 179.609Z" fill="#263238"/>
<path d="M258.738 206.075C258.738 206.075 258.738 206.006 258.738 205.796C258.738 205.587 258.668 205.307 258.668 204.888C258.668 204.679 258.668 204.469 258.598 204.26C258.598 204.05 258.528 203.771 258.458 203.492C258.388 202.933 258.249 202.304 258.039 201.536C257.69 200.07 257.061 198.394 255.944 196.578C254.896 194.763 253.289 192.877 251.194 191.341C249.098 189.735 246.443 188.408 243.37 187.849C240.296 187.36 236.874 187.43 233.59 188.687C232.752 188.966 231.984 189.385 231.146 189.735C230.377 190.223 229.609 190.642 228.84 191.201C228.072 191.69 227.443 192.388 226.745 193.017C226.116 193.715 225.487 194.413 224.929 195.182C223.811 196.718 222.833 198.394 222.274 200.279C221.645 202.165 221.366 204.12 221.296 206.145C221.296 208.17 221.645 210.126 222.274 212.011C222.833 213.897 223.811 215.573 224.929 217.109C225.487 217.877 226.116 218.575 226.745 219.274C227.443 219.902 228.072 220.531 228.84 221.089C229.539 221.648 230.377 222.067 231.146 222.556C231.984 222.975 232.752 223.324 233.59 223.603C236.874 224.86 240.296 224.93 243.37 224.441C246.443 223.883 249.098 222.556 251.194 220.95C253.289 219.344 254.826 217.458 255.944 215.712C256.991 213.897 257.69 212.221 258.039 210.754C258.249 210.056 258.319 209.357 258.458 208.799C258.528 208.52 258.528 208.24 258.598 208.031C258.598 207.821 258.598 207.542 258.668 207.402C258.668 207.053 258.738 206.704 258.738 206.494C258.668 206.145 258.668 206.075 258.738 206.075C258.808 206.075 258.738 206.145 258.738 206.355C258.738 206.564 258.738 206.844 258.738 207.263C258.738 207.472 258.738 207.682 258.738 207.891C258.738 208.101 258.668 208.38 258.668 208.659C258.598 209.218 258.528 209.916 258.319 210.614C258.039 212.081 257.341 213.827 256.293 215.642C255.245 217.458 253.638 219.413 251.543 221.02C249.447 222.626 246.723 224.022 243.649 224.581C240.576 225.14 237.083 225.07 233.73 223.813C232.892 223.533 232.054 223.114 231.285 222.765C230.517 222.276 229.679 221.857 228.98 221.299C228.212 220.74 227.513 220.112 226.815 219.483C226.186 218.785 225.487 218.087 224.929 217.318C223.811 215.782 222.833 214.036 222.204 212.081C221.576 210.195 221.226 208.17 221.226 206.145C221.226 204.12 221.576 202.095 222.204 200.209C222.833 198.324 223.811 196.578 224.929 194.972C225.487 194.204 226.116 193.506 226.815 192.807C227.513 192.179 228.212 191.48 228.98 190.992C229.679 190.433 230.517 189.944 231.285 189.525C232.123 189.106 232.892 188.687 233.73 188.478C237.083 187.221 240.576 187.151 243.649 187.709C246.793 188.268 249.447 189.665 251.543 191.271C253.638 192.877 255.245 194.832 256.293 196.648C257.341 198.464 258.039 200.209 258.319 201.676C258.528 202.374 258.598 203.073 258.668 203.631C258.738 203.911 258.738 204.19 258.738 204.399C258.738 204.609 258.738 204.888 258.738 205.028C258.738 205.377 258.738 205.726 258.738 205.936V206.075Z" fill="#F8C365"/>
<path d="M251.708 208.829C253.244 202.376 249.256 195.9 242.801 194.364C236.346 192.828 229.868 196.815 228.332 203.268C226.795 209.721 230.783 216.197 237.238 217.733C243.693 219.268 250.171 215.282 251.708 208.829Z" fill="#F8C365"/>
<path d="M266.771 195.67C266.771 195.67 266.631 195.74 266.282 195.95C265.933 196.159 265.444 196.369 264.745 196.718C263.418 197.416 261.462 198.464 258.947 199.721C256.433 201.047 253.359 202.584 249.796 204.469C248.888 204.888 247.91 205.307 246.793 205.447C245.745 205.587 244.488 205.237 243.649 204.469C243.23 204.05 242.881 203.561 242.741 202.933C242.602 202.374 242.671 201.606 243.16 201.187C243.579 200.698 244.208 200.419 244.837 200.349C245.466 200.279 246.234 200.629 246.513 201.257C246.583 203.212 245.815 205.168 244.488 206.774C243.16 208.38 241.135 209.497 238.899 209.567C236.734 209.707 234.359 208.939 232.682 207.332C231.844 206.564 231.146 205.517 230.866 204.33C230.796 203.701 230.796 203.073 231.076 202.514C231.355 201.955 231.844 201.466 232.403 201.257C233.032 200.978 233.73 201.117 234.289 201.536C234.848 201.955 235.127 202.514 235.337 203.073C235.546 203.701 235.616 204.33 235.616 204.958C235.616 205.237 235.616 205.587 235.616 205.866C235.616 206.145 235.546 206.494 235.476 206.774C235.057 209.288 233.59 211.592 231.565 213.198C229.539 214.804 226.815 215.782 224.16 215.293C221.506 214.874 219.061 213.338 217.384 211.173C216.406 209.916 215.708 208.52 215.428 206.983C215.149 205.447 215.149 203.841 215.778 202.444C216.057 201.746 216.616 201.117 217.245 200.698C217.943 200.279 218.712 200.14 219.48 200.279C220.248 200.419 220.947 201.047 221.296 201.676C221.645 202.374 221.855 203.073 222.065 203.771C222.693 206.634 222.554 209.637 221.576 212.291C220.598 214.944 218.781 217.249 216.476 218.575C214.171 219.972 211.447 220.531 208.932 220.251C207.675 220.112 206.417 219.693 205.37 219.064C204.252 218.436 203.344 217.668 202.575 216.69C201.039 214.804 200.2 212.5 200.27 210.265C200.27 209.148 200.55 208.031 200.969 207.053C201.388 206.075 202.086 205.168 203.134 204.818C203.623 204.679 204.182 204.609 204.671 204.749C205.16 204.888 205.579 205.168 205.928 205.517C206.627 206.215 207.116 207.053 207.395 207.961C207.675 208.799 207.884 209.707 207.884 210.615C207.884 211.034 207.884 211.453 207.884 211.872C207.884 212.291 207.884 212.71 207.814 213.129C207.535 216.341 206.487 218.994 205.439 220.95C204.392 222.975 203.274 224.302 202.436 225.21C202.017 225.628 201.737 225.978 201.458 226.187C201.248 226.397 201.109 226.466 201.109 226.466C201.109 226.466 201.178 226.327 201.458 226.117C201.667 225.908 202.017 225.559 202.366 225.14C203.134 224.232 204.252 222.905 205.3 220.88C206.348 218.925 207.325 216.271 207.605 213.059C207.675 212.64 207.675 212.291 207.675 211.872C207.675 211.453 207.675 211.034 207.675 210.615C207.675 209.777 207.535 208.869 207.186 208.031C206.906 207.193 206.417 206.355 205.789 205.726C205.439 205.447 205.02 205.168 204.601 205.028C204.182 204.888 203.693 204.958 203.204 205.098C202.296 205.377 201.597 206.285 201.178 207.193C200.759 208.17 200.55 209.218 200.55 210.265C200.55 212.43 201.318 214.665 202.785 216.48C203.553 217.388 204.461 218.156 205.509 218.785C206.557 219.344 207.745 219.763 209.002 219.902C211.447 220.182 214.101 219.623 216.337 218.296C218.572 216.969 220.388 214.735 221.296 212.151C222.274 209.567 222.414 206.634 221.785 203.841C221.645 203.142 221.436 202.444 221.087 201.816C220.737 201.187 220.179 200.698 219.55 200.559C218.851 200.419 218.153 200.559 217.524 200.978C216.895 201.327 216.476 201.885 216.197 202.584C215.638 203.911 215.638 205.447 215.848 206.913C216.127 208.38 216.826 209.777 217.734 210.964C219.34 213.059 221.715 214.595 224.3 214.944C226.884 215.363 229.469 214.455 231.425 212.919C233.381 211.383 234.778 209.078 235.197 206.704C235.267 206.425 235.267 206.075 235.337 205.796C235.337 205.517 235.407 205.168 235.337 204.888C235.337 204.26 235.267 203.701 235.057 203.142C234.848 202.584 234.568 202.095 234.149 201.746C233.73 201.397 233.101 201.327 232.612 201.536C232.124 201.746 231.704 202.165 231.425 202.654C231.146 203.142 231.146 203.701 231.215 204.26C231.425 205.377 232.124 206.355 232.892 207.053C234.499 208.589 236.734 209.358 238.829 209.218C240.925 209.148 242.881 208.101 244.208 206.564C245.535 205.028 246.234 203.142 246.164 201.257V201.327C245.955 200.768 245.396 200.489 244.767 200.559C244.208 200.629 243.649 200.838 243.3 201.257C242.881 201.676 242.811 202.235 242.951 202.793C243.091 203.352 243.37 203.771 243.789 204.19C244.627 204.888 245.745 205.237 246.723 205.098C247.771 205.028 248.749 204.609 249.657 204.19C253.219 202.374 256.293 200.838 258.808 199.511C261.322 198.254 263.278 197.277 264.605 196.578C265.234 196.229 265.793 196.02 266.142 195.81C266.561 195.74 266.771 195.67 266.771 195.67Z" fill="#263238"/>
<path d="M110.788 81.6341C115.887 82.2626 116.656 87.5 118.542 91.8994C120.428 96.2989 124.06 100.209 126.784 104.12C128.251 106.215 130.277 108.031 130.766 110.545C131.325 113.128 130.137 115.782 129.578 118.366C129.02 121.02 129.439 124.162 131.953 125.349C131.395 125.978 130.487 126.397 129.648 126.327C129.648 127.514 128.461 128.561 127.203 128.911C125.946 129.26 124.619 129.05 123.292 128.841C123.641 129.609 122.872 130.587 122.034 130.936C121.126 131.285 120.148 131.075 119.24 130.936C118.332 130.726 117.354 130.517 116.446 130.726C114.35 131.145 113.093 133.52 110.997 133.799C108.133 134.218 106.038 130.517 103.244 131.145C101.916 131.425 101.008 132.612 99.8907 133.38C98.773 134.148 96.9568 133.939 96.398 132.821C94.8612 134.707 92.4862 136.592 90.0413 137.081C90.3906 136.243 90.181 135.196 89.5523 134.567C88.2251 135.684 86.5486 136.383 84.8023 136.662C85.8501 135.684 86.4788 134.218 86.4089 132.891C85.2913 133.799 83.6148 134.148 82.2177 133.799C84.8023 132.332 85.0119 128.911 84.1038 126.397C83.1957 123.883 81.4493 121.578 81.1001 118.855C80.7508 115.922 84.1736 112.221 83.4751 109.358C82.4273 104.958 82.4971 102.235 82.7067 98.1145C82.8464 95.391 84.0339 93.0167 85.2214 90.5028C86.7582 87.2905 88.7839 84.986 91.9972 83.1704C94.7215 81.6341 98.5635 80.2374 101.707 80.1676C107.225 80.0279 109.461 79.8883 113.861 82.8212" fill="#575757"/>
<path d="M93.7437 117.668C91.9974 114.106 90.3209 110.475 89.2731 106.704C88.2253 102.933 87.8062 98.8129 88.6444 94.9721C88.7841 94.4134 90.0415 90.433 90.6702 90.3632C91.0893 90.3632 90.4606 93.9945 90.74 94.3436C93.2547 97.5559 94.3724 101.676 94.582 105.796C94.7915 109.916 94.4423 113.617 93.7437 117.668Z" fill="#455A64"/>
<path d="M117.913 151.117C111.836 151.816 97.1665 145.391 96.3282 139.316L91.3686 102.723C89.762 92.9469 94.023 83.8687 103.872 82.472L104.781 82.4022C114.001 81.6341 122.244 88.1285 123.711 97.2765C125.108 105.726 126.505 115.154 126.784 119.763C127.413 129.26 118.053 131.494 118.053 131.494C118.053 131.494 118.262 133.659 118.612 136.452C119.45 142.668 118.472 149.511 117.913 151.117Z" fill="#FFBE9D"/>
<path d="M118.123 131.494C118.123 131.494 112.185 132.332 105.479 128.841C105.479 128.841 109.042 135.754 118.402 134.148L118.123 131.494Z" fill="#EB996E"/>
<path d="M120.218 105.517C120.288 106.215 119.799 106.913 119.031 106.983C118.262 107.053 117.634 106.564 117.564 105.866C117.494 105.168 117.983 104.469 118.751 104.399C119.45 104.33 120.148 104.818 120.218 105.517Z" fill="#455A64"/>
<path d="M122.034 101.606C121.895 101.816 120.777 101.117 119.31 101.257C117.843 101.327 116.865 102.165 116.656 102.025C116.586 101.955 116.726 101.606 117.145 101.257C117.564 100.908 118.332 100.489 119.24 100.419C120.148 100.349 120.917 100.629 121.406 100.908C121.965 101.257 122.104 101.536 122.034 101.606Z" fill="#455A64"/>
<path d="M106.527 106.634C106.597 107.332 106.108 108.031 105.339 108.101C104.571 108.17 103.942 107.682 103.872 106.983C103.803 106.285 104.292 105.587 105.06 105.517C105.759 105.377 106.387 105.936 106.527 106.634Z" fill="#455A64"/>
<path d="M107.784 103.142C107.645 103.352 106.527 102.654 105.06 102.793C103.593 102.863 102.615 103.701 102.406 103.561C102.336 103.492 102.475 103.142 102.895 102.793C103.314 102.444 104.082 102.025 104.99 101.955C105.898 101.885 106.667 102.165 107.156 102.444C107.714 102.723 107.854 103.003 107.784 103.142Z" fill="#455A64"/>
<path d="M113.931 113.897C113.931 113.827 114.839 113.617 116.236 113.268C116.586 113.198 116.935 113.129 117.005 112.849C117.075 112.57 116.865 112.151 116.656 111.732C116.236 110.894 115.817 109.916 115.328 109.008C113.442 105.098 112.115 101.886 112.255 101.816C112.395 101.746 114.071 104.888 115.887 108.799C116.306 109.777 116.795 110.684 117.145 111.592C117.284 112.011 117.634 112.43 117.424 113.059C117.354 113.338 117.075 113.548 116.865 113.617C116.656 113.687 116.446 113.757 116.236 113.757C114.839 113.897 113.931 113.967 113.931 113.897Z" fill="#455A64"/>
<path d="M107.225 97.6955C107.086 98.1145 105.619 97.8352 103.872 97.905C102.126 97.9749 100.729 98.3938 100.519 98.0447C100.45 97.8352 100.659 97.486 101.288 97.1369C101.847 96.7877 102.755 96.5084 103.803 96.4386C104.85 96.3687 105.758 96.5782 106.387 96.9274C107.016 97.1369 107.295 97.486 107.225 97.6955Z" fill="#455A64"/>
<path d="M121.406 98.2541C121.126 98.6033 119.939 98.3938 118.472 98.5335C117.075 98.6033 115.887 99.0223 115.538 98.6731C115.398 98.5335 115.538 98.1843 116.027 97.8352C116.516 97.486 117.354 97.1368 118.332 97.067C119.31 96.9972 120.218 97.2067 120.707 97.486C121.336 97.7653 121.545 98.1145 121.406 98.2541Z" fill="#455A64"/>
<path d="M92.6959 109.777C92.5562 109.707 85.9899 108.38 86.7583 114.874C87.4568 121.369 93.8135 119.274 93.8135 119.064C93.8135 118.855 92.6959 109.777 92.6959 109.777Z" fill="#FFBE9D"/>
<path d="M91.5783 116.76C91.5783 116.76 91.5084 116.83 91.2989 116.969C91.0893 117.109 90.8099 117.179 90.4606 117.109C89.7621 116.969 89.0635 115.922 88.854 114.735C88.7841 114.176 88.854 113.548 88.9937 113.059C89.1334 112.57 89.4128 112.221 89.7621 112.081C90.1113 111.941 90.3908 112.151 90.4606 112.291C90.6003 112.43 90.5305 112.57 90.6003 112.57C90.6003 112.57 90.74 112.43 90.6702 112.151C90.6003 112.011 90.5305 111.872 90.3908 111.802C90.251 111.662 89.9716 111.662 89.7621 111.732C89.2731 111.802 88.854 112.36 88.7143 112.849C88.5047 113.408 88.4349 114.036 88.5047 114.665C88.7143 115.992 89.4827 117.109 90.4606 117.249C90.9496 117.318 91.2989 117.109 91.4386 116.969C91.5783 116.969 91.5783 116.83 91.5783 116.76Z" fill="#EB996E"/>
<path d="M118.262 87.081C119.24 86.3827 115.678 83.3799 112.953 82.5419C108.832 81.2849 102.825 80.8659 99.332 82.3324C95.1408 84.0782 91.8577 86.662 90.1812 90.852C88.5047 95.0419 88.2253 99.7207 88.9238 104.19C89.1334 105.587 89.4128 106.983 90.3209 108.031C91.3687 109.358 93.2547 110.056 93.3944 112.011C93.4643 112.71 93.7437 113.408 94.3025 113.897C95.6297 115.014 96.957 113.687 97.4459 112.36C98.5636 109.637 98.354 106.634 98.1445 103.701C98.0048 101.606 97.7952 99.5112 96.957 97.6257C96.5378 96.5782 95.9092 95.6006 95.49 94.5531C95.0709 93.5056 95.0011 92.2486 95.5599 91.271C95.6297 91.1313 95.8393 90.9218 96.0489 90.6425C97.6555 88.8268 100.17 88.0587 102.615 88.5475C106.387 89.3855 112.884 90.5726 114.351 89.1062C116.446 87.081 116.865 85.824 116.865 85.824L118.262 87.081Z" fill="#455A64"/>
<path d="M110.02 115.154C109.95 115.154 109.95 115.503 110.089 116.061C110.299 116.62 110.718 117.318 111.486 117.807C112.255 118.296 112.953 118.575 113.512 118.645C114.071 118.785 114.42 118.785 114.42 118.715C114.42 118.645 114.141 118.436 113.652 118.226C113.163 118.017 112.464 117.668 111.836 117.249C110.578 116.411 110.229 115.084 110.02 115.154Z" fill="#455A64"/>
<path d="M92.9055 110.615C92.9754 110.754 93.0452 110.824 93.0452 110.964C93.1151 110.964 93.0452 110.824 92.9055 110.615Z" fill="#F8C365"/>
<path d="M90.74 109.567C90.74 109.567 91.8577 108.17 92.9753 110.545C91.6481 107.402 82.637 84.4274 107.225 81.4246C107.225 81.4246 98.3541 79.8883 92.9753 84.2877C92.9753 84.2877 82.0782 90.852 90.74 109.567Z" fill="#747E83"/>
<path d="M137.682 225.349L80.5413 226.117C80.5413 226.117 64.5448 219.413 60.144 219.274C55.7433 219.064 47.0116 219.623 43.0299 226.117C38.8387 232.821 38.2799 244.623 51.1329 253.212C63.6367 261.592 120.777 269.344 128.601 268.575L143.06 249.162C143.06 249.162 143.2 233.31 143.06 232.542C142.921 231.774 140.476 225 140.476 225L137.682 225.349Z" fill="#455A64"/>
<path d="M103.523 252.165L73.9052 263.128L87.3869 300C90.8097 298.464 90.9494 276.816 90.9494 276.816L110.229 270.531L103.523 252.165Z" fill="#F8C365"/>
<g opacity="0.6">
<path d="M88.3649 264.874C87.8759 264.246 86.8979 264.036 86.2693 264.455C85.6406 264.874 85.431 265.852 85.8501 266.55C86.2693 267.179 87.4568 267.458 88.0854 266.969C88.7141 266.48 88.8538 265.293 88.295 264.735" fill="white"/>
</g>
<path d="M73.9052 263.128L76.9089 262.011L88.784 297.835C88.784 297.835 88.6443 299.721 87.4567 300L73.9052 263.128Z" fill="#455A64"/>
<path d="M91.3686 277.374C91.159 277.444 90.8097 276.536 89.9016 275.908C88.9935 275.209 88.0854 275.07 88.0854 274.86C88.0854 274.651 89.2031 274.581 90.3208 275.419C91.3686 276.187 91.5083 277.374 91.3686 277.374Z" fill="#455A64"/>
<path d="M91.159 281.844C91.0193 281.983 90.3906 281.285 89.4126 280.936C88.4347 280.587 87.5266 280.726 87.5266 280.517C87.4567 280.377 88.4347 279.818 89.692 280.307C90.8796 280.726 91.3685 281.774 91.159 281.844Z" fill="#455A64"/>
<path d="M87.317 285.754C87.2472 285.615 88.0156 285.056 89.2031 285.126C90.3906 285.196 91.0891 285.894 90.9494 286.034C90.8097 286.173 90.1112 285.824 89.1332 285.754C88.2251 285.684 87.4567 285.894 87.317 285.754Z" fill="#455A64"/>
<path d="M95.5597 275.489C95.3502 275.489 95.2803 274.581 94.8612 273.534C94.4421 272.556 93.8134 271.858 93.9531 271.718C94.0229 271.578 95.0009 272.067 95.4899 273.254C96.0487 274.441 95.7693 275.489 95.5597 275.489Z" fill="#455A64"/>
<path d="M99.6113 272.975C99.5415 272.975 99.1922 272.346 98.9128 271.089C98.7731 270.461 98.7731 269.763 98.7731 268.925C98.7731 268.506 98.8429 268.087 98.9826 267.668C99.0525 267.458 99.0525 267.249 99.1922 266.969C99.3319 266.69 99.751 266.411 100.1 266.55C100.45 266.62 100.729 266.899 100.799 267.179C100.939 267.458 100.939 267.668 100.939 267.877C101.008 268.296 101.008 268.785 100.939 269.204C100.869 270.042 100.659 270.74 100.45 271.299C99.9606 272.416 99.4018 272.975 99.3319 272.905C99.262 272.835 99.6812 272.207 99.9606 271.089C100.1 270.531 100.24 269.832 100.31 269.134C100.31 268.785 100.31 268.366 100.24 267.947C100.17 267.528 100.1 267.179 99.8907 267.179C99.8209 267.179 99.751 267.179 99.6812 267.318C99.6113 267.458 99.5415 267.668 99.5415 267.877C99.4716 268.296 99.4018 268.645 99.3319 269.064C99.262 269.832 99.262 270.531 99.3319 271.089C99.5415 272.207 99.751 272.975 99.6113 272.975Z" fill="#455A64"/>
<path d="M99.2621 272.835C99.1922 272.765 99.751 272.207 100.869 271.718C101.428 271.508 102.126 271.299 102.964 271.229C103.383 271.229 103.803 271.229 104.292 271.299C104.711 271.369 105.339 271.439 105.689 272.137C105.828 272.486 105.689 272.905 105.479 273.114C105.269 273.324 105.06 273.464 104.85 273.533C104.431 273.743 104.012 273.883 103.593 274.022C102.755 274.162 101.986 274.092 101.428 273.952C100.24 273.603 99.751 272.905 99.751 272.905C99.8209 272.835 100.38 273.324 101.497 273.533C102.056 273.673 102.755 273.673 103.453 273.464C103.803 273.394 104.152 273.254 104.501 273.045C104.85 272.835 105.13 272.556 105.06 272.416C104.99 272.207 104.571 271.997 104.222 271.997C103.803 271.927 103.453 271.927 103.034 271.927C102.266 271.927 101.637 272.067 101.078 272.276C99.9606 272.486 99.3319 272.905 99.2621 272.835Z" fill="#455A64"/>
<path d="M127.902 247.556L156.542 260.824L140.196 296.508C136.913 294.763 138.52 273.115 138.52 273.115L119.799 265.363L127.902 247.556Z" fill="#F8C365"/>
<g opacity="0.6">
<path d="M142.012 261.452C142.501 260.824 143.479 260.754 144.108 261.173C144.737 261.662 144.876 262.64 144.387 263.268C143.898 263.897 142.711 264.036 142.152 263.547C141.593 262.989 141.523 261.802 142.152 261.313" fill="white"/>
</g>
<path d="M156.542 260.894L153.678 259.567L139.079 294.344C139.079 294.344 139.009 296.229 140.266 296.578L156.542 260.894Z" fill="#455A64"/>
<path d="M138.031 273.673C138.24 273.743 138.659 272.905 139.637 272.277C140.545 271.648 141.523 271.578 141.523 271.369C141.593 271.159 140.406 270.95 139.288 271.718C138.17 272.486 137.891 273.673 138.031 273.673Z" fill="#455A64"/>
<path d="M137.891 278.142C138.031 278.282 138.659 277.654 139.707 277.374C140.685 277.095 141.593 277.304 141.663 277.095C141.733 276.955 140.825 276.327 139.568 276.676C138.31 277.095 137.751 278.073 137.891 278.142Z" fill="#455A64"/>
<path d="M141.384 282.332C141.523 282.193 140.755 281.564 139.568 281.564C138.38 281.564 137.682 282.193 137.751 282.332C137.821 282.472 138.59 282.193 139.568 282.193C140.546 282.193 141.314 282.472 141.384 282.332Z" fill="#455A64"/>
<path d="M133.979 271.439C134.189 271.439 134.328 270.531 134.817 269.553C135.306 268.575 136.005 267.947 135.865 267.807C135.795 267.668 134.817 268.087 134.189 269.204C133.63 270.391 133.839 271.508 133.979 271.439Z" fill="#455A64"/>
<path d="M130.137 268.645C130.207 268.715 130.626 268.017 130.976 266.83C131.115 266.271 131.255 265.503 131.255 264.665C131.255 264.246 131.255 263.827 131.185 263.408C131.185 263.198 131.115 262.919 131.045 262.709C130.976 262.43 130.556 262.081 130.137 262.221C129.788 262.29 129.509 262.57 129.369 262.779C129.229 263.059 129.229 263.268 129.159 263.478C129.09 263.897 129.02 264.385 129.02 264.735C129.02 265.573 129.159 266.271 129.369 266.899C129.788 268.087 130.277 268.645 130.347 268.645C130.417 268.575 130.067 267.947 129.858 266.83C129.718 266.271 129.648 265.573 129.718 264.804C129.718 264.455 129.788 264.036 129.858 263.617C129.928 263.198 130.067 262.849 130.277 262.849C130.347 262.849 130.417 262.849 130.487 262.989C130.556 263.128 130.556 263.338 130.626 263.547C130.696 263.966 130.696 264.385 130.766 264.735C130.766 265.503 130.696 266.201 130.626 266.76C130.347 267.947 130.067 268.645 130.137 268.645Z" fill="#455A64"/>
<path d="M130.487 268.575C130.556 268.506 130.067 267.877 128.95 267.318C128.391 267.039 127.692 266.76 126.854 266.69C126.435 266.62 126.016 266.62 125.527 266.62C125.108 266.69 124.479 266.69 124.13 267.318C123.92 267.668 124.13 268.087 124.27 268.296C124.479 268.506 124.689 268.645 124.828 268.785C125.248 269.064 125.597 269.204 126.016 269.344C126.854 269.553 127.623 269.553 128.181 269.413C129.439 269.134 129.998 268.506 129.928 268.436C129.858 268.366 129.229 268.785 128.112 268.925C127.553 268.994 126.854 268.925 126.156 268.715C125.806 268.575 125.457 268.436 125.108 268.226C124.759 268.017 124.479 267.737 124.619 267.598C124.689 267.388 125.108 267.249 125.457 267.249C125.876 267.179 126.226 267.249 126.645 267.249C127.413 267.318 128.042 267.528 128.601 267.737C129.858 268.156 130.417 268.645 130.487 268.575Z" fill="#455A64"/>
<path d="M140.546 225C140.546 225 165.204 215.782 174.285 216.969C179.384 217.668 187.278 221.508 187.906 228.003C188.535 234.497 186.928 243.226 178.127 247.416C169.325 251.676 134.329 267.388 126.016 269.763C117.703 272.207 96.9569 277.863 96.9569 277.863L89.0635 255.377C89.0635 255.377 132.093 240.503 134.329 238.827C136.564 237.151 142.362 234.916 142.362 234.916L140.546 225Z" fill="#455A64"/>
<path d="M54.7654 228.073C54.7654 228.073 54.8352 228.073 54.9051 228.003C55.0448 227.933 55.1845 227.933 55.3941 227.863C55.8132 227.723 56.4419 227.514 57.2801 227.374C58.1184 227.165 59.1662 226.955 60.3537 226.816C61.5412 226.676 62.9383 226.676 64.475 226.816C66.0118 226.955 67.6883 227.235 69.4346 227.723C70.2729 228.003 71.181 228.282 72.0192 228.771C72.8575 229.19 73.7656 229.609 74.6737 230.098C78.3759 231.844 82.4973 233.659 86.898 235.405C95.6996 238.897 104.152 240.573 110.159 241.969C113.163 242.668 115.608 243.156 117.284 243.575C118.123 243.785 118.751 243.925 119.24 244.064C119.45 244.134 119.59 244.134 119.729 244.204C119.869 244.204 119.869 244.204 119.869 244.204C119.869 244.204 119.799 244.204 119.729 244.134C119.59 244.064 119.45 244.064 119.24 243.994C118.821 243.855 118.123 243.715 117.284 243.506C115.608 243.087 113.163 242.528 110.159 241.83C104.152 240.433 95.7694 238.687 86.9679 235.196C82.5671 233.45 78.4457 231.634 74.7435 229.888C73.8354 229.469 72.9273 228.98 72.0891 228.561C71.181 228.142 70.3427 227.793 69.4346 227.514C67.6883 226.955 66.0118 226.746 64.475 226.606C62.9383 226.466 61.5412 226.536 60.2838 226.606C59.0265 226.746 58.0485 226.955 57.2103 227.165C56.372 227.374 55.7433 227.584 55.3242 227.723C55.1146 227.793 54.9749 227.863 54.8352 227.933C54.8352 228.073 54.7654 228.073 54.7654 228.073Z" fill="#747E83"/>
<path d="M56.0925 224.86C56.0925 224.93 56.8609 224.79 58.0484 224.651C59.2359 224.511 60.9124 224.441 62.7985 224.511C64.6147 224.581 66.2911 224.86 67.4787 225.14C68.6662 225.419 69.3647 225.628 69.4346 225.559C69.4346 225.559 69.2949 225.489 68.9456 225.349C68.5963 225.209 68.1772 225.07 67.5485 224.93C66.361 224.651 64.6845 224.302 62.7985 224.232C60.9124 224.162 59.2359 224.302 58.0484 224.441C57.4197 224.511 56.9308 224.651 56.6514 224.721C56.3021 224.79 56.0925 224.79 56.0925 224.86Z" fill="#747E83"/>
<path d="M150.954 231.564C150.954 231.634 151.652 231.075 152.84 230.307C154.027 229.609 155.704 228.701 157.73 227.933C159.755 227.235 161.641 226.885 162.969 226.676C164.366 226.536 165.204 226.466 165.204 226.466C165.204 226.466 164.994 226.466 164.575 226.466C164.156 226.466 163.597 226.466 162.899 226.536C161.502 226.676 159.616 227.025 157.59 227.723C155.564 228.422 153.888 229.399 152.7 230.168C152.141 230.587 151.652 230.866 151.373 231.145C151.093 231.425 150.884 231.564 150.954 231.564Z" fill="#747E83"/>
<path d="M138.52 265.084C138.52 265.084 138.45 265.084 138.31 265.154C138.17 265.223 137.961 265.293 137.751 265.363C137.262 265.573 136.564 265.922 135.586 266.271C133.7 267.039 130.836 268.087 127.203 269.274C119.939 271.648 109.461 274.721 96.887 277.863L97.0267 277.933C94.7215 271.439 92.1369 264.316 89.4127 256.774L89.3428 256.913C92.3465 255.656 95.5598 254.399 98.773 253.073C119.589 244.483 138.31 236.802 151.024 231.564C153.119 229.33 155.075 227.304 156.961 225.698C158.777 224.092 160.454 222.835 161.921 221.927C163.388 221.02 164.505 220.461 165.343 220.042C165.763 219.832 166.042 219.693 166.252 219.623C166.461 219.553 166.531 219.483 166.531 219.483C166.531 219.483 166.391 219.553 166.182 219.623C165.972 219.693 165.693 219.832 165.274 220.042C164.505 220.461 163.318 221.02 161.851 221.927C160.384 222.835 158.707 224.022 156.821 225.628C155.005 227.235 152.979 229.19 150.884 231.425C138.17 236.662 119.45 244.344 98.5635 252.863C95.3502 254.19 92.1369 255.517 89.1332 256.774L88.9935 256.844L89.0634 256.983C91.7877 264.525 94.3723 271.648 96.6774 278.142L96.7473 278.212H96.887C109.391 275 119.869 271.997 127.134 269.553C130.766 268.366 133.63 267.249 135.516 266.48C136.494 266.131 137.193 265.712 137.681 265.503C137.891 265.363 138.101 265.293 138.24 265.223C138.52 265.084 138.52 265.084 138.52 265.084Z" fill="#747E83"/>
<path d="M77.6074 146.439C77.6074 146.439 70.4824 150.559 69.0853 155.307C68.1772 158.24 61.611 195.531 60.5632 202.933C59.5154 210.335 61.7507 215.712 64.8941 218.156C68.0375 220.601 77.5376 223.883 77.5376 223.883L90.9495 228.212L94.7914 218.436L82.0781 200.14L83.3354 187.779L77.6074 146.439Z" fill="#F8C365"/>
<path d="M91.5083 140.014L95.9091 136.732C95.9091 136.732 101.707 142.668 108.343 141.969C114.979 141.271 118.891 136.173 118.891 136.173L138.659 140.223C139.987 140.503 142.432 141.341 144.737 144.623C147.321 148.324 159.546 164.665 159.546 164.665H168.138C170.513 164.665 172.678 165.992 173.796 168.087C175.263 170.88 177.009 174.581 176.869 176.117C176.59 178.701 177.079 185.894 173.586 188.129C172.469 188.827 168.487 190.992 165.413 190.852C160.873 190.642 155.564 188.268 152.56 186.173C149.976 184.358 143.968 178.142 141.663 175.698V175.768L140.196 227.584L88.3649 226.117L77.6074 146.578C77.6074 146.439 91.0193 140.014 91.5083 140.014Z" fill="#F8C365"/>
<path d="M141.803 153.911C141.733 153.911 141.593 160.335 141.523 168.296C141.454 176.257 141.384 182.682 141.454 182.682C141.523 182.682 141.663 176.257 141.733 168.296C141.873 160.335 141.873 153.911 141.803 153.911Z" fill="#455A64"/>
<path d="M71.3206 195.81C71.3206 195.81 71.7397 195.88 72.5779 196.02C73.3463 196.159 74.464 196.439 75.7912 197.067C77.1184 197.626 78.5853 198.534 80.0523 199.651C81.5192 200.768 83.056 202.235 84.5229 203.841C85.9898 205.447 87.3869 207.053 88.6442 208.45C89.9016 209.846 91.0891 211.103 92.2068 212.011C93.2546 212.989 94.1627 213.687 94.8612 214.106C95.2105 214.316 95.4899 214.525 95.6296 214.595C95.8392 214.735 95.909 214.735 95.909 214.735C95.909 214.735 95.8392 214.665 95.6296 214.525C95.4899 214.385 95.2105 214.246 94.8612 213.966C94.2325 213.478 93.3244 212.779 92.2766 211.802C91.2288 210.824 90.0413 209.567 88.784 208.17C87.5266 206.774 86.1994 205.168 84.6626 203.561C83.1957 201.955 81.6589 200.559 80.1221 199.372C78.5853 198.254 77.1184 197.346 75.7912 196.788C74.464 196.229 73.3463 195.95 72.5081 195.81C72.0889 195.74 71.8095 195.74 71.6 195.67C71.3904 195.81 71.3206 195.81 71.3206 195.81Z" fill="#455A64"/>
<path d="M70.1331 192.249C70.1331 192.318 70.9014 192.388 72.1588 192.737C73.4162 193.087 75.0927 193.715 76.7691 194.693C78.4456 195.67 79.7729 196.858 80.6809 197.765C81.589 198.673 82.0082 199.302 82.078 199.302C82.078 199.302 82.0082 199.092 81.7986 198.813C81.589 198.534 81.2398 198.115 80.8207 197.626C79.9824 196.648 78.5853 195.461 76.9089 194.413C75.2324 193.436 73.486 192.807 72.2287 192.528C71.6 192.388 71.111 192.318 70.6919 192.249C70.3426 192.249 70.1331 192.249 70.1331 192.249Z" fill="#455A64"/>
<g opacity="0.3">
<path d="M166.601 183.17C163.877 183.939 160.593 179.958 158.079 177.514C156.752 176.257 155.424 174.86 154.935 173.115C154.516 171.648 154.796 170.112 155.354 168.715C155.913 167.318 156.332 166.411 157.171 165.154C156.961 167.249 156.402 170.531 157.101 173.254C157.729 175.489 159.127 177.235 160.593 178.98C162.27 180.656 164.156 182.542 166.601 183.17Z" fill="black"/>
</g>
<path d="M154.866 180.936C154.935 180.936 154.586 180.028 154.377 178.562C154.237 177.793 154.167 176.955 154.097 175.908C154.097 174.93 154.167 173.813 154.307 172.696C154.516 171.578 154.796 170.531 155.075 169.553C155.424 168.645 155.774 167.807 156.123 167.109C156.821 165.782 157.38 165.014 157.38 165.014C157.38 165.014 157.241 165.154 156.961 165.503C156.821 165.643 156.682 165.852 156.542 166.131C156.402 166.411 156.193 166.69 155.983 167.039C155.634 167.668 155.215 168.506 154.866 169.483C154.516 170.461 154.237 171.508 154.027 172.696C153.818 173.883 153.818 174.93 153.818 175.978C153.888 176.955 153.957 177.863 154.097 178.631C154.167 178.981 154.237 179.33 154.307 179.609C154.377 179.888 154.446 180.168 154.516 180.377C154.796 180.726 154.866 180.936 154.866 180.936Z" fill="#455A64"/>
<path d="M116.795 138.129C116.725 138.198 117.354 138.548 117.983 139.106C118.611 139.665 119.031 140.224 119.1 140.224C119.17 140.224 118.821 139.525 118.122 138.967C117.494 138.338 116.795 138.129 116.795 138.129Z" fill="#455A64"/>
<path d="M111.347 141.271C111.277 141.341 111.836 141.899 112.255 142.737C112.674 143.575 112.814 144.344 112.884 144.274C112.953 144.274 112.884 143.436 112.464 142.598C112.045 141.76 111.417 141.271 111.347 141.271Z" fill="#455A64"/>
<path d="M102.126 144.553C102.196 144.553 102.405 143.855 102.685 143.017C102.964 142.179 103.314 141.48 103.244 141.48C103.174 141.48 102.755 142.109 102.475 142.947C102.196 143.785 102.056 144.553 102.126 144.553Z" fill="#455A64"/>
<path d="M96.1884 141.76C96.2583 141.76 96.4679 140.852 97.0267 139.944C97.5855 138.966 98.2841 138.408 98.2841 138.338C98.2841 138.268 97.4458 138.827 96.8171 139.804C96.1885 140.782 96.1186 141.76 96.1884 141.76Z" fill="#455A64"/>
<path d="M79.1442 158.52C79.0743 158.52 79.9824 165.642 81.1001 174.302C82.2876 183.031 83.2655 190.084 83.3354 190.084C83.4052 190.084 82.4971 182.961 81.3795 174.302C80.192 165.573 79.214 158.52 79.1442 158.52Z" fill="#455A64"/>
<path d="M156.821 169.972C156.821 169.972 156.821 170.251 156.821 170.67C156.821 170.88 156.891 171.159 156.961 171.508C156.961 171.648 157.031 171.858 157.031 172.067C157.101 172.277 157.101 172.416 157.171 172.626C157.38 173.464 157.73 174.371 158.218 175.419C158.707 176.397 159.336 177.514 160.105 178.492C160.873 179.539 161.781 180.377 162.619 181.075C163.527 181.774 164.366 182.332 165.134 182.612C165.344 182.682 165.483 182.751 165.693 182.821C165.902 182.891 166.042 182.891 166.182 182.961C166.321 183.031 166.461 183.031 166.601 183.101C166.741 183.101 166.88 183.17 167.02 183.17C167.509 183.24 167.719 183.24 167.719 183.24C167.719 183.17 166.671 183.17 165.134 182.472C164.366 182.123 163.527 181.564 162.689 180.936C161.851 180.237 161.013 179.33 160.244 178.352C159.476 177.374 158.847 176.327 158.358 175.349C157.869 174.371 157.52 173.464 157.31 172.626C156.891 171.02 156.891 169.972 156.821 169.972Z" fill="#455A64"/>
<g opacity="0.3">
<path d="M80.8207 229.26C78.6552 228.212 78.0964 225.349 77.8868 222.905C77.2582 215.782 76.5596 208.659 75.9309 201.536C75.6515 198.184 75.442 194.344 77.817 191.969C79.9825 189.804 83.4053 189.665 86.4788 189.665C105.479 189.735 122.174 190.293 141.174 190.293L140.196 223.464L80.8207 229.26Z" fill="black"/>
</g>
<path d="M149.347 195.461L147.321 233.938C147.251 235.405 145.994 236.592 144.527 236.592L83.2655 236.732C81.7287 236.732 80.5412 235.545 80.4714 234.078L78.1662 196.229C78.0963 194.693 79.214 192.598 80.8206 192.528H146.623C148.09 192.528 149.417 193.855 149.347 195.461Z" fill="#E0E0E0"/>
<path d="M149.347 195.461C149.347 195.461 149.347 195.391 149.347 195.321C149.347 195.251 149.347 195.112 149.347 194.902C149.277 194.553 149.137 193.925 148.648 193.436C148.369 193.156 148.02 192.877 147.601 192.737C147.182 192.528 146.623 192.528 146.134 192.528C145.086 192.528 143.829 192.528 142.431 192.528C136.843 192.528 128.74 192.528 118.681 192.458C108.622 192.458 96.7473 192.458 83.4751 192.458C82.6368 192.458 81.7986 192.458 80.9603 192.458C80.5412 192.458 80.0522 192.528 79.703 192.807C79.3537 193.017 79.0044 193.366 78.7949 193.715C78.3059 194.413 78.0265 195.321 78.0265 196.229C78.0963 197.067 78.0963 197.975 78.1662 198.813C78.3758 202.304 78.5853 205.796 78.7949 209.427C79.214 216.62 79.703 224.092 80.192 231.704L80.2618 233.101C80.3317 233.589 80.2618 234.008 80.4015 234.567C80.6111 235.545 81.3096 236.383 82.2177 236.732C82.7067 236.941 83.1957 236.941 83.6846 236.941H85.0817C85.9898 236.941 86.9678 236.941 87.8758 236.941C91.5781 236.941 95.2803 236.941 98.9127 236.941C106.108 236.941 113.093 236.941 119.729 236.871C126.365 236.871 132.652 236.871 138.52 236.802C139.987 236.802 141.454 236.802 142.851 236.802C143.2 236.802 143.549 236.802 143.898 236.802C144.248 236.802 144.597 236.802 144.946 236.802C145.645 236.732 146.343 236.313 146.762 235.754C147.251 235.196 147.461 234.497 147.461 233.799C147.461 233.101 147.531 232.472 147.531 231.844C147.601 230.517 147.671 229.26 147.74 228.003C148.229 218.017 148.648 209.916 148.928 204.26C149.068 201.466 149.137 199.302 149.207 197.835C149.207 197.137 149.277 196.508 149.277 196.159C149.347 195.67 149.347 195.461 149.347 195.461C149.347 195.461 149.347 195.67 149.277 196.02C149.277 196.369 149.207 196.997 149.207 197.696C149.137 199.162 148.998 201.327 148.858 204.12C148.579 209.707 148.09 217.807 147.601 227.793C147.531 229.05 147.461 230.307 147.391 231.634C147.321 232.263 147.321 232.961 147.251 233.589C147.251 234.218 147.042 234.916 146.623 235.405C146.204 235.894 145.575 236.243 144.946 236.313C144.597 236.383 144.248 236.313 143.898 236.313C143.549 236.313 143.2 236.313 142.851 236.313C141.454 236.313 139.987 236.313 138.52 236.313C132.652 236.313 126.295 236.313 119.729 236.313C113.093 236.313 106.108 236.313 98.9127 236.313C95.2803 236.313 91.6479 236.313 87.8758 236.313C86.9678 236.313 85.9898 236.313 85.0817 236.313H83.6846C83.1957 236.313 82.7765 236.313 82.3574 236.103C81.5192 235.824 80.8206 235.056 80.6809 234.148C80.6111 233.729 80.6111 233.24 80.5412 232.751L80.4714 231.355C79.9824 223.743 79.5633 216.271 79.0743 209.078C78.8647 205.447 78.6552 201.955 78.4456 198.464C78.3758 197.626 78.3758 196.718 78.3059 195.88C78.3059 195.042 78.5853 194.204 79.0044 193.575C79.4236 192.877 80.192 192.388 81.0302 192.458C81.8684 192.458 82.7067 192.458 83.5449 192.458C96.8171 192.458 108.762 192.458 118.751 192.458C128.74 192.458 136.913 192.458 142.501 192.388C143.898 192.388 145.156 192.388 146.204 192.388C146.762 192.388 147.251 192.388 147.671 192.598C148.09 192.737 148.439 193.017 148.648 193.296C149.137 193.855 149.347 194.413 149.417 194.763C149.347 195.251 149.277 195.461 149.347 195.461Z" fill="#455A64"/>
<path d="M109.6 214.246C109.6 216.271 111.207 217.877 113.233 217.877C115.258 217.877 116.865 216.271 116.865 214.246C116.865 212.221 115.258 210.615 113.233 210.615C111.207 210.615 109.6 212.221 109.6 214.246Z" fill="white"/>
<path d="M109.6 214.246C109.6 214.246 109.6 213.897 109.74 213.408C109.88 212.849 110.229 212.081 111.067 211.452C111.486 211.173 111.975 210.894 112.534 210.824C113.093 210.754 113.722 210.754 114.35 210.964C114.979 211.173 115.538 211.592 115.957 212.151C116.376 212.709 116.656 213.478 116.656 214.176C116.656 214.944 116.376 215.642 115.957 216.201C115.538 216.76 114.979 217.179 114.35 217.388C113.722 217.598 113.093 217.668 112.534 217.528C111.975 217.458 111.486 217.179 111.067 216.899C110.229 216.271 109.88 215.503 109.74 214.944C109.6 214.525 109.67 214.246 109.6 214.246C109.6 214.246 109.6 214.316 109.6 214.455C109.6 214.595 109.6 214.804 109.67 215.084C109.81 215.642 110.159 216.48 110.997 217.109C111.417 217.458 111.906 217.737 112.534 217.807C113.163 217.947 113.861 217.877 114.49 217.668C115.119 217.458 115.747 216.969 116.236 216.341C116.725 215.712 116.935 214.944 116.935 214.106C116.935 213.268 116.656 212.5 116.236 211.871C115.817 211.243 115.189 210.824 114.49 210.545C113.861 210.265 113.163 210.265 112.534 210.405C111.906 210.545 111.417 210.824 110.997 211.103C110.159 211.732 109.81 212.57 109.67 213.128C109.6 213.408 109.6 213.617 109.6 213.757C109.6 214.176 109.6 214.246 109.6 214.246Z" fill="#455A64"/>
<path d="M147.251 199.721C147.182 199.721 146.902 206.215 146.553 214.176C146.273 222.137 146.064 228.631 146.134 228.631C146.204 228.631 146.483 222.137 146.832 214.176C147.112 206.215 147.321 199.721 147.251 199.721Z" fill="#455A64"/>
<path d="M165.693 149.511C166.042 149.232 164.505 143.156 164.505 143.156C164.505 143.156 168.697 136.383 168.766 134.218C168.906 132.053 167.16 127.514 167.16 127.514L155.215 124.441C155.215 124.441 151.373 131.564 150.605 134.078C149.836 136.592 151.932 145.112 151.932 145.112L153.957 149.511C153.888 149.511 159.965 154.33 165.693 149.511Z" fill="#FFBE9D"/>
<path d="M168.697 135.545C168.697 135.545 169.186 134.637 169.954 132.891C170.722 131.075 171.63 129.33 169.954 128.352C168.976 127.793 168.138 128.073 168.138 128.073C168.138 128.073 168.417 126.536 167.509 125.978C166.601 125.419 165.763 125.838 165.763 125.838C165.763 125.838 166.042 123.743 164.785 122.835C163.178 121.718 161.502 122.765 161.502 122.765C161.502 122.765 162.549 113.478 162.619 112.989C162.969 111.173 162.27 109.567 160.454 110.056C159.825 110.196 159.406 110.894 158.638 113.966C157.869 116.969 156.612 122.137 156.612 122.137C156.612 122.137 154.516 125.768 153.538 127.723C152.56 129.679 150.604 134.218 150.465 135.405C150.046 138.478 151.862 142.528 151.862 142.528L164.575 143.296C164.435 143.226 168.208 136.452 168.697 135.545Z" fill="#FFBE9D"/>
<path d="M167.928 128.492C167.928 128.492 167.509 128.98 166.95 129.888C166.671 130.377 166.321 130.866 165.972 131.425C165.763 131.704 165.553 132.053 165.413 132.402C165.274 132.751 165.134 133.17 165.274 133.589C165.344 134.008 165.623 134.427 166.042 134.497C166.461 134.637 166.88 134.497 167.16 134.357C167.509 134.218 167.788 134.008 167.998 133.869C168.277 133.659 168.487 133.52 168.697 133.38C169.116 133.031 169.395 132.751 169.674 132.612C169.884 132.402 170.024 132.263 169.954 132.263C169.954 132.263 169.395 132.612 168.557 133.24C168.138 133.52 167.649 133.939 167.02 134.218C166.741 134.357 166.391 134.427 166.042 134.357C165.693 134.288 165.483 133.939 165.413 133.589C165.344 133.24 165.413 132.891 165.553 132.542C165.693 132.193 165.902 131.913 166.042 131.634C166.391 131.075 166.741 130.517 167.02 130.098C167.649 129.05 167.928 128.492 167.928 128.492Z" fill="#EB996E"/>
<path d="M157.52 129.539C157.59 129.539 157.66 128.631 157.38 127.514C157.101 126.397 156.682 125.628 156.612 125.698C156.542 125.698 156.891 126.536 157.171 127.584C157.38 128.701 157.45 129.539 157.52 129.539Z" fill="#EB996E"/>
<path d="M152.49 132.262C153.608 131.075 155.145 130.377 156.752 130.028C158.358 129.679 159.965 129.679 161.571 129.818C162.829 129.958 164.366 130.237 164.924 131.424C165.553 132.612 164.785 134.148 163.667 134.846C162.549 135.544 161.082 135.544 159.755 135.405C158.428 135.265 157.101 135.056 155.774 135.265" fill="#FFBE9D"/>
<path d="M155.774 135.335C155.774 135.335 156.123 135.335 156.752 135.335C157.38 135.335 158.288 135.475 159.476 135.614C160.035 135.684 160.663 135.754 161.362 135.684C162.06 135.614 162.829 135.545 163.527 135.126C164.226 134.776 164.855 134.078 165.134 133.31C165.274 132.891 165.344 132.472 165.204 131.983C165.064 131.564 164.855 131.145 164.505 130.796C163.807 130.168 162.899 129.958 162.06 129.818C161.222 129.749 160.454 129.679 159.685 129.679C158.149 129.679 156.752 129.888 155.634 130.307C154.516 130.656 153.748 131.215 153.189 131.634C152.91 131.844 152.77 131.983 152.63 132.123C152.49 132.263 152.49 132.332 152.49 132.332C152.49 132.332 152.77 132.123 153.259 131.704C153.748 131.355 154.586 130.866 155.704 130.517C156.821 130.168 158.149 129.958 159.685 129.958C160.454 129.958 161.222 130.028 162.06 130.098C162.829 130.237 163.737 130.447 164.366 131.006C164.715 131.285 164.924 131.634 164.994 132.053C165.064 132.472 165.064 132.891 164.924 133.24C164.645 134.008 164.086 134.637 163.457 134.916C162.829 135.265 162.06 135.405 161.432 135.475C160.733 135.545 160.105 135.475 159.546 135.405C158.428 135.265 157.45 135.195 156.821 135.265C156.472 135.265 156.263 135.335 156.053 135.335C155.843 135.265 155.774 135.335 155.774 135.335Z" fill="#EB996E"/>
<path d="M167.858 128.631C166.531 130.656 165.344 132.891 164.226 135.056C163.877 135.684 163.527 136.313 162.969 136.732C162.48 137.011 161.292 136.522 160.733 136.313L164.366 128.003" fill="#FFBE9D"/>
<path d="M164.366 127.933C164.366 127.933 164.226 128.142 164.016 128.561C163.807 128.98 163.527 129.609 163.178 130.307C162.48 131.774 161.572 133.869 160.524 136.243L160.454 136.383L160.594 136.453C161.013 136.592 161.432 136.802 161.851 136.872C162.06 136.941 162.2 136.941 162.41 136.941C162.48 136.941 162.619 136.941 162.689 136.941C162.759 136.941 162.899 136.872 162.969 136.802C163.248 136.592 163.527 136.313 163.737 136.034C164.086 135.475 164.366 134.846 164.645 134.288C165.204 133.17 165.763 132.193 166.182 131.355C166.671 130.517 167.02 129.888 167.3 129.399C167.579 128.911 167.719 128.701 167.719 128.701C167.719 128.701 167.509 128.911 167.23 129.33C166.95 129.749 166.531 130.447 166.042 131.215C165.553 132.053 164.994 133.031 164.436 134.148C164.156 134.707 163.877 135.265 163.527 135.824C163.318 136.103 163.108 136.383 162.829 136.522C162.619 136.732 162.27 136.662 161.921 136.592C161.502 136.453 161.083 136.313 160.663 136.173L160.733 136.383C161.781 134.008 162.689 131.913 163.318 130.447C163.597 129.749 163.877 129.12 164.086 128.701C164.296 128.142 164.366 127.933 164.366 127.933Z" fill="#EB996E"/>
<path d="M165.344 125.419C164.156 128.352 162.969 131.355 161.781 134.288C161.502 134.916 161.292 135.545 160.803 136.034C160.384 136.522 159.685 136.941 159.057 136.802C158.149 136.662 157.52 135.684 157.52 134.777C157.45 133.869 157.869 132.961 158.149 132.123C159.196 129.399 160.035 126.676 160.663 123.813" fill="#FFBE9D"/>
<path d="M160.733 123.813C160.733 123.813 160.663 123.883 160.663 124.092C160.594 124.302 160.524 124.581 160.454 124.86C160.244 125.559 160.035 126.536 159.616 127.723C159.266 128.911 158.777 130.307 158.149 131.913C157.869 132.682 157.45 133.52 157.38 134.427C157.38 134.916 157.45 135.405 157.66 135.824C157.869 136.243 158.218 136.662 158.707 136.872C159.196 137.081 159.755 137.011 160.174 136.732C160.594 136.522 160.943 136.173 161.222 135.754C161.711 134.986 161.991 134.078 162.27 133.38C162.899 131.844 163.388 130.447 163.877 129.26C164.296 128.142 164.645 127.165 164.924 126.466C165.064 126.187 165.134 125.908 165.204 125.698C165.274 125.489 165.274 125.419 165.274 125.419C165.274 125.419 165.204 125.489 165.134 125.698C165.064 125.908 164.924 126.117 164.785 126.466C164.505 127.165 164.086 128.073 163.667 129.19C163.178 130.377 162.619 131.774 161.991 133.31C161.641 134.078 161.432 134.916 160.943 135.684C160.733 136.034 160.384 136.383 159.965 136.592C159.546 136.802 159.127 136.872 158.707 136.732C158.288 136.592 158.009 136.243 157.799 135.824C157.59 135.405 157.52 134.986 157.59 134.567C157.66 133.659 158.009 132.891 158.288 132.123C158.917 130.587 159.336 129.12 159.685 127.933C160.035 126.746 160.244 125.698 160.454 125.07C160.524 124.721 160.594 124.441 160.594 124.302C160.733 123.883 160.733 123.813 160.733 123.813Z" fill="#EB996E"/>
<path d="M173.516 171.159C173.167 169.972 165.134 146.159 165.134 146.159L151.792 144.553L157.241 165.084C157.241 165.084 156.402 170.321 157.241 173.394C158.079 176.467 164.924 184.916 168.417 182.891C171.91 180.866 173.796 172.346 173.516 171.159Z" fill="#FFBE9D"/>
<path d="M157.171 142.458C157.171 142.458 157.45 142.458 157.939 142.388C158.428 142.249 158.987 141.969 159.546 141.48C160.105 140.992 160.454 140.433 160.593 139.944C160.733 139.525 160.803 139.176 160.733 139.176C160.663 139.176 160.384 140.293 159.336 141.271C158.358 142.249 157.171 142.388 157.171 142.458Z" fill="#EB996E"/>
</g>
<defs>
<clipPath id="clip0_253_9031">
<rect width="396" height="300" fill="white"/>
</clipPath>
</defs>
</svg>
