<svg width="352" height="294" viewBox="0 0 352 294" fill="none" xmlns="http://www.w3.org/2000/svg">
<g clip-path="url(#clip0_253_8306)">
<path d="M422.935 282.221C422.935 282.297 308.2 282.45 166.669 282.45C25.0626 282.374 -89.6731 282.297 -89.6731 282.221C-89.6731 282.144 25.0626 281.991 166.669 281.991C308.2 281.991 422.935 282.068 422.935 282.221Z" fill="#747E83"/>
<path d="M351.407 0.229492H0.25293V243.466H351.407V0.229492Z" fill="#FAFAFA"/>
<path d="M351.407 243.466C351.407 242.165 351.331 148.16 351.254 0.229468L351.407 0.382447C254 0.382447 132.165 0.382447 0.253021 0.458936L0.482031 0.229468C0.482031 87.1214 0.482031 169.653 0.482031 243.466L0.329358 243.313C207.51 243.389 349.804 243.466 351.407 243.466C349.804 243.466 207.51 243.542 0.253021 243.619H0.100342V243.466C0.100342 169.653 0.100342 87.1214 0.100342 0.229468V0H0.329358C132.241 0 254.076 0 351.483 0.0764893H351.636V0.229468C351.483 148.16 351.407 242.165 351.407 243.466Z" fill="#747E83"/>
<path d="M351.407 0.229492H0.25293V14.38H351.407V0.229492Z" fill="#747E83"/>
<path d="M10.2532 6.96055C10.2532 8.18438 9.2608 9.10225 8.11573 9.10225C6.89433 9.10225 5.97827 8.10789 5.97827 6.96055C5.97827 5.73672 6.97067 4.81885 8.11573 4.81885C9.2608 4.81885 10.2532 5.81321 10.2532 6.96055Z" fill="white"/>
<path d="M18.0398 6.96055C18.0398 8.18438 17.0474 9.10225 15.9024 9.10225C14.6809 9.10225 13.7649 8.10789 13.7649 6.96055C13.7649 5.73672 14.7573 4.81885 15.9024 4.81885C17.0474 4.81885 18.0398 5.81321 18.0398 6.96055Z" fill="white"/>
<path d="M25.8262 6.96055C25.8262 8.18438 24.8338 9.10225 23.6887 9.10225C22.4673 9.10225 21.5513 8.10789 21.5513 6.96055C21.5513 5.73672 22.5437 4.81885 23.6887 4.81885C24.9101 4.81885 25.8262 5.81321 25.8262 6.96055Z" fill="white"/>
<path d="M338.811 228.168C338.811 227.25 338.735 199.102 338.658 149.154L338.811 149.307C266.367 149.307 148.043 149.384 14.6045 149.384L14.8335 149.154C14.8335 176.232 14.8335 202.697 14.8335 228.168L14.6045 227.938C199.495 228.091 336.903 228.168 338.811 228.168C336.903 228.168 199.495 228.244 14.6045 228.397H14.3755V228.168C14.3755 202.697 14.3755 176.232 14.3755 149.154V148.925H14.6045C148.043 148.925 266.367 149.001 338.811 149.001H338.964V149.154C338.888 199.102 338.811 227.25 338.811 228.168Z" fill="#E0E0E0"/>
<path d="M172.089 142.5C172.089 142.5 172.089 141.811 172.089 140.511C172.089 139.211 172.089 137.222 172.089 134.698C172.089 129.573 172.089 122.077 172.013 112.439C172.013 93.1641 171.937 65.5514 171.937 31.9726L172.089 32.1256C128.424 32.1256 74.148 32.1256 15.3679 32.1256L15.5969 31.8961C15.5969 71.4411 15.5969 108.997 15.5969 142.5L15.4443 142.347C61.705 142.347 100.866 142.423 128.501 142.423C142.318 142.423 153.234 142.423 160.715 142.5C164.456 142.5 167.357 142.5 169.265 142.5C170.257 142.5 170.944 142.5 171.479 142.5C171.86 142.5 172.089 142.5 172.089 142.5C172.089 142.5 171.86 142.5 171.326 142.5C170.868 142.5 170.105 142.5 169.112 142.5C167.204 142.5 164.303 142.5 160.562 142.5C153.081 142.5 142.165 142.5 128.424 142.576C100.79 142.576 61.5523 142.653 15.2916 142.653H15.1389V142.5C15.1389 108.997 15.1389 71.4411 15.1389 31.8961V31.6666H15.3679C74.148 31.6666 128.501 31.6666 172.089 31.6666H172.242V31.8196C172.242 65.4749 172.166 93.0876 172.166 112.363C172.166 122.001 172.166 129.496 172.089 134.621C172.089 137.145 172.089 139.134 172.089 140.434C172.089 141.888 172.089 142.5 172.089 142.5Z" fill="#E0E0E0"/>
<path d="M32.3149 121.618L43.6129 105.249C45.9031 101.884 50.4833 101.119 53.7659 103.49L55.369 104.638C59.3385 107.468 64.8348 105.708 66.4379 101.119L71.9343 85.0562C74.1481 78.5546 83.3849 78.5546 85.5987 85.0562L88.2706 92.8581C90.408 99.1303 99.0342 99.5127 101.706 93.4701L103.996 88.2688C106.286 83.0675 113.386 82.4556 116.592 87.1214C119.951 92.0168 127.508 91.0224 129.417 85.3622L132.012 77.8662C134.379 70.9822 144.303 71.5176 145.906 78.6311L155.753 121.771C155.601 121.618 32.6203 121.236 32.3149 121.618Z" fill="#F8C365"/>
<g opacity="0.3">
<path d="M32.3149 121.618L43.6129 105.249C45.9031 101.884 50.4833 101.119 53.7659 103.49L55.369 104.638C59.3385 107.468 64.8348 105.708 66.4379 101.119L71.9343 85.0562C74.1481 78.5546 83.3849 78.5546 85.5987 85.0562L88.2706 92.8581C90.408 99.1303 99.0342 99.5127 101.706 93.4701L103.996 88.2688C106.286 83.0675 113.386 82.4556 116.592 87.1214C119.951 92.0168 127.508 91.0224 129.417 85.3622L132.012 77.8662C134.379 70.9822 144.303 71.5176 145.906 78.6311L155.753 121.771C155.601 121.618 32.6203 121.236 32.3149 121.618Z" fill="black"/>
</g>
<path d="M32.0095 122.001L41.1701 95.0763C43.3075 88.8042 52.1627 88.6512 54.4528 94.9233L58.8804 106.856C60.7889 111.98 67.5829 113.128 71.0181 108.844L74.606 104.408C76.9725 101.425 81.2474 100.89 84.3009 103.108L92.6217 109.15C93.8432 110.068 95.2936 110.527 96.8203 110.527H107.355C108.882 110.527 110.332 110.986 111.554 111.904L119.416 117.641C122.622 120.012 127.203 119.247 129.417 115.958L136.821 105.173C136.898 105.02 137.05 104.867 137.127 104.79C140.104 101.042 145.982 101.807 148.119 106.091L155.982 121.771C155.829 121.771 32.0095 121.542 32.0095 122.001Z" fill="#F8C365"/>
<path d="M155.753 121.771L146.211 113.969C133.081 104.255 126.821 122.689 116.515 108.921L112.928 104.485C110.561 101.501 106.286 100.966 103.233 103.184L99.1105 106.167C95.2172 109.074 90.4843 110.604 85.5987 110.604H80.1787C78.6519 110.604 77.2015 111.063 75.9801 111.98L68.1173 117.717C64.9111 120.088 62.621 120.394 57.5064 116.034C57.5064 116.034 51.9337 111.445 51.781 111.292C49.0329 107.927 43.3075 107.927 40.8647 111.292C40.254 112.057 39.6433 112.822 38.9563 113.587L31.5515 121.771C31.6279 121.771 155.753 121.236 155.753 121.771Z" fill="#F8C365"/>
<g opacity="0.3">
<path d="M155.753 121.771L146.211 113.969C133.081 104.255 126.821 122.689 116.515 108.921L112.928 104.485C110.561 101.501 106.286 100.966 103.233 103.184L99.1105 106.167C95.2172 109.074 90.4843 110.604 85.5987 110.604H80.1787C78.6519 110.604 77.2015 111.063 75.9801 111.98L68.1173 117.717C64.9111 120.088 62.621 120.394 57.5064 116.034C57.5064 116.034 51.9337 111.445 51.781 111.292C49.0329 107.927 43.3075 107.927 40.8647 111.292C40.254 112.057 39.6433 112.822 38.9563 113.587L31.5515 121.771C31.6279 121.771 155.753 121.236 155.753 121.771Z" fill="white"/>
</g>
<path d="M66.0562 59.6617C66.0562 59.7382 61.7049 59.8912 56.2849 59.8912C50.8649 59.8912 46.5137 59.8147 46.5137 59.6617C46.5137 59.5852 50.8649 59.4323 56.2849 59.4323C61.6286 59.5087 66.0562 59.5852 66.0562 59.6617Z" fill="#747E83"/>
<path d="M44.3 57.979H40.9412V61.3445H44.3V57.979Z" fill="#F8C365"/>
<path d="M103.004 59.6617C103.004 59.7382 98.6525 59.8912 93.2325 59.8912C87.8126 59.8912 83.4613 59.8147 83.4613 59.6617C83.4613 59.5852 87.8126 59.4323 93.2325 59.4323C98.5762 59.5087 103.004 59.5852 103.004 59.6617Z" fill="#747E83"/>
<path d="M81.2474 57.979H77.8885V61.3445H81.2474V57.979Z" fill="#F8C365"/>
<path d="M139.951 59.6617C139.951 59.7382 135.6 59.8912 130.18 59.8912C124.76 59.8912 120.409 59.8147 120.409 59.6617C120.409 59.5852 124.76 59.4323 130.18 59.4323C135.524 59.5087 139.951 59.5852 139.951 59.6617Z" fill="#747E83"/>
<path d="M118.195 57.979H114.836V61.3445H118.195V57.979Z" fill="#F8C365"/>
<path d="M140.409 214.629L148.501 203.079C149.417 201.702 151.325 201.473 152.623 202.467L156.898 205.68C158.272 206.751 160.257 206.292 161.173 204.838L173.387 183.574C174.38 181.815 176.899 181.586 178.196 183.192L185.83 192.906C187.052 194.436 189.494 194.359 190.563 192.677L196.136 183.88C197.281 182.045 200.029 182.121 201.098 183.957L205.678 191.988C206.747 193.901 209.419 193.901 210.64 192.065L226.442 167.282C227.587 165.523 230.106 165.523 231.251 167.206L257.282 206.292C258.351 207.822 260.565 208.051 261.863 206.598L277.665 189.158C278.81 187.934 280.718 187.858 281.863 189.082L294.459 201.779C295.833 203.156 298.047 202.85 299.039 201.167L321.559 162.081C323.009 159.48 326.979 160.551 326.979 163.534V214.629H140.409Z" fill="#F8C365"/>
<path d="M326.368 221.054C326.368 221.054 326.368 220.978 326.368 220.825C326.368 220.672 326.368 220.442 326.368 220.136C326.368 219.524 326.368 218.53 326.368 217.306L326.444 217.383C315.681 217.459 278.199 217.536 233.77 217.536C189.265 217.536 151.86 217.459 141.096 217.383L141.173 217.306C141.173 218.607 141.173 219.524 141.173 220.136C141.173 219.524 141.173 218.53 141.173 217.306V217.23H141.249C152.013 217.153 189.494 217.077 233.923 217.077C278.428 217.077 315.833 217.153 326.597 217.23H326.673V217.306C326.673 218.607 326.673 219.524 326.673 220.136C326.673 220.442 326.673 220.672 326.673 220.825C326.368 220.978 326.368 221.054 326.368 221.054Z" fill="#747E83"/>
<path d="M161.555 220.748C161.478 220.748 161.326 220.366 161.326 219.983C161.326 219.524 161.402 219.219 161.555 219.219C161.631 219.219 161.784 219.601 161.784 219.983C161.784 220.366 161.707 220.748 161.555 220.748Z" fill="#747E83"/>
<path d="M182.166 220.748C182.09 220.748 181.937 220.366 181.937 219.983C181.937 219.524 182.013 219.219 182.166 219.219C182.319 219.219 182.395 219.601 182.395 219.983C182.395 220.366 182.242 220.748 182.166 220.748Z" fill="#747E83"/>
<path d="M202.777 220.748C202.701 220.748 202.548 220.366 202.548 219.983C202.548 219.524 202.624 219.219 202.777 219.219C202.93 219.219 203.006 219.601 203.006 219.983C203.006 220.366 202.853 220.748 202.777 220.748Z" fill="#747E83"/>
<path d="M223.388 220.748C223.312 220.748 223.159 220.366 223.159 219.983C223.159 219.524 223.236 219.219 223.388 219.219C223.465 219.219 223.617 219.601 223.617 219.983C223.541 220.366 223.465 220.748 223.388 220.748Z" fill="#747E83"/>
<path d="M244 220.748C243.923 220.748 243.771 220.366 243.771 219.983C243.771 219.524 243.847 219.219 244 219.219C244.152 219.219 244.229 219.601 244.229 219.983C244.152 220.366 244.076 220.748 244 220.748Z" fill="#747E83"/>
<path d="M264.534 220.748C264.458 220.748 264.305 220.366 264.305 219.983C264.305 219.524 264.382 219.219 264.534 219.219C264.611 219.219 264.763 219.601 264.763 219.983C264.763 220.366 264.687 220.748 264.534 220.748Z" fill="#747E83"/>
<path d="M285.146 220.748C285.069 220.748 284.917 220.366 284.917 219.983C284.917 219.524 284.993 219.219 285.146 219.219C285.222 219.219 285.375 219.601 285.375 219.983C285.375 220.366 285.298 220.748 285.146 220.748Z" fill="#747E83"/>
<path d="M305.757 220.748C305.68 220.748 305.528 220.366 305.528 219.983C305.528 219.524 305.604 219.219 305.757 219.219C305.91 219.219 305.986 219.601 305.986 219.983C305.986 220.366 305.91 220.748 305.757 220.748Z" fill="#747E83"/>
<path d="M339.88 117.182C339.88 117.182 339.88 116.723 339.88 115.805C339.88 114.887 339.88 113.587 339.88 111.904C339.88 108.462 339.88 103.414 339.88 96.912C339.88 83.9089 339.803 65.169 339.803 42.0692L339.956 42.2222C299.115 42.2222 243.847 42.2222 183.235 42.2987L183.464 42.0692C183.464 68.5345 183.464 93.929 183.464 117.182L183.311 117.029C228.961 117.029 268.122 117.105 295.909 117.105C309.803 117.105 320.795 117.182 328.429 117.182C332.246 117.182 335.147 117.182 337.132 117.182C338.124 117.182 338.887 117.182 339.345 117.182C339.574 117.182 339.88 117.182 339.88 117.182C339.88 117.182 339.651 117.182 339.116 117.182C338.582 117.182 337.895 117.182 336.903 117.182C334.918 117.182 332.017 117.182 328.276 117.182C320.719 117.182 309.726 117.182 295.833 117.258C268.046 117.258 228.808 117.335 183.082 117.335H182.929V117.182C182.929 93.929 182.929 68.5345 182.929 42.0692V41.8397H183.158C243.847 41.8397 299.039 41.9162 339.88 41.9162H340.033V42.0692C340.033 65.2455 339.956 84.0618 339.956 97.065C339.956 103.567 339.956 108.538 339.956 111.98C339.956 113.663 339.956 114.964 339.956 115.881C339.88 116.723 339.88 117.182 339.88 117.182Z" fill="#E0E0E0"/>
<path d="M304.383 74.8066H196.365C195.372 74.8066 194.533 73.9652 194.533 72.9709C194.533 71.9765 195.372 71.1351 196.365 71.1351H304.383C305.375 71.1351 306.215 71.9765 306.215 72.9709C306.215 74.0417 305.375 74.8066 304.383 74.8066Z" fill="#E0E0E0"/>
<path d="M304.383 60.5796H196.365C195.372 60.5796 194.533 59.7382 194.533 58.7438C194.533 57.7495 195.372 56.9081 196.365 56.9081H304.383C305.375 56.9081 306.215 57.7495 306.215 58.7438C306.215 59.7382 305.375 60.5796 304.383 60.5796Z" fill="#E0E0E0"/>
<path d="M245.221 74.8066H196.441C195.449 74.8066 194.609 73.9652 194.609 72.9709C194.609 71.9765 195.449 71.1351 196.441 71.1351H245.221C246.213 71.1351 247.053 71.9765 247.053 72.9709C246.977 74.0417 246.213 74.8066 245.221 74.8066Z" fill="#725E3B"/>
<path d="M318.047 73.8123H317.284V74.8831H316.673V73.8123H314.307V73.3533L316.444 70.5997H317.055L314.994 73.2769H316.597V72.359H317.131V73.2769H317.895V73.8123H318.047Z" fill="#747E83"/>
<path d="M321.33 73.5828C321.33 74.3477 320.795 74.8831 319.727 74.8831C319.116 74.8831 318.582 74.6537 318.2 74.3477L318.505 73.8888C318.811 74.1182 319.269 74.3477 319.803 74.3477C320.414 74.3477 320.795 74.0417 320.795 73.5828C320.795 73.1239 320.49 72.8179 319.498 72.8179H318.582L318.811 70.5997H321.177V71.1352H319.345L319.269 72.2825H319.727C320.872 72.2825 321.33 72.8179 321.33 73.5828Z" fill="#747E83"/>
<path d="M321.711 71.7471C321.711 71.0587 322.093 70.5997 322.704 70.5997C323.315 70.5997 323.696 71.0587 323.696 71.7471C323.696 72.4355 323.315 72.8944 322.704 72.8944C322.093 72.8944 321.711 72.4355 321.711 71.7471ZM323.315 71.7471C323.315 71.2116 323.085 70.9057 322.704 70.9057C322.322 70.9057 322.093 71.2116 322.093 71.7471C322.093 72.2825 322.322 72.5885 322.704 72.5885C323.085 72.512 323.315 72.206 323.315 71.7471ZM325.223 70.5997H325.681L322.78 74.8066H322.322L325.223 70.5997ZM324.383 73.7358C324.383 73.0474 324.765 72.5885 325.376 72.5885C325.986 72.5885 326.368 73.0474 326.368 73.7358C326.368 74.4242 325.986 74.8831 325.376 74.8831C324.765 74.8831 324.383 74.4242 324.383 73.7358ZM325.986 73.7358C325.986 73.2004 325.757 72.8944 325.376 72.8944C324.994 72.8944 324.765 73.2004 324.765 73.7358C324.765 74.2712 324.994 74.5772 325.376 74.5772C325.757 74.5007 325.986 74.1947 325.986 73.7358Z" fill="#747E83"/>
<path d="M304.383 88.0393H196.365C195.372 88.0393 194.533 87.1979 194.533 86.2035C194.533 85.2092 195.372 84.3678 196.365 84.3678H304.383C305.375 84.3678 306.215 85.2092 306.215 86.2035C306.215 87.1979 305.375 88.0393 304.383 88.0393Z" fill="#E0E0E0"/>
<path d="M261.099 88.0393H196.517C195.143 88.0393 194.609 87.1979 194.609 86.2035C194.609 85.2092 195.143 84.3678 195.907 84.3678H260.488C261.786 84.3678 262.549 85.2092 262.549 86.2035C262.549 87.7333 261.175 88.0393 261.099 88.0393Z" fill="#725E3B"/>
<path d="M317.513 83.8324V84.2148L315.833 88.0393H315.223L316.902 84.3678H314.917V85.1327H314.307V83.8324H317.513Z" fill="#747E83"/>
<path d="M317.895 85.9741C317.895 84.5973 318.658 83.8324 319.574 83.8324C320.566 83.8324 321.253 84.5973 321.253 85.9741C321.253 87.3509 320.49 88.1158 319.574 88.1158C318.658 88.1158 317.895 87.3509 317.895 85.9741ZM320.719 85.9741C320.719 84.9033 320.261 84.3678 319.574 84.3678C318.887 84.3678 318.429 84.9033 318.429 85.9741C318.429 87.045 318.887 87.5804 319.574 87.5804C320.261 87.5804 320.719 87.045 320.719 85.9741Z" fill="#747E83"/>
<path d="M321.788 84.9797C321.788 84.2913 322.169 83.8324 322.78 83.8324C323.391 83.8324 323.772 84.2913 323.772 84.9797C323.772 85.6681 323.391 86.1271 322.78 86.1271C322.246 86.1271 321.788 85.6681 321.788 84.9797ZM323.391 84.9797C323.391 84.4443 323.162 84.1384 322.78 84.1384C322.398 84.1384 322.169 84.4443 322.169 84.9797C322.169 85.5152 322.398 85.8211 322.78 85.8211C323.162 85.7446 323.391 85.4387 323.391 84.9797ZM325.299 83.8324H325.757L322.856 88.0393H322.398L325.299 83.8324ZM324.46 86.9685C324.46 86.2801 324.841 85.8211 325.452 85.8211C326.063 85.8211 326.444 86.2801 326.444 86.9685C326.444 87.6569 326.063 88.1158 325.452 88.1158C324.841 88.1158 324.46 87.6569 324.46 86.9685ZM326.063 86.9685C326.063 86.433 325.834 86.1271 325.452 86.1271C325.07 86.1271 324.841 86.433 324.841 86.9685C324.841 87.5039 325.07 87.8098 325.452 87.8098C325.834 87.7334 326.063 87.4274 326.063 86.9685Z" fill="#747E83"/>
<path d="M304.383 100.966H196.365C195.372 100.966 194.533 100.125 194.533 99.1302C194.533 98.1358 195.372 97.2944 196.365 97.2944H304.383C305.375 97.2944 306.215 98.1358 306.215 99.1302C306.215 100.125 305.375 100.966 304.383 100.966Z" fill="#E0E0E0"/>
<path d="M236.518 100.966H196.441C195.448 100.966 194.609 100.125 194.609 99.1302C194.609 98.1358 195.448 97.2944 196.441 97.2944H236.518C237.511 97.2944 238.35 98.1358 238.35 99.1302C238.35 100.125 237.511 100.966 236.518 100.966Z" fill="#725E3B"/>
<path d="M317.36 99.7421C317.36 100.507 316.826 101.042 315.757 101.042C315.146 101.042 314.612 100.813 314.23 100.507L314.536 100.048C314.841 100.278 315.299 100.507 315.833 100.507C316.444 100.507 316.826 100.201 316.826 99.7421C316.826 99.2832 316.52 98.9772 315.528 98.9772H314.612L314.841 96.759H317.207V97.2945H315.375L315.299 98.4418H315.757C316.902 98.4418 317.36 98.9772 317.36 99.7421Z" fill="#747E83"/>
<path d="M317.895 98.9007C317.895 97.5239 318.658 96.759 319.574 96.759C320.566 96.759 321.253 97.5239 321.253 98.9007C321.253 100.278 320.49 101.042 319.574 101.042C318.582 101.042 317.895 100.201 317.895 98.9007ZM320.719 98.9007C320.719 97.8299 320.261 97.2945 319.574 97.2945C318.887 97.2945 318.429 97.8299 318.429 98.9007C318.429 99.9716 318.887 100.507 319.574 100.507C320.261 100.507 320.719 99.9716 320.719 98.9007Z" fill="#747E83"/>
<path d="M321.788 97.9064C321.788 97.218 322.169 96.759 322.78 96.759C323.391 96.759 323.772 97.218 323.772 97.9064C323.772 98.5948 323.391 99.0537 322.78 99.0537C322.169 99.0537 321.788 98.5948 321.788 97.9064ZM323.391 97.9064C323.391 97.3709 323.162 97.065 322.78 97.065C322.398 97.065 322.169 97.3709 322.169 97.9064C322.169 98.4418 322.398 98.7478 322.78 98.7478C323.162 98.6713 323.391 98.3653 323.391 97.9064ZM325.299 96.759H325.757L322.856 100.966H322.398L325.299 96.759ZM324.46 99.8186C324.46 99.1302 324.841 98.6713 325.452 98.6713C326.063 98.6713 326.444 99.1302 326.444 99.8186C326.444 100.507 326.063 100.966 325.452 100.966C324.841 100.966 324.46 100.507 324.46 99.8186ZM325.986 99.8186C325.986 99.2832 325.757 98.9772 325.376 98.9772C324.994 98.9772 324.765 99.2832 324.765 99.8186C324.765 100.354 324.994 100.66 325.376 100.66C325.834 100.66 325.986 100.354 325.986 99.8186Z" fill="#747E83"/>
<path d="M267.893 60.5797H196.441C195.449 60.5797 194.609 59.7383 194.609 58.7439C194.609 57.7496 195.449 56.9082 196.441 56.9082H267.893C268.886 56.9082 269.725 57.7496 269.725 58.7439C269.725 59.7383 268.886 60.5797 267.893 60.5797Z" fill="#F8C365"/>
<path d="M317.666 59.2794C317.666 60.1207 316.978 60.5797 316.215 60.5797C315.07 60.5797 314.459 59.8148 314.459 58.5145C314.459 57.0612 315.299 56.2963 316.444 56.2963C316.826 56.2963 317.208 56.3728 317.513 56.5257L317.284 56.9847C317.055 56.8317 316.749 56.7552 316.444 56.7552C315.604 56.7552 315.07 57.2906 315.07 58.3615C315.07 58.438 315.07 58.438 315.07 58.5145C315.299 58.132 315.757 57.979 316.291 57.979C317.055 57.979 317.666 58.5145 317.666 59.2794ZM317.055 59.2794C317.055 58.8204 316.673 58.438 316.062 58.438C315.528 58.438 315.07 58.8204 315.07 59.2794C315.07 59.7383 315.452 60.1207 316.062 60.1207C316.673 60.1207 317.055 59.8148 317.055 59.2794Z" fill="#747E83"/>
<path d="M318.124 58.438C318.124 57.0612 318.887 56.2963 319.803 56.2963C320.795 56.2963 321.482 57.0612 321.482 58.438C321.482 59.8148 320.719 60.5797 319.803 60.5797C318.887 60.5797 318.124 59.8148 318.124 58.438ZM320.948 58.438C320.948 57.3671 320.49 56.8317 319.803 56.8317C319.116 56.8317 318.658 57.3671 318.658 58.438C318.658 59.5088 319.116 60.0442 319.803 60.0442C320.49 60.0442 320.948 59.5088 320.948 58.438Z" fill="#747E83"/>
<path d="M322.093 57.4436C322.093 56.7552 322.475 56.2963 323.086 56.2963C323.696 56.2963 324.078 56.7552 324.078 57.4436C324.078 58.132 323.696 58.5909 323.086 58.5909C322.475 58.5909 322.093 58.132 322.093 57.4436ZM323.62 57.4436C323.62 56.9082 323.391 56.6022 323.009 56.6022C322.627 56.6022 322.398 56.9082 322.398 57.4436C322.398 57.979 322.627 58.285 323.009 58.285C323.391 58.285 323.62 57.979 323.62 57.4436ZM325.605 56.3728H326.063L323.162 60.5797H322.704L325.605 56.3728ZM324.689 59.4323C324.689 58.7439 325.07 58.285 325.681 58.285C326.292 58.285 326.673 58.7439 326.673 59.4323C326.673 60.1207 326.292 60.5797 325.681 60.5797C325.147 60.5797 324.689 60.1207 324.689 59.4323ZM326.292 59.4323C326.292 58.8969 326.063 58.5909 325.681 58.5909C325.299 58.5909 325.07 58.8969 325.07 59.4323C325.07 59.9678 325.299 60.2737 325.681 60.2737C326.063 60.2737 326.292 59.9678 326.292 59.4323Z" fill="#747E83"/>
<path d="M301.864 124.907C301.864 124.984 275.451 125.137 242.855 125.137C210.258 125.137 183.845 125.06 183.845 124.907C183.845 124.754 210.258 124.678 242.855 124.678C275.451 124.678 301.864 124.754 301.864 124.907Z" fill="#E0E0E0"/>
<path d="M301.864 131.868C301.864 131.944 275.451 132.097 242.855 132.097C210.258 132.097 183.845 132.021 183.845 131.868C183.845 131.791 210.258 131.638 242.855 131.638C275.451 131.715 301.864 131.791 301.864 131.868Z" fill="#E0E0E0"/>
<path d="M301.864 138.216C301.864 138.293 275.451 138.446 242.855 138.446C210.258 138.446 183.845 138.369 183.845 138.216C183.845 138.063 210.258 137.987 242.855 137.987C275.451 138.063 301.864 138.14 301.864 138.216Z" fill="#E0E0E0"/>
<path d="M36.208 210.04C35.0629 210.04 34.0706 209.122 34.0706 207.898V168.047C34.0706 166.9 34.9866 165.905 36.208 165.905C37.3531 165.905 38.3455 166.823 38.3455 168.047V207.898C38.3455 209.122 37.3531 210.04 36.208 210.04Z" fill="#E0E0E0"/>
<path d="M36.208 210.269C35.0629 210.269 34.0706 209.351 34.0706 208.128V182.427C34.0706 181.28 34.9866 180.285 36.208 180.285C37.3531 180.285 38.3455 181.203 38.3455 182.427V208.128C38.3455 209.275 37.3531 210.269 36.208 210.269Z" fill="#F8C365"/>
<path d="M34.834 211.952V215.471H34.4523V212.258H33.6125V211.952H34.834Z" fill="#747E83"/>
<path d="M35.6736 213.711C35.6736 212.564 36.2843 211.875 37.0477 211.875C37.8874 211.875 38.4981 212.564 38.4981 213.711C38.4981 214.859 37.8874 215.547 37.0477 215.547C36.2843 215.47 35.6736 214.859 35.6736 213.711ZM38.1927 213.711C38.1927 212.793 37.7347 212.258 37.124 212.258C36.5133 212.258 36.0553 212.793 36.0553 213.711C36.0553 214.629 36.5133 215.165 37.124 215.165C37.7347 215.165 38.1927 214.629 38.1927 213.711Z" fill="#747E83"/>
<path d="M44.6814 210.04C43.5363 210.04 42.5439 209.122 42.5439 207.898V168.047C42.5439 166.9 43.46 165.905 44.6814 165.905C45.8265 165.905 46.8189 166.823 46.8189 168.047V207.898C46.8189 209.122 45.8265 210.04 44.6814 210.04Z" fill="#E0E0E0"/>
<path d="M44.6814 210.269C43.5363 210.269 42.5439 209.351 42.5439 208.127V174.319C42.5439 173.172 43.46 172.177 44.6814 172.177C45.8265 172.177 46.8189 173.095 46.8189 174.319V208.127C46.8189 209.275 45.8265 210.269 44.6814 210.269Z" fill="#F8C365"/>
<path d="M44.1472 215.165V215.47H41.628V215.241L43.0784 213.788C43.4601 213.405 43.5365 213.176 43.5365 212.946C43.5365 212.564 43.2311 212.258 42.6967 212.258C42.3151 212.258 41.9334 212.411 41.7044 212.64L41.4753 212.411C41.7807 212.105 42.1624 211.875 42.6967 211.875C43.3838 211.875 43.8418 212.258 43.8418 212.87C43.8418 213.176 43.7655 213.482 43.2311 214.017L42.0097 215.165H44.1472Z" fill="#747E83"/>
<path d="M44.6052 213.711C44.6052 212.564 45.2159 211.875 45.9793 211.875C46.819 211.875 47.4297 212.564 47.4297 213.711C47.4297 214.859 46.819 215.547 45.9793 215.547C45.2159 215.47 44.6052 214.859 44.6052 213.711ZM47.048 213.711C47.048 212.793 46.59 212.258 45.9793 212.258C45.3686 212.258 44.9106 212.793 44.9106 213.711C44.9106 214.629 45.3686 215.165 45.9793 215.165C46.6663 215.165 47.048 214.629 47.048 213.711Z" fill="#747E83"/>
<path d="M53.155 210.04C52.01 210.04 51.0176 209.122 51.0176 207.898V168.047C51.0176 166.9 51.9336 165.905 53.155 165.905C54.3001 165.905 55.2925 166.823 55.2925 168.047V207.898C55.2925 209.122 54.3001 210.04 53.155 210.04Z" fill="#E0E0E0"/>
<path d="M53.155 210.269C52.01 210.269 51.0176 209.351 51.0176 208.127V188.47C51.0176 187.322 51.9336 186.328 53.155 186.328C54.3001 186.328 55.2925 187.246 55.2925 188.47V208.127C55.2925 209.275 54.3001 210.269 53.155 210.269Z" fill="#F8C365"/>
<path d="M52.6206 214.476C52.6206 215.088 52.1626 215.547 51.3229 215.547C50.7885 215.547 50.3305 215.394 50.0251 215.088L50.1778 214.782C50.4068 215.012 50.7885 215.165 51.2466 215.165C51.8573 215.165 52.1626 214.859 52.1626 214.476C52.1626 214.017 51.8573 213.788 51.1702 213.788H50.9412V213.482L51.9336 212.258H50.1015V211.952H52.3916V212.181L51.3992 213.405C52.2389 213.482 52.6206 213.864 52.6206 214.476Z" fill="#747E83"/>
<path d="M53.155 213.711C53.155 212.564 53.7657 211.875 54.5291 211.875C55.3688 211.875 55.9795 212.564 55.9795 213.711C55.9795 214.859 55.3688 215.547 54.5291 215.547C53.6894 215.47 53.155 214.859 53.155 213.711ZM55.5978 213.711C55.5978 212.793 55.1398 212.258 54.5291 212.258C53.9184 212.258 53.4604 212.793 53.4604 213.711C53.4604 214.629 53.9184 215.165 54.5291 215.165C55.1398 215.165 55.5978 214.629 55.5978 213.711Z" fill="#747E83"/>
<path d="M61.6284 210.04C60.4834 210.04 59.491 209.122 59.491 207.898V168.047C59.491 166.9 60.407 165.905 61.6284 165.905C62.7735 165.905 63.7659 166.823 63.7659 168.047V207.898C63.7659 209.122 62.8498 210.04 61.6284 210.04Z" fill="#E0E0E0"/>
<path d="M61.6284 210.269C60.4834 210.269 59.491 209.351 59.491 208.127V174.319C59.491 173.172 60.407 172.177 61.6284 172.177C62.7735 172.177 63.7659 173.095 63.7659 174.319V208.127C63.7659 209.275 62.8498 210.269 61.6284 210.269Z" fill="#F8C365"/>
<path d="M61.6285 214.553H60.9414V215.471H60.5597V214.553H58.575V214.323L60.4834 211.952H60.8651L59.033 214.247H60.5597V213.405H60.9414V214.247H61.6285V214.553Z" fill="#747E83"/>
<path d="M62.0103 213.711C62.0103 212.564 62.621 211.875 63.3843 211.875C64.2241 211.875 64.8348 212.564 64.8348 213.711C64.8348 214.859 64.2241 215.547 63.3843 215.547C62.621 215.47 62.0103 214.859 62.0103 213.711ZM64.4531 213.711C64.4531 212.793 63.995 212.258 63.3843 212.258C62.7736 212.258 62.3156 212.793 62.3156 213.711C62.3156 214.629 62.7736 215.165 63.3843 215.165C63.995 215.165 64.4531 214.629 64.4531 213.711Z" fill="#747E83"/>
<path d="M70.1018 210.04C68.9567 210.04 67.9644 209.122 67.9644 207.898V168.047C67.9644 166.9 68.8804 165.905 70.1018 165.905C71.2469 165.905 72.2393 166.823 72.2393 168.047V207.898C72.2393 209.122 71.3232 210.04 70.1018 210.04Z" fill="#E0E0E0"/>
<path d="M70.1018 210.269C68.9567 210.269 67.9644 209.351 67.9644 208.127V180.821C67.9644 179.673 68.8804 178.679 70.1018 178.679C71.2469 178.679 72.2393 179.597 72.2393 180.821V208.127C72.2393 209.275 71.3232 210.269 70.1018 210.269Z" fill="#F8C365"/>
<path d="M69.9493 214.4C69.9493 215.012 69.5676 215.47 68.6515 215.47C68.1171 215.47 67.6591 215.318 67.3538 215.012L67.5064 214.706C67.7354 214.935 68.1171 215.088 68.5752 215.088C69.1859 215.088 69.4912 214.782 69.4912 214.4C69.4912 213.941 69.1859 213.635 68.3462 213.635H67.5828L67.7354 211.875H69.6439V212.181H68.0408L67.8881 213.329H68.3462C69.5676 213.405 69.9493 213.788 69.9493 214.4Z" fill="#747E83"/>
<path d="M70.4072 213.711C70.4072 212.564 71.0179 211.875 71.7813 211.875C72.621 211.875 73.2317 212.564 73.2317 213.711C73.2317 214.859 72.621 215.547 71.7813 215.547C71.0179 215.47 70.4072 214.859 70.4072 213.711ZM72.85 213.711C72.85 212.793 72.392 212.258 71.7813 212.258C71.1706 212.258 70.7126 212.793 70.7126 213.711C70.7126 214.629 71.1706 215.165 71.7813 215.165C72.392 215.165 72.85 214.629 72.85 213.711Z" fill="#747E83"/>
<path d="M78.5756 210.04C77.4305 210.04 76.4381 209.122 76.4381 207.898V168.047C76.4381 166.9 77.3542 165.905 78.5756 165.905C79.7206 165.905 80.713 166.823 80.713 168.047V207.898C80.713 209.122 79.797 210.04 78.5756 210.04Z" fill="#E0E0E0"/>
<path d="M78.5756 210.04C77.4305 210.04 76.4381 209.122 76.4381 208.127V188.47C76.4381 187.093 77.3542 186.175 78.5756 186.175C79.7206 186.175 80.713 187.093 80.713 188.317V207.975C80.713 209.122 79.797 210.04 78.5756 210.04Z" fill="#F8C365"/>
<path d="M78.3465 214.4C78.3465 215.088 77.8121 215.47 77.1251 215.47C76.209 215.47 75.6747 214.782 75.6747 213.711C75.6747 212.487 76.3617 211.875 77.2778 211.875C77.5831 211.875 77.8885 211.952 78.1175 212.105L77.9648 212.411C77.8121 212.258 77.5068 212.258 77.2778 212.258C76.5144 212.258 76.0564 212.717 76.0564 213.711C76.0564 213.788 76.0564 213.864 76.0564 214.017C76.209 213.635 76.6671 213.405 77.1251 213.405C77.8121 213.329 78.3465 213.788 78.3465 214.4ZM77.9648 214.4C77.9648 213.941 77.5831 213.635 77.0488 213.635C76.5144 213.635 76.1327 213.941 76.1327 214.4C76.1327 214.782 76.4381 215.165 77.0488 215.165C77.5831 215.165 77.9648 214.859 77.9648 214.4Z" fill="#747E83"/>
<path d="M78.7281 213.711C78.7281 212.564 79.3388 211.875 80.1022 211.875C80.9419 211.875 81.5526 212.564 81.5526 213.711C81.5526 214.859 80.9419 215.547 80.1022 215.547C79.3388 215.47 78.7281 214.859 78.7281 213.711ZM81.171 213.711C81.171 212.793 80.7129 212.258 80.1022 212.258C79.4915 212.258 79.0335 212.793 79.0335 213.711C79.0335 214.629 79.4915 215.165 80.1022 215.165C80.7893 215.165 81.171 214.629 81.171 213.711Z" fill="#747E83"/>
<path d="M87.1254 210.04C85.9803 210.04 84.9879 209.122 84.9879 207.898V168.047C84.9879 166.9 85.904 165.905 87.1254 165.905C88.2704 165.905 89.2628 166.823 89.2628 168.047V207.898C89.1865 209.122 88.2704 210.04 87.1254 210.04Z" fill="#E0E0E0"/>
<path d="M87.1254 210.269C85.9803 210.269 84.9879 209.351 84.9879 208.128V172.254C84.9879 171.107 85.904 170.112 87.1254 170.112C88.2704 170.112 89.2628 171.03 89.2628 172.254V208.128C89.1865 209.275 88.2704 210.269 87.1254 210.269Z" fill="#F8C365"/>
<path d="M86.6673 211.952V212.181L85.2169 215.471H84.8352L86.2856 212.258H84.3772V212.946H83.9955V211.952H86.6673Z" fill="#747E83"/>
<path d="M87.049 213.711C87.049 212.564 87.6597 211.875 88.423 211.875C89.2627 211.875 89.8734 212.564 89.8734 213.711C89.8734 214.859 89.2627 215.547 88.423 215.547C87.5833 215.47 87.049 214.859 87.049 213.711ZM89.4918 213.711C89.4918 212.793 89.0337 212.258 88.423 212.258C87.8123 212.258 87.3543 212.793 87.3543 213.711C87.3543 214.629 87.8123 215.165 88.423 215.165C89.0337 215.165 89.4918 214.629 89.4918 213.711Z" fill="#747E83"/>
<path d="M95.5989 210.04C94.4538 210.04 93.4614 209.122 93.4614 207.898V168.047C93.4614 166.9 94.3775 165.905 95.5989 165.905C96.744 165.905 97.7363 166.823 97.7363 168.047V207.898C97.66 209.122 96.744 210.04 95.5989 210.04Z" fill="#E0E0E0"/>
<path d="M95.5989 210.269C94.4538 210.269 93.4614 209.351 93.4614 208.127V192.524C93.4614 191.376 94.3775 190.382 95.5989 190.382C96.744 190.382 97.7363 191.3 97.7363 192.524V208.127C97.66 209.275 96.744 210.269 95.5989 210.269Z" fill="#F8C365"/>
<path d="M95.1409 214.476C95.1409 215.088 94.6065 215.471 93.7668 215.471C92.9271 215.471 92.3927 215.088 92.3927 214.476C92.3927 214.017 92.6217 213.788 93.0797 213.635C92.698 213.482 92.5454 213.252 92.5454 212.87C92.5454 212.258 93.0034 211.952 93.7668 211.952C94.5302 211.952 94.9882 212.334 94.9882 212.87C94.9882 213.252 94.7592 213.482 94.4538 213.635C94.9118 213.788 95.1409 214.094 95.1409 214.476ZM94.7592 214.476C94.7592 214.017 94.3775 213.788 93.7668 213.788C93.1561 213.788 92.7744 214.094 92.7744 214.476C92.7744 214.935 93.1561 215.165 93.7668 215.165C94.3775 215.165 94.7592 214.935 94.7592 214.476ZM93.7668 213.482C94.3011 213.482 94.6828 213.252 94.6828 212.87C94.6828 212.487 94.3011 212.258 93.7668 212.258C93.2324 212.258 92.9271 212.487 92.9271 212.87C92.9271 213.252 93.2324 213.482 93.7668 213.482Z" fill="#747E83"/>
<path d="M95.6752 213.711C95.6752 212.564 96.2859 211.875 97.0493 211.875C97.889 211.875 98.4997 212.564 98.4997 213.711C98.4997 214.859 97.889 215.547 97.0493 215.547C96.2095 215.47 95.6752 214.859 95.6752 213.711ZM98.118 213.711C98.118 212.793 97.66 212.258 97.0493 212.258C96.4386 212.258 95.9805 212.793 95.9805 213.711C95.9805 214.629 96.4386 215.165 97.0493 215.165C97.66 215.165 98.118 214.629 98.118 213.711Z" fill="#747E83"/>
<path d="M104.072 210.04C102.927 210.04 101.935 209.122 101.935 207.898V168.047C101.935 166.9 102.851 165.905 104.072 165.905C105.217 165.905 106.21 166.823 106.21 168.047V207.898C106.21 209.122 105.217 210.04 104.072 210.04Z" fill="#E0E0E0"/>
<path d="M104.072 210.04C102.927 210.04 101.935 209.122 101.935 208.128V202.697C101.935 201.32 102.851 200.402 104.072 200.402C105.217 200.402 106.21 201.32 106.21 202.544V207.975C106.21 209.122 105.217 210.04 104.072 210.04Z" fill="#F8C365"/>
<path d="M103.385 213.635C103.385 214.859 102.698 215.47 101.782 215.47C101.477 215.47 101.172 215.394 100.943 215.241L101.095 214.935C101.248 215.088 101.553 215.088 101.782 215.088C102.546 215.088 103.004 214.629 103.004 213.635C103.004 213.558 103.004 213.482 103.004 213.329C102.851 213.711 102.393 213.941 101.935 213.941C101.248 213.941 100.714 213.558 100.714 212.87C100.714 212.181 101.248 211.799 101.935 211.799C102.927 211.875 103.385 212.564 103.385 213.635ZM102.927 212.946C102.927 212.564 102.622 212.181 102.011 212.181C101.477 212.181 101.172 212.487 101.172 212.946C101.172 213.405 101.553 213.711 102.088 213.711C102.546 213.711 102.927 213.405 102.927 212.946Z" fill="#747E83"/>
<path d="M103.92 213.711C103.92 212.564 104.53 211.875 105.294 211.875C106.133 211.875 106.744 212.564 106.744 213.711C106.744 214.859 106.133 215.547 105.294 215.547C104.53 215.47 103.92 214.859 103.92 213.711ZM106.362 213.711C106.362 212.793 105.904 212.258 105.294 212.258C104.683 212.258 104.225 212.793 104.225 213.711C104.225 214.629 104.683 215.165 105.294 215.165C105.981 215.165 106.362 214.629 106.362 213.711Z" fill="#747E83"/>
<path d="M112.546 210.04C111.401 210.04 110.408 209.122 110.408 207.898V168.047C110.408 166.9 111.324 165.905 112.546 165.905C113.691 165.905 114.683 166.823 114.683 168.047V207.898C114.683 209.122 113.691 210.04 112.546 210.04Z" fill="#E0E0E0"/>
<path d="M112.546 210.04C111.401 210.04 110.408 209.122 110.408 208.127V188.47C110.408 187.093 111.324 186.175 112.546 186.175C113.691 186.175 114.683 187.093 114.683 188.317V207.975C114.683 209.122 113.691 210.04 112.546 210.04Z" fill="#F8C365"/>
<path d="M109.492 211.952V215.471H109.111V212.258H108.271V211.952H109.492Z" fill="#747E83"/>
<path d="M110.332 213.711C110.332 212.564 110.943 211.875 111.706 211.875C112.546 211.875 113.157 212.564 113.157 213.711C113.157 214.859 112.546 215.547 111.706 215.547C110.943 215.47 110.332 214.859 110.332 213.711ZM112.775 213.711C112.775 212.793 112.317 212.258 111.706 212.258C111.095 212.258 110.637 212.793 110.637 213.711C110.637 214.629 111.095 215.165 111.706 215.165C112.393 215.165 112.775 214.629 112.775 213.711Z" fill="#747E83"/>
<path d="M113.691 213.711C113.691 212.564 114.302 211.875 115.065 211.875C115.905 211.875 116.515 212.564 116.515 213.711C116.515 214.859 115.905 215.547 115.065 215.547C114.302 215.47 113.691 214.859 113.691 213.711ZM116.134 213.711C116.134 212.793 115.676 212.258 115.065 212.258C114.454 212.258 113.996 212.793 113.996 213.711C113.996 214.629 114.454 215.165 115.065 215.165C115.676 215.165 116.134 214.629 116.134 213.711Z" fill="#747E83"/>
<path d="M130.104 218.377C130.027 218.377 129.875 205.221 129.875 189.082C129.875 172.866 129.951 159.786 130.104 159.786C130.256 159.786 130.333 172.942 130.333 189.082C130.333 205.297 130.256 218.377 130.104 218.377Z" fill="#E0E0E0"/>
<path d="M179.494 163.611C179.494 163.687 171.402 163.84 161.478 163.84C151.478 163.84 143.463 163.764 143.463 163.611C143.463 163.458 151.554 163.381 161.478 163.381C171.402 163.381 179.494 163.458 179.494 163.611Z" fill="#747E83"/>
<g opacity="0.5">
<path d="M140.409 214.629L148.501 203.079C149.417 201.702 151.325 201.473 152.623 202.467L156.898 205.68C158.272 206.751 160.257 206.292 161.173 204.838L173.387 183.574C174.38 181.815 176.899 181.586 178.196 183.192L185.83 192.906C187.052 194.436 189.494 194.359 190.563 192.677L196.136 183.88C197.281 182.045 200.029 182.121 201.098 183.957L205.678 191.988C206.747 193.901 209.419 193.901 210.64 192.065L226.442 167.282C227.587 165.523 230.106 165.523 231.251 167.206L257.282 206.292C258.351 207.822 260.565 208.051 261.863 206.598L277.665 189.158C278.81 187.934 280.718 187.858 281.863 189.082L294.459 201.779C295.833 203.156 298.047 202.85 299.039 201.167L321.559 162.081C323.009 159.48 326.979 160.551 326.979 163.534V214.629H140.409Z" fill="white"/>
</g>
<path d="M269.496 260.498L269.878 274.419C269.878 274.419 284.077 278.702 284.459 281.226L257.588 282.909L256.061 261.263L269.496 260.498Z" fill="#F8C365"/>
<path d="M261.557 273.73C261.023 273.883 260.718 274.495 260.87 275.031C261.023 275.566 261.634 275.872 262.168 275.719C262.702 275.566 263.084 274.801 262.855 274.342C262.626 273.807 261.863 273.501 261.405 273.807" fill="#E0E0E0"/>
<g opacity="0.6">
<path d="M257.588 282.986L257.511 280.767L283.314 279.926C283.314 279.926 284.535 280.385 284.459 281.226L257.588 282.986Z" fill="white"/>
</g>
<path d="M270.336 274.266C270.336 274.419 269.725 274.495 269.038 274.954C268.428 275.413 268.122 276.025 267.97 275.949C267.817 275.949 267.97 275.107 268.733 274.572C269.573 274.036 270.336 274.113 270.336 274.266Z" fill="#747E83"/>
<path d="M273.237 275.184C273.237 275.337 272.703 275.566 272.321 276.178C271.863 276.713 271.787 277.325 271.71 277.325C271.558 277.325 271.481 276.56 271.939 275.872C272.474 275.184 273.237 275.107 273.237 275.184Z" fill="#747E83"/>
<path d="M275.069 278.473C274.917 278.473 274.764 277.861 274.993 277.096C275.298 276.331 275.909 276.025 275.909 276.101C275.985 276.178 275.604 276.637 275.375 277.249C275.146 277.937 275.146 278.473 275.069 278.473Z" fill="#747E83"/>
<path d="M269.878 271.053C269.802 271.206 269.191 271.053 268.504 271.13C267.741 271.206 267.206 271.512 267.13 271.359C267.054 271.283 267.588 270.747 268.428 270.671C269.344 270.594 269.955 270.977 269.878 271.053Z" fill="#747E83"/>
<path d="M269.802 268.3C269.802 268.376 269.268 268.453 268.428 268.376C268.046 268.3 267.512 268.223 266.977 268.07C266.748 267.994 266.443 267.841 266.214 267.688C266.061 267.611 265.909 267.535 265.756 267.382C265.603 267.229 265.527 266.923 265.68 266.693C265.832 266.464 266.061 266.387 266.214 266.387C266.443 266.387 266.596 266.387 266.748 266.387C267.054 266.464 267.359 266.54 267.588 266.617C268.122 266.846 268.581 267.076 268.886 267.382C269.573 267.917 269.802 268.376 269.726 268.453C269.649 268.529 269.344 268.07 268.657 267.688C268.351 267.458 267.893 267.229 267.435 267.076C267.206 266.999 266.901 266.923 266.672 266.923C266.367 266.846 266.138 266.846 266.061 266.999C266.061 267.076 266.061 267.076 266.138 267.152C266.214 267.229 266.29 267.305 266.443 267.382C266.672 267.535 266.901 267.611 267.206 267.764C267.664 267.994 268.122 268.07 268.504 268.147C269.268 268.223 269.802 268.223 269.802 268.3Z" fill="#747E83"/>
<path d="M269.649 268.453C269.573 268.453 269.344 267.994 269.191 267.152C269.115 266.693 269.115 266.234 269.267 265.699C269.344 265.393 269.42 265.164 269.573 264.858C269.725 264.552 269.878 264.246 270.413 264.093C270.642 264.093 270.947 264.246 271.023 264.399C271.1 264.552 271.176 264.705 271.176 264.858C271.252 265.164 271.252 265.469 271.252 265.775C271.176 266.387 271.023 266.846 270.794 267.229C270.336 267.994 269.802 268.147 269.725 268.147C269.649 268.07 270.107 267.764 270.489 267.076C270.642 266.77 270.794 266.311 270.871 265.775C270.871 265.546 270.871 265.24 270.794 265.011C270.718 264.705 270.642 264.475 270.489 264.552C270.336 264.552 270.107 264.781 270.031 265.011C269.878 265.24 269.802 265.546 269.725 265.775C269.573 266.311 269.573 266.77 269.573 267.152C269.496 267.994 269.649 268.453 269.649 268.453Z" fill="#747E83"/>
<path d="M212.625 259.886L211.022 277.784L205.678 291.552C205.296 292.547 205.831 293.618 206.823 294C207.358 294.153 207.968 294.076 208.503 293.694C211.48 291.399 222.549 282.909 222.625 281.609C222.701 280.079 225.602 262.869 225.602 262.869L212.625 259.886Z" fill="#F8C365"/>
<g opacity="0.6">
<path d="M206.823 293.923L222.701 280.308L222.625 281.073C222.549 281.762 222.243 282.297 221.785 282.756C220.488 283.98 216.9 287.192 208.579 293.617C208.045 294 207.434 294.153 206.823 293.923Z" fill="white"/>
</g>
<g opacity="0.6">
<path d="M219.724 274.113C219.266 274.342 219.037 275.031 219.266 275.49C219.495 275.949 220.182 276.178 220.64 275.949C221.098 275.719 221.404 274.954 221.098 274.419C220.793 273.96 220.03 273.73 219.572 274.113" fill="white"/>
</g>
<path d="M211.785 286.581C211.709 286.581 211.403 285.663 210.411 285.051C209.419 284.362 208.426 284.515 208.426 284.439C208.426 284.362 208.655 284.286 209.113 284.286C209.495 284.286 210.106 284.362 210.64 284.745C211.174 285.127 211.556 285.586 211.709 285.969C211.861 286.351 211.861 286.581 211.785 286.581Z" fill="#747E83"/>
<path d="M210.258 288.875C210.182 288.952 209.648 288.263 208.808 287.957C207.892 287.575 207.128 287.651 207.128 287.498C207.052 287.422 207.968 287.116 208.961 287.575C209.953 287.957 210.335 288.799 210.258 288.875Z" fill="#747E83"/>
<path d="M214.533 283.827C214.457 283.903 213.694 282.909 212.319 282.221C211.022 281.532 209.724 281.456 209.724 281.303C209.724 281.226 211.022 281.073 212.472 281.838C213.923 282.603 214.61 283.75 214.533 283.827Z" fill="#747E83"/>
<path d="M215.449 278.396C215.373 278.473 214.457 277.937 213.159 277.784C211.862 277.555 210.869 277.784 210.793 277.631C210.716 277.555 211.862 277.172 213.236 277.325C214.61 277.631 215.526 278.32 215.449 278.396Z" fill="#747E83"/>
<path d="M216.06 273.195C215.984 273.271 215.068 272.583 213.694 272.507C212.319 272.354 211.327 272.965 211.251 272.813C211.251 272.736 211.48 272.583 211.861 272.354C212.319 272.124 212.93 272.048 213.694 272.048C214.457 272.124 215.068 272.354 215.449 272.583C215.907 272.889 216.06 273.195 216.06 273.195Z" fill="#747E83"/>
<path d="M213.846 271.512C213.846 271.512 213.846 271.283 213.923 270.824C213.999 270.365 214.228 269.753 214.686 269.141C214.915 268.835 215.144 268.453 215.678 268.223C215.907 268.147 216.289 268.223 216.518 268.453C216.671 268.682 216.747 268.988 216.671 269.294C216.518 270.441 215.449 271.436 214.152 271.436C212.854 271.436 211.785 270.594 211.403 269.523C211.327 269.294 211.251 268.912 211.48 268.682C211.633 268.376 212.014 268.3 212.243 268.376C212.778 268.529 213.083 268.835 213.312 269.141C213.846 269.676 214.152 270.288 214.381 270.671C214.533 271.053 214.61 271.283 214.61 271.283C214.533 271.359 214.228 270.365 213.159 269.294C212.854 269.065 212.549 268.759 212.167 268.682C212.014 268.606 211.785 268.682 211.709 268.835C211.632 268.988 211.632 269.218 211.709 269.37C212.014 270.212 213.007 270.977 214.152 270.977C215.22 270.977 216.213 270.135 216.289 269.217C216.289 268.988 216.289 268.759 216.213 268.606C216.136 268.453 215.907 268.376 215.755 268.453C215.373 268.529 215.144 268.912 214.915 269.217C213.999 270.518 213.923 271.512 213.846 271.512Z" fill="#747E83"/>
<path d="M208.579 132.225L207.51 271.589L227.053 272.813L231.175 156.472L254.611 272.124L272.397 270.288L253.466 132.225H208.579Z" fill="#455A64"/>
<path d="M232.32 19.0973C225.679 18.5619 219.953 23.6102 219.572 30.1883C219.266 35.6955 218.961 41.6617 218.961 44.6448C219.037 51.0699 225.45 52.0642 225.45 52.0642C225.45 52.0642 225.297 53.9764 225.144 56.3476C224.762 61.09 228.427 65.2204 233.236 65.4499C237.893 65.6793 241.862 62.0078 242.091 57.342L243.236 31.3356C243.542 25.0635 238.732 19.6327 232.32 19.0973Z" fill="#FFBF9D"/>
<path d="M225.526 52.0642C225.526 52.0642 229.572 52.3701 233.923 49.693C233.923 49.693 231.938 54.3588 225.526 53.7469V52.0642Z" fill="#AA6550"/>
<path d="M242.702 33.7068C242.778 33.6303 247.129 32.4065 246.977 36.8429C246.824 41.2792 242.473 40.2084 242.473 40.0554C242.396 39.9024 242.702 33.7068 242.702 33.7068Z" fill="#FFBF9D"/>
<path d="M243.847 38.4491C243.847 38.4491 243.923 38.5256 244.076 38.6021C244.229 38.6786 244.381 38.6786 244.687 38.6021C245.145 38.4491 245.603 37.6842 245.603 36.9193C245.603 36.5369 245.526 36.1544 245.45 35.8485C245.297 35.5425 245.145 35.313 244.916 35.2365C244.687 35.1601 244.534 35.313 244.458 35.466C244.381 35.619 244.458 35.6955 244.381 35.6955C244.381 35.6955 244.305 35.619 244.305 35.466C244.305 35.3895 244.381 35.313 244.458 35.1601C244.534 35.0836 244.687 35.0071 244.916 35.0836C245.221 35.0836 245.526 35.466 245.679 35.772C245.832 36.1544 245.908 36.5369 245.908 36.9958C245.832 37.9137 245.374 38.6786 244.763 38.8315C244.458 38.908 244.229 38.8315 244.076 38.6786C243.847 38.5256 243.847 38.4491 243.847 38.4491Z" fill="#AA6550"/>
<path d="M221.251 34.3187C221.251 34.7776 221.633 35.2365 222.167 35.2365C222.701 35.2365 223.083 34.9306 223.083 34.3952C223.083 33.9362 222.701 33.4773 222.167 33.4773C221.709 33.4773 221.251 33.8597 221.251 34.3187Z" fill="#575757"/>
<path d="M221.251 32.5594C221.327 32.7124 222.091 32.177 223.083 32.177C224.075 32.177 224.762 32.7124 224.915 32.5594C224.991 32.4829 224.839 32.2535 224.533 32.024C224.228 31.7945 223.694 31.5651 223.083 31.5651C222.472 31.5651 221.938 31.7945 221.633 32.024C221.327 32.2535 221.175 32.4829 221.251 32.5594Z" fill="#575757"/>
<path d="M230.946 34.3187C230.946 34.7776 231.327 35.2365 231.862 35.2365C232.396 35.2365 232.778 34.9306 232.778 34.3952C232.778 33.9362 232.396 33.4773 231.862 33.4773C231.404 33.4773 230.946 33.8597 230.946 34.3187Z" fill="#575757"/>
<path d="M231.022 32.7124C231.098 32.8654 231.862 32.3299 232.854 32.3299C233.846 32.3299 234.533 32.8654 234.686 32.7124C234.763 32.6359 234.61 32.4064 234.304 32.177C233.999 31.9475 233.465 31.718 232.854 31.718C232.243 31.718 231.709 31.9475 231.404 32.177C231.022 32.4829 230.946 32.6359 231.022 32.7124Z" fill="#575757"/>
<path d="M227.434 40.0554C227.434 39.9789 226.824 39.9024 225.831 39.7494C225.602 39.7494 225.373 39.6729 225.297 39.5199C225.221 39.367 225.373 39.061 225.45 38.7551C225.679 38.1431 225.908 37.5312 226.213 36.8428C227.282 34.0892 227.969 31.871 227.892 31.7945C227.816 31.718 226.824 33.9362 225.831 36.6898C225.602 37.3782 225.373 37.9902 225.144 38.6021C225.068 38.908 224.915 39.214 224.992 39.5964C225.068 39.7494 225.221 39.9024 225.373 39.9789C225.526 40.0554 225.679 40.0554 225.831 40.0554C226.747 40.1319 227.358 40.1319 227.434 40.0554Z" fill="#575757"/>
<path d="M230.335 40.7438C230.182 40.7438 230.182 41.8146 229.266 42.5795C228.35 43.3444 227.205 43.1914 227.205 43.3444C227.205 43.4209 227.434 43.5739 227.969 43.5739C228.427 43.5739 229.114 43.4209 229.724 42.962C230.259 42.503 230.564 41.8911 230.564 41.4322C230.488 41.0497 230.411 40.7438 230.335 40.7438Z" fill="#575757"/>
<path d="M230.717 28.8114C230.793 29.1174 231.786 28.9644 232.931 29.1174C234.076 29.2704 235.068 29.5763 235.221 29.3469C235.297 29.1939 235.144 28.9644 234.763 28.735C234.381 28.5055 233.77 28.1995 233.083 28.123C232.396 28.0466 231.786 28.123 231.327 28.3525C230.869 28.5055 230.717 28.735 230.717 28.8114Z" fill="#575757"/>
<path d="M221.633 29.6528C221.785 29.8823 222.472 29.6528 223.312 29.6528C224.152 29.5763 224.839 29.8058 224.992 29.5763C225.068 29.4998 224.915 29.2704 224.686 29.0409C224.381 28.8114 223.923 28.6584 223.312 28.6584C222.778 28.6584 222.243 28.8879 221.938 29.1174C221.633 29.3469 221.556 29.5763 221.633 29.6528Z" fill="#575757"/>
<path d="M243.16 33.4773C243.236 34.1657 243.16 34.9306 243.084 35.619C242.931 36.3074 242.549 36.9193 241.939 37.2253C240.87 37.7607 239.419 36.9193 238.961 35.772C238.503 34.6247 238.58 33.3243 238.732 32.1005C238.885 30.4177 238.961 28.735 238.656 27.0522C238.351 25.3694 237.587 23.7632 236.213 22.6923C234.915 21.6215 233.007 21.239 231.48 22.0039C230.564 22.4628 229.877 23.3042 228.961 23.8397C228.198 24.3751 227.205 24.681 226.289 24.5281C225.373 24.3751 224.534 23.7632 224.228 22.8453C223.923 21.8509 224.457 20.7801 225.297 20.1682C226.06 19.5563 227.129 19.2503 228.121 19.0208C230.87 18.4854 233.847 18.6384 236.442 19.7092C239.038 20.7801 241.404 22.7688 242.473 25.3694C243.771 28.3525 243.618 30.2648 243.236 33.4773" fill="#575757"/>
<path d="M153.539 67.2856L162.929 69.1979L175.83 77.4587L171.402 85.8726C171.402 85.8726 166.898 84.5722 165.524 83.4249C164.227 82.2776 162.7 82.1246 162.7 82.1246C162.7 82.1246 162.776 84.1898 161.249 83.8073C159.646 83.4249 157.051 82.966 157.509 80.7478C157.509 80.7478 156.364 80.4418 156.44 78.912C156.44 78.912 155.142 78.8355 155.524 76.6938C155.906 74.5521 157.433 71.7985 161.707 72.5634C161.936 72.6399 162.242 72.181 161.86 72.028L155.219 70.4982C155.219 70.4217 151.02 68.7389 153.539 67.2856Z" fill="#FFBF9D"/>
<path d="M158.196 76.5409C158.196 76.4644 158.807 76.6173 159.799 76.9233C160.257 77.0763 160.868 77.2293 161.478 77.4587C161.784 77.6117 162.089 77.9177 162.242 78.3001C162.394 78.759 162.165 79.218 161.784 79.4475C161.02 79.9829 160.181 79.8299 159.57 79.7534C158.883 79.6769 158.349 79.5239 157.814 79.371C156.822 79.065 156.287 78.8355 156.287 78.759C156.287 78.6826 156.898 78.912 157.891 79.065C158.349 79.1415 158.959 79.218 159.57 79.2945C159.875 79.2945 160.257 79.371 160.562 79.371C160.868 79.371 161.249 79.2945 161.478 79.065C161.707 78.8355 161.86 78.5296 161.784 78.3001C161.707 77.9942 161.478 77.7647 161.249 77.6882C160.715 77.3822 160.104 77.2293 159.646 77.0763C158.73 76.8468 158.12 76.6173 158.196 76.5409Z" fill="#AA6550"/>
<path d="M160.486 75.3171C160.486 75.3935 159.875 75.47 159.341 75.776C158.807 76.082 158.501 76.6174 158.425 76.6174C158.349 76.6174 158.425 75.929 159.112 75.47C159.799 75.0111 160.486 75.2406 160.486 75.3171Z" fill="#AA6550"/>
<path d="M161.478 79.4475C161.478 79.4475 161.555 79.4475 161.707 79.6005C161.86 79.7535 161.86 79.9829 161.936 80.2124C162.013 80.5184 161.936 80.9008 161.631 81.2068C161.326 81.5892 160.791 81.6657 160.41 81.5892C159.57 81.4362 158.883 81.3597 158.349 81.2068C157.814 81.0538 157.509 80.8243 157.585 80.8243C157.585 80.7478 157.891 80.8243 158.425 80.9773C158.959 81.0538 159.646 81.1303 160.486 81.2833C160.868 81.3597 161.173 81.2833 161.402 81.0538C161.631 80.8243 161.707 80.5184 161.631 80.2889C161.631 79.9829 161.631 79.83 161.555 79.677C161.478 79.524 161.402 79.4475 161.478 79.4475Z" fill="#AA6550"/>
<path d="M161.402 81.2067C161.402 81.1302 161.555 81.0537 161.86 81.1302C162.165 81.2067 162.471 81.4361 162.7 81.8186C163.005 82.2775 162.853 82.66 162.776 82.8894C162.7 83.1189 162.547 83.2719 162.547 83.2719C162.471 83.2719 162.547 83.1189 162.547 82.813C162.547 82.5835 162.547 82.201 162.395 81.9716C162.165 81.6656 161.936 81.4361 161.784 81.3597C161.555 81.2832 161.402 81.2067 161.402 81.2067Z" fill="#AA6550"/>
<path d="M168.578 76.3114L164.074 76.1584L159.341 77.0763C159.341 77.0763 158.959 77.9177 161.173 78.5296C163.387 79.1415 165.448 78.7591 165.448 78.7591C165.448 78.7591 167.433 81.5892 169.952 82.2776" fill="#FFBF9D"/>
<path d="M169.876 82.2776C169.876 82.2776 169.723 82.2775 169.418 82.2011C169.189 82.1246 168.731 81.9716 168.349 81.7421C167.433 81.2067 166.288 80.2888 165.219 78.8355L165.372 78.912C163.845 79.1415 162.013 79.1415 160.181 78.4531C159.952 78.3001 159.646 78.2236 159.417 77.9941C159.188 77.7647 158.959 77.4587 159.112 77.0763V76.9998H159.188C160.944 76.6938 162.547 76.3879 163.921 76.0819C165.295 76.1584 166.44 76.2349 167.204 76.3114C167.967 76.3879 168.425 76.3879 168.425 76.4644C168.425 76.4644 167.967 76.5408 167.204 76.5408C166.44 76.5408 165.295 76.5408 163.921 76.4644C162.547 76.7703 160.944 77.0763 159.188 77.4587L159.341 77.3822C159.265 77.4587 159.417 77.7647 159.57 77.8412C159.723 77.9941 159.952 78.1471 160.181 78.2236C161.86 78.912 163.692 78.912 165.143 78.759H165.219L165.295 78.8355C166.288 80.2123 167.433 81.2067 168.272 81.7421C169.341 82.0481 169.876 82.2011 169.876 82.2776Z" fill="#AA6550"/>
<path d="M163.082 73.6342C163.005 73.7107 162.624 73.5577 162.242 73.0223C161.936 72.5634 161.86 72.1044 161.936 72.028C162.013 72.028 162.242 72.3339 162.547 72.7928C162.853 73.2518 163.158 73.5577 163.082 73.6342Z" fill="#AA6550"/>
<path d="M212.777 133.296C220.564 136.661 229.724 137.656 239.954 136.585L247.511 59.6367L242.168 55.5062L229.877 64.6849L225.679 55.8122L215.755 70.0392L212.777 133.296Z" fill="#F5F5F5"/>
<path d="M225.755 137.044C225.755 137.044 225.755 136.967 225.678 136.891C225.678 136.738 225.602 136.585 225.602 136.356C225.526 135.82 225.449 135.132 225.297 134.29C225.22 133.372 225.144 132.225 225.068 130.925C224.991 129.624 224.991 128.171 224.991 126.488C224.915 119.91 225.373 110.885 226.136 100.864C226.9 90.8444 227.74 81.8186 228.503 75.317C228.885 72.028 229.19 69.4274 229.419 67.5916C229.572 66.6738 229.648 65.9853 229.724 65.5264C229.724 65.2969 229.801 65.144 229.801 64.991C229.801 64.838 229.877 64.838 229.877 64.838C229.877 64.838 229.877 64.9145 229.877 64.991C229.877 65.144 229.877 65.2969 229.801 65.5264C229.724 66.0618 229.648 66.7502 229.572 67.5916C229.343 69.4274 229.114 72.1045 228.732 75.317C228.045 81.8186 227.205 90.8444 226.518 100.864C225.755 110.808 225.297 119.91 225.297 126.488C225.297 128.095 225.297 129.624 225.373 130.925C225.449 132.225 225.449 133.296 225.526 134.29C225.602 135.208 225.678 135.897 225.755 136.356C225.755 136.585 225.755 136.738 225.831 136.891C225.755 136.967 225.755 137.044 225.755 137.044Z" fill="#747E83"/>
<path d="M236.137 148.364C236.137 148.364 230.411 88.2437 233.923 81.5127C236.671 76.3114 240.946 65.4499 242.702 60.784C243.236 59.4072 243.16 57.8774 242.625 56.5006L242.167 55.5828L247.511 59.7132L258.504 65.6029L251.862 116.545L259.343 142.398L236.137 148.364Z" fill="#F8C365"/>
<g opacity="0.3">
<path d="M234.61 130.925C239.267 129.93 237.282 132.684 242.015 131.996C244.534 131.613 244.687 130.16 246.824 128.63C248.885 127.1 252.091 125.876 254.687 125.953L253.618 122.358L234.076 123.123L234.61 130.925Z" fill="black"/>
</g>
<path d="M207.739 68.5094L209.648 116.545L205.831 143.392L215.449 146.987L219.648 72.7163C219.724 69.9627 220.335 67.2091 221.48 64.6849L225.22 56.4241L212.472 60.784L207.739 68.5094Z" fill="#F8C365"/>
<path d="M258.504 65.6029C258.504 65.6029 264.534 70.8042 265.909 77.8412C266.901 82.966 269.802 100.941 270.641 110.12C271.176 115.856 267.13 120.981 261.481 121.823C261.405 121.823 261.328 121.823 261.252 121.823C252.549 123.046 237.893 121.364 237.893 121.364L240.412 110.196C240.412 110.196 253.389 108.284 255.679 106.754L252.626 86.0256C252.549 86.102 255.069 66.2148 258.504 65.6029Z" fill="#F8C365"/>
<path d="M176.67 75.7759L197.892 89.238C197.892 89.238 205.525 66.7501 210.411 61.4724L216.289 59.4836L210.869 102.624C210.487 105.071 209.037 107.213 206.976 108.59C203.77 110.655 199.647 110.426 196.746 108.054L170.792 86.9433L176.67 75.7759Z" fill="#F8C365"/>
<path d="M259.496 113.791C259.42 113.791 259.496 113.332 259.344 112.567C259.267 111.802 258.962 110.808 258.427 109.737C257.817 108.743 257.13 107.978 256.519 107.519C255.908 107.06 255.45 106.831 255.527 106.754C255.527 106.678 256.061 106.831 256.672 107.29C257.359 107.748 258.198 108.513 258.809 109.584C259.42 110.655 259.649 111.802 259.649 112.567C259.649 113.332 259.496 113.791 259.496 113.791Z" fill="#747E83"/>
<path d="M257.206 115.321C257.053 115.321 257.664 113.256 257.13 110.808C256.672 108.36 255.374 106.678 255.45 106.601C255.45 106.601 255.832 106.907 256.29 107.672C256.748 108.36 257.206 109.431 257.511 110.732C257.74 112.032 257.74 113.179 257.588 114.021C257.435 114.785 257.282 115.321 257.206 115.321Z" fill="#747E83"/>
<path d="M257.053 67.6681C257.13 67.7446 255.985 68.3565 254.763 69.9628C253.542 71.569 252.32 74.1697 251.939 77.2293C251.557 80.2888 251.939 83.1189 252.244 85.1077C252.397 86.0255 252.473 86.8669 252.626 87.4788C252.702 88.0142 252.778 88.3967 252.702 88.3967C252.702 88.3967 252.626 88.0907 252.473 87.5553C252.32 87.0199 252.168 86.1785 252.015 85.1841C251.633 83.1954 251.252 80.3653 251.633 77.1528C252.015 74.0167 253.313 71.3396 254.61 69.8098C255.298 69.0449 255.908 68.433 256.366 68.127C256.748 67.8211 257.053 67.6681 257.053 67.6681Z" fill="#747E83"/>
<g opacity="0.3">
<path d="M255.756 106.601C256.748 107.748 257.206 109.355 257.282 110.884C257.359 112.414 257.053 113.944 256.519 115.474C256.443 115.78 256.366 116.086 256.519 116.315C256.748 116.621 257.206 116.621 257.511 116.315C257.817 116.086 257.893 115.703 257.969 115.321C257.817 115.55 258.046 115.856 258.351 115.856C258.656 115.856 258.809 115.627 258.962 115.397C259.802 114.097 259.725 112.338 259.114 110.884C258.504 109.431 257.435 108.207 256.366 107.06" fill="black"/>
</g>
<path d="M202.243 97.7283C202.166 97.8048 200.869 96.0456 199.647 93.7509C198.426 91.3797 197.815 89.3145 197.892 89.3145C197.968 89.238 198.808 91.2267 199.953 93.5979C201.174 95.8161 202.319 97.6519 202.243 97.7283Z" fill="#747E83"/>
<path d="M199.266 99.3346C199.189 99.3346 199.037 98.7992 198.731 97.8814C198.426 96.9635 198.121 95.7397 197.892 94.2864C197.662 92.8331 197.51 91.5327 197.433 90.6149C197.357 89.697 197.357 89.0851 197.433 89.0851C197.586 89.0851 197.815 91.3798 198.35 94.2099C198.808 97.04 199.342 99.2582 199.266 99.3346Z" fill="#747E83"/>
<path d="M209.648 74.5521C209.724 74.5521 209.877 83.9603 209.877 95.5102C209.877 107.137 209.8 116.468 209.648 116.468C209.495 116.468 209.419 107.06 209.419 95.5102C209.419 83.9603 209.571 74.5521 209.648 74.5521Z" fill="#747E83"/>
<path d="M222.549 57.342C222.549 57.342 222.472 57.495 222.32 57.7245C222.091 58.0304 221.862 58.3364 221.556 58.7953C220.946 59.7132 219.953 61.0135 218.961 62.7728C217.968 64.532 216.823 66.6737 216.213 69.2744C215.984 70.5747 215.831 71.9515 215.602 73.4048C214.991 74.9346 216.442 75.929 217.663 76.7703L217.968 76.9998L217.663 77.1528C217.281 77.3058 216.823 77.6117 216.442 77.9177C215.907 78.3766 215.373 78.8355 214.915 79.218L214.991 79.065C215.22 82.1246 215.755 84.9547 216.06 87.5553C216.442 90.156 216.747 92.4506 217.052 94.4394C217.281 96.3516 217.51 97.8814 217.663 99.0287C217.739 99.5642 217.739 99.9466 217.816 100.253C217.816 100.559 217.892 100.711 217.816 100.711C217.816 100.711 217.739 100.559 217.739 100.253C217.663 99.9466 217.587 99.4877 217.51 99.0287C217.358 97.8814 217.052 96.3516 216.747 94.4394C216.442 92.4506 216.06 90.156 215.678 87.5553C215.297 84.9547 214.762 82.1246 214.533 78.9885V78.912L214.61 78.8355C215.068 78.3766 215.602 77.9177 216.213 77.4587C216.671 77.1528 217.052 76.8468 217.587 76.6174V76.9998C216.9 76.5409 216.289 76.0819 215.755 75.47C215.526 75.1641 215.22 74.7816 215.22 74.3992C215.22 74.3227 215.22 74.1697 215.22 74.0932L215.297 73.7872L215.373 73.2518C215.602 71.7985 215.755 70.4217 215.984 69.0449C216.289 67.7446 216.747 66.5208 217.281 65.4499C217.816 64.3791 218.35 63.3847 218.808 62.5433C219.877 60.7841 220.793 59.4837 221.48 58.5659C221.862 58.1069 222.091 57.801 222.32 57.5715C222.472 57.495 222.549 57.342 222.549 57.342Z" fill="#747E83"/>
<path d="M246.061 58.7953C246.061 58.7953 246.137 58.8718 246.137 59.1012C246.213 59.3307 246.29 59.6367 246.29 60.0191C246.442 60.8605 246.442 62.0843 246.29 63.5376C246.137 65.0674 245.679 66.7502 245.145 68.6624C244.61 70.5746 243.923 72.6399 242.931 74.7051C242.091 76.6173 241.175 78.3001 240.412 79.9063L240.335 79.9828H240.259C239.648 80.1358 239.038 80.2123 238.427 80.3653L238.503 80.0593C238.885 80.5183 239.343 81.0537 239.725 81.4361L239.801 81.5126L239.725 81.5891C238.656 83.3484 237.74 84.8017 237.053 85.8725C236.748 86.3315 236.518 86.7139 236.289 87.0199C236.137 87.2493 235.984 87.4023 235.984 87.4023C235.984 87.4023 236.06 87.2493 236.213 86.9434C236.366 86.6374 236.595 86.1785 236.9 85.7195C237.511 84.6487 238.427 83.1189 239.419 81.3596V81.5126C239.038 81.0537 238.656 80.5948 238.198 80.1358L237.969 79.9063L238.274 79.8299C238.885 79.6769 239.496 79.6004 240.106 79.4474L239.954 79.5239C240.717 77.9176 241.633 76.1584 242.473 74.3226C243.389 72.2574 244.152 70.1922 244.687 68.3565C245.221 66.4442 245.679 64.7615 245.908 63.3082C246.137 61.8549 246.137 60.631 246.061 59.7896C246.137 59.2542 246.061 58.7953 246.061 58.7953Z" fill="#747E83"/>
<g opacity="0.3">
<path d="M201.327 97.3459C200.411 94.6688 199.037 91.9151 197.891 89.238L196.899 88.6261C196.136 90.9973 196.441 93.6744 197.281 96.0456C197.357 96.275 197.433 96.5045 197.662 96.581C197.968 96.6575 198.273 96.428 198.273 96.1221C198.35 95.8161 198.197 95.5101 198.12 95.2807C198.731 96.428 199.495 97.4224 200.258 98.4167C200.411 98.5697 200.487 98.7227 200.716 98.7992C201.021 98.8757 201.327 98.5697 201.403 98.2638C201.556 97.9578 201.403 97.6518 201.327 97.3459Z" fill="black"/>
</g>
<g opacity="0.3">
<path d="M217.358 99.6406C215.526 94.4393 213.693 89.238 212.93 83.7308C212.777 82.507 212.701 81.2831 213.006 80.1358C213.312 78.9885 214.152 77.8411 215.297 77.4587C214.61 76.7703 214.61 75.5464 215.297 74.858C216.06 75.6229 216.823 76.4643 217.51 77.2292C216.365 77.2292 215.373 78.2236 215.068 79.2944C214.762 80.4418 214.915 81.5891 215.068 82.7364C215.831 88.3966 216.594 94.1333 217.358 99.7936" fill="black"/>
</g>
<g opacity="0.3">
<path d="M241.709 81.4361C242.854 77.5352 243.923 73.6342 245.068 69.7333C244.152 71.9515 243.236 74.1697 242.244 76.3879C241.862 77.3057 241.48 78.3001 240.793 79.065C240.106 79.8299 239.114 80.3653 238.122 80.2123C238.732 80.5948 239.267 80.9772 239.877 81.4361C238.656 83.4249 237.434 85.6431 236.137 87.6318L238.809 87.8612C239.801 86.255 240.717 84.8017 241.709 83.1954C241.404 82.66 241.099 82.1245 240.793 81.5891C241.175 81.5126 241.404 81.5126 241.709 81.4361Z" fill="black"/>
</g>
<path d="M225.221 56.4241L225.373 54.5884L228.808 59.4837L229.877 64.7615L232.702 59.4837L242.397 53.8235V58.7953L240.564 63.6141L236.977 66.3677L232.778 68.2035L227.892 67.2856L224.915 65.6028L224.228 62.0843L225.221 56.4241Z" fill="#F5F5F5"/>
<path d="M228.579 59.4071C228.656 59.4071 228.35 60.0956 228.045 61.1664C227.74 62.2373 227.358 63.8435 227.434 65.6028V66.3677L227.053 65.7558C226.976 65.6028 226.9 65.5263 226.824 65.3733C225.831 63.6906 225.373 62.0843 224.915 60.9369C224.457 59.7896 224.075 59.1777 224.075 59.1012C224.075 59.1012 224.61 59.6366 225.144 60.784C225.679 61.8548 226.213 63.5376 227.129 65.1438C227.205 65.2968 227.282 65.3733 227.358 65.5263L226.976 65.6793C226.9 63.8435 227.358 62.2373 227.663 61.1664C228.121 60.0191 228.503 59.4071 228.579 59.4071Z" fill="#747E83"/>
<path d="M242.397 57.036C242.397 57.036 242.397 57.1125 242.397 57.2655C242.397 57.4185 242.397 57.5714 242.32 57.8774C242.244 58.3363 241.862 59.0247 241.251 59.7131C240.641 60.4015 239.801 61.0899 238.885 61.7019C237.893 62.3138 236.9 63.0787 235.831 63.9201C234.915 64.6849 233.999 65.3733 233.083 65.9088L232.702 66.1382L232.778 65.7558C232.931 64.9144 232.854 63.9965 232.854 63.2316C232.778 62.4668 232.778 61.7783 232.702 61.2429C232.625 60.0956 232.549 59.4837 232.549 59.4837C232.625 59.4837 232.778 60.0956 232.931 61.2429C233.007 61.7783 233.083 62.4668 233.16 63.2316C233.236 63.9965 233.312 64.8379 233.16 65.8323L232.854 65.6028C233.694 65.0674 234.61 64.3025 235.526 63.6141C236.595 62.7727 237.587 62.0078 238.58 61.3959C239.572 60.784 240.335 60.0956 240.946 59.4837C241.557 58.8718 241.862 58.2598 242.015 57.8009C242.397 57.342 242.397 57.036 242.397 57.036Z" fill="#747E83"/>
<path d="M254.229 122.281C254.229 122.281 254.153 122.281 253.923 122.358C253.694 122.358 253.389 122.358 253.007 122.434C252.244 122.511 251.023 122.511 249.572 122.511C248.122 122.511 246.366 122.511 244.381 122.511C243.389 122.511 242.32 122.511 241.175 122.434C240.641 122.434 240.03 122.358 239.496 122.358C239.19 122.358 238.885 122.281 238.58 122.281L238.122 122.205C238.045 122.205 237.969 122.205 237.893 122.205C237.816 122.205 237.816 122.205 237.74 122.205H237.664C237.664 122.205 237.511 122.128 237.511 122.052V121.976C238.198 118.992 238.885 115.627 239.648 112.185C239.801 111.496 239.954 110.885 240.106 110.273V110.12H240.259C246.213 109.278 251.633 108.36 255.527 106.754L255.45 106.907C255.069 104.23 254.763 102.012 254.534 100.482C254.458 99.7171 254.382 99.1817 254.305 98.7228C254.229 98.3403 254.229 98.1108 254.229 98.1108C254.229 98.1108 254.305 98.3403 254.382 98.7228C254.458 99.1817 254.534 99.7171 254.687 100.482C254.916 102.012 255.298 104.23 255.679 106.907V106.984L255.603 107.06C251.71 108.743 246.29 109.661 240.259 110.579L240.412 110.426C240.259 111.038 240.106 111.726 239.954 112.338C239.19 115.78 238.427 119.145 237.74 122.128L237.587 122.052C242.396 122.281 246.519 122.358 249.42 122.358C250.87 122.358 252.015 122.358 252.855 122.358C253.236 122.358 253.542 122.358 253.771 122.358C254.076 122.281 254.229 122.281 254.229 122.281Z" fill="#747E83"/>
<path d="M256.672 92.4506L250.03 108.513L240.335 110.273L237.74 121.975L244.152 122.358L244.076 122.817L218.885 123.505L229.572 92.4506H256.672Z" fill="#725E3B"/>
<path d="M225.984 87.1729L229.572 92.4506L218.885 123.505L215.449 117.539L225.984 87.1729Z" fill="#725E3B"/>
<path d="M256.672 92.4506L252.779 88.7026L225.984 87.1729L229.572 92.4506H256.672Z" fill="#EBEBEB"/>
<path d="M229.572 92.4506C229.648 92.4506 227.358 99.4876 224.457 108.054C221.48 116.621 219.037 123.505 218.961 123.505C218.885 123.505 221.175 116.468 224.075 107.901C226.976 99.3346 229.419 92.4506 229.572 92.4506Z" fill="#747E83"/>
<path d="M239.954 111.114L235.373 110.732C235.373 110.732 233.618 107.748 232.396 106.754C231.251 105.683 225.144 102.777 225.144 102.777C225.144 102.777 224.228 103.847 225.144 104.918C225.526 105.377 228.427 106.984 228.427 106.984C228.732 108.131 227.74 109.278 226.518 109.049C224.763 108.743 222.701 108.36 222.396 108.36C222.091 108.36 220.335 106.678 219.037 105.377C218.274 104.612 216.9 105.377 217.205 106.372C217.205 106.448 217.281 106.601 217.358 106.601C217.358 106.601 215.449 106.525 217.129 109.049C217.129 109.049 216.747 111.343 218.121 112.414C218.121 112.414 218.732 115.244 219.572 116.162C220.488 117.157 229.037 118.992 229.037 118.992L238.045 119.834L239.954 111.114Z" fill="#FFBF9D"/>
<path d="M225.755 111.802C225.755 111.879 225.144 111.879 224.228 111.802C223.312 111.726 221.938 111.573 220.64 110.884C219.343 110.12 218.579 108.896 218.121 108.131C217.663 107.289 217.434 106.754 217.434 106.754C217.51 106.754 217.816 107.213 218.35 107.978C218.885 108.743 219.648 109.814 220.869 110.578C222.091 111.267 223.388 111.496 224.304 111.573C225.144 111.649 225.755 111.726 225.755 111.802Z" fill="#AA6550"/>
<path d="M224.839 113.791C224.839 113.868 224.305 113.944 223.465 113.868C223.007 113.868 222.549 113.791 221.938 113.638C221.404 113.485 220.717 113.332 220.182 112.95C219.648 112.491 219.19 112.032 218.885 111.573C218.579 111.19 218.274 110.808 217.968 110.426C217.434 109.737 217.129 109.278 217.205 109.278C217.281 109.278 217.663 109.584 218.197 110.273C218.503 110.579 218.808 110.961 219.19 111.42C219.572 111.879 219.953 112.338 220.488 112.72C220.946 113.103 221.556 113.256 222.091 113.409C222.625 113.562 223.159 113.638 223.541 113.715C224.304 113.715 224.839 113.715 224.839 113.791Z" fill="#AA6550"/>
<path d="M223.617 116.009C223.617 116.162 222.014 115.856 220.259 115.321C219.953 115.244 219.801 115.091 219.572 114.938C219.419 114.785 219.266 114.632 219.114 114.479C218.808 114.174 218.579 113.868 218.427 113.562C218.121 113.026 217.969 112.644 218.045 112.567C218.121 112.567 218.274 112.873 218.656 113.332C218.808 113.562 219.114 113.868 219.343 114.174C219.495 114.327 219.648 114.479 219.801 114.632C219.953 114.785 220.106 114.938 220.335 114.938C221.251 115.168 222.091 115.474 222.701 115.627C223.312 115.856 223.617 115.933 223.617 116.009Z" fill="#AA6550"/>
</g>
<defs>
<clipPath id="clip0_253_8306">
<rect width="352" height="294" fill="white"/>
</clipPath>
</defs>
</svg>
