<svg width="59" height="52" viewBox="0 0 59 52" fill="none" xmlns="http://www.w3.org/2000/svg">
<path d="M40.4736 17.8361L33.7539 24.5557L40.4736 31.2754L41.603 30.1459L36.8113 25.3543L57.6746 25.3543L57.6746 23.7571L36.8115 23.7571L41.603 18.9656L40.4736 17.8361Z" fill="#F8C365"/>
<circle cx="25.5566" cy="25.9008" r="22.1934" transform="rotate(-180 25.5566 25.9008)" fill="#F8C365" fill-opacity="0.2"/>
<mask id="path-3-inside-1_156_1204" fill="white">
<path d="M49.5242 17.0299C47.4005 11.2923 43.289 6.507 37.9367 3.54343C32.5844 0.579851 26.3466 -0.365305 20.3566 0.879701C14.3666 2.12471 9.02206 5.47725 5.29401 10.3282C1.56596 15.1791 -0.298169 21.2064 0.0403463 27.315C0.378866 33.4237 2.89757 39.2081 7.13879 43.6174C11.38 48.0267 17.0623 50.7682 23.1531 51.3437C29.244 51.9192 35.3392 50.2906 40.3313 46.7538C45.3233 43.217 48.8809 38.0066 50.3576 32.0696L49.6253 31.8874C48.1922 37.6491 44.7396 42.7056 39.895 46.138C35.0503 49.5704 29.1351 51.1509 23.2241 50.5924C17.3132 50.0338 11.7987 47.3733 7.6827 43.0942C3.56673 38.8152 1.12241 33.2015 0.793886 27.2733C0.465365 21.3451 2.27444 15.4957 5.8924 10.788C9.51036 6.08038 14.6971 2.82684 20.5102 1.6186C26.3233 0.410364 32.3769 1.32761 37.5711 4.20367C42.7653 7.07973 46.7555 11.7237 48.8164 17.2919L49.5242 17.0299Z"/>
</mask>
<path d="M49.5242 17.0299C47.4005 11.2923 43.289 6.507 37.9367 3.54343C32.5844 0.579851 26.3466 -0.365305 20.3566 0.879701C14.3666 2.12471 9.02206 5.47725 5.29401 10.3282C1.56596 15.1791 -0.298169 21.2064 0.0403463 27.315C0.378866 33.4237 2.89757 39.2081 7.13879 43.6174C11.38 48.0267 17.0623 50.7682 23.1531 51.3437C29.244 51.9192 35.3392 50.2906 40.3313 46.7538C45.3233 43.217 48.8809 38.0066 50.3576 32.0696L49.6253 31.8874C48.1922 37.6491 44.7396 42.7056 39.895 46.138C35.0503 49.5704 29.1351 51.1509 23.2241 50.5924C17.3132 50.0338 11.7987 47.3733 7.6827 43.0942C3.56673 38.8152 1.12241 33.2015 0.793886 27.2733C0.465365 21.3451 2.27444 15.4957 5.8924 10.788C9.51036 6.08038 14.6971 2.82684 20.5102 1.6186C26.3233 0.410364 32.3769 1.32761 37.5711 4.20367C42.7653 7.07973 46.7555 11.7237 48.8164 17.2919L49.5242 17.0299Z" fill="#F8C365" stroke="#F8C365" stroke-width="6" mask="url(#path-3-inside-1_156_1204)"/>
</svg>
