<svg width="59" height="52" viewBox="0 0 59 52" fill="none" xmlns="http://www.w3.org/2000/svg">
<path d="M18.5264 33.6209L25.2461 26.9013L18.5264 20.1816L17.397 21.3111L22.1887 26.1027L1.32544 26.1027L1.32544 27.7L22.1885 27.7L17.397 32.4915L18.5264 33.6209Z" fill="#F8C365"/>
<circle cx="33.4434" cy="25.5557" r="22.1934" fill="#F8C365" fill-opacity="0.2"/>
<mask id="path-3-inside-1_156_1199" fill="white">
<path d="M9.4758 34.4271C11.5995 40.1647 15.711 44.95 21.0633 47.9136C26.4156 50.8772 32.6534 51.8223 38.6434 50.5773C44.6334 49.3323 49.9779 45.9798 53.706 41.1289C57.434 36.278 59.2982 30.2506 58.9597 24.142C58.6211 18.0334 56.1024 12.2489 51.8612 7.83961C47.62 3.43033 41.9377 0.688857 35.8469 0.113329C29.756 -0.462198 23.6608 1.16641 18.6687 4.70324C13.6767 8.24006 10.1191 13.4504 8.64236 19.3875L9.37474 19.5696C10.8078 13.8079 14.2604 8.75142 19.105 5.31904C23.9497 1.88667 29.8649 0.306147 35.7759 0.864679C41.6868 1.42321 47.2013 4.08373 51.3173 8.36279C55.4333 12.6419 57.8776 18.2555 58.2061 24.1837C58.5346 30.112 56.7256 35.9613 53.1076 40.669C49.4896 45.3766 44.3029 48.6302 38.4898 49.8384C32.6768 51.0467 26.6231 50.1294 21.4289 47.2534C16.2347 44.3773 12.2446 39.7333 10.1836 34.1652L9.4758 34.4271Z"/>
</mask>
<path d="M9.4758 34.4271C11.5995 40.1647 15.711 44.95 21.0633 47.9136C26.4156 50.8772 32.6534 51.8223 38.6434 50.5773C44.6334 49.3323 49.9779 45.9798 53.706 41.1289C57.434 36.278 59.2982 30.2506 58.9597 24.142C58.6211 18.0334 56.1024 12.2489 51.8612 7.83961C47.62 3.43033 41.9377 0.688857 35.8469 0.113329C29.756 -0.462198 23.6608 1.16641 18.6687 4.70324C13.6767 8.24006 10.1191 13.4504 8.64236 19.3875L9.37474 19.5696C10.8078 13.8079 14.2604 8.75142 19.105 5.31904C23.9497 1.88667 29.8649 0.306147 35.7759 0.864679C41.6868 1.42321 47.2013 4.08373 51.3173 8.36279C55.4333 12.6419 57.8776 18.2555 58.2061 24.1837C58.5346 30.112 56.7256 35.9613 53.1076 40.669C49.4896 45.3766 44.3029 48.6302 38.4898 49.8384C32.6768 51.0467 26.6231 50.1294 21.4289 47.2534C16.2347 44.3773 12.2446 39.7333 10.1836 34.1652L9.4758 34.4271Z" fill="#F8C365" stroke="#F8C365" stroke-width="6" mask="url(#path-3-inside-1_156_1199)"/>
</svg>
