<svg width="100" height="100" viewBox="0 0 100 100" fill="none" xmlns="http://www.w3.org/2000/svg">
<g clip-path="url(#clip0_68_1168)">
<path d="M0.335988 0.335579C-0.134766 0.806328 -0.134766 1.11232 -0.134766 50C-0.134766 98.8878 -0.134766 99.1937 0.335988 99.6645C0.806741 100.135 1.11273 100.135 50.0005 100.135C98.8882 100.135 99.1942 100.135 99.6649 99.6645C100.136 99.1937 100.136 98.8878 100.136 50C100.136 1.11232 100.136 0.806328 99.6649 0.335579C99.1942 -0.135178 98.8882 -0.135178 50.0005 -0.135178C1.11273 -0.135178 0.806741 -0.135178 0.335988 0.335579ZM96.9581 50V96.9577H50.0005H3.04282L2.97221 50.2354C2.94867 24.5323 2.97221 3.37193 3.04282 3.20717C3.11343 2.97179 12.6462 2.92472 50.0475 2.97179L96.9581 3.0424V50Z" fill="#1D1D1D"/>
<path d="M10.2214 8.3618C8.00886 9.25624 7.5381 11.8925 9.30343 13.3989C9.86833 13.8461 10.292 13.9873 11.21 13.9873C12.2456 13.9873 12.481 13.8932 13.1871 13.187C13.8933 12.4809 13.9874 12.222 13.9874 11.2099C13.9874 9.84468 13.399 8.92671 12.1986 8.43242C11.3041 8.05581 11.0217 8.05581 10.2214 8.3618Z" fill="#1D1D1D"/>
<path d="M29.5227 8.40888C27.875 8.97378 27.1218 11.2099 28.0869 12.6692C28.6989 13.5636 29.4285 13.9638 30.5348 13.9873C31.7588 13.9873 32.6767 13.4695 33.1475 12.4809C33.6182 11.4923 33.6182 10.9039 33.1946 9.91529C32.6297 8.5501 31.0291 7.89105 29.5227 8.40888Z" fill="#1D1D1D"/>
<path d="M48.9413 8.43242C46.8935 9.35039 46.4698 11.8689 48.1174 13.3283C48.7059 13.8696 49.0589 13.9873 50.024 13.9873C51.0832 13.9873 51.3186 13.8932 52.0247 13.187C52.7779 12.4338 52.9662 11.8689 52.825 10.5743C52.6602 8.92671 50.4947 7.72629 48.9413 8.43242Z" fill="#1D1D1D"/>
<path d="M68.7126 8.26765C67.4887 8.59718 66.4766 9.89175 66.4766 11.1863C66.4766 12.6927 67.8653 13.9873 69.4658 13.9873C71.1135 13.9638 72.361 12.7398 72.361 11.1628C72.361 10.2448 71.6784 8.97378 71.0193 8.62072C70.4309 8.31473 69.2775 8.12643 68.7126 8.26765Z" fill="#1D1D1D"/>
<path d="M87.9663 8.3618C86.7659 8.71487 86.0127 9.7976 86.0127 11.2099C86.0127 12.2455 86.1068 12.4809 86.813 13.187C87.5191 13.8932 87.7545 13.9873 88.7901 13.9873C90.273 13.9873 91.3087 13.2106 91.6617 11.8454C92.2502 9.72699 90.1082 7.72629 87.9663 8.3618Z" fill="#1D1D1D"/>
<path d="M20.2724 20.2954C19.8958 20.6956 19.8722 23.0964 19.8722 50.047C19.8722 78.1275 19.8958 79.375 20.2959 79.728C20.6961 80.1046 23.0969 80.1282 50.0475 80.1282C78.128 80.1282 79.3755 80.1046 79.7285 79.7045C80.1051 79.3044 80.1287 76.9035 80.1287 49.9529C80.1287 21.8725 80.1051 20.625 79.705 20.2719C79.3048 19.8953 76.904 19.8718 49.9534 19.8718C21.8729 19.8718 20.6255 19.8953 20.2724 20.2954ZM77.0688 50V77.0683H50.0005H22.9321V50V22.9317H50.0005H77.0688V50Z" fill="#1D1D1D"/>
<path d="M38.6553 33.2884C37.6903 34.0416 36.7017 35.8069 35.5483 38.702C34.1361 42.3739 26.9335 64.8053 26.9335 65.5821C26.9335 65.9822 27.1689 66.3823 27.5455 66.6883C29.0755 67.8887 30.7466 66.7825 31.594 64.005C31.8529 63.0871 32.3707 61.4394 32.7238 60.2861L33.3358 58.2383H39.8793H46.4227L47.0582 60.8745C48.4705 66.6412 48.6353 66.9472 50.3535 66.9472C52.6131 66.9472 52.825 66.0528 51.6245 61.6513L50.683 58.2383L51.2009 57.5557C51.5775 57.0379 51.6481 56.7084 51.5304 56.1435C51.3892 55.4373 50.4477 54.4723 49.9063 54.4723C49.7651 54.4723 48.4234 50.7533 46.9406 46.2106C45.4577 41.6678 43.8571 37.125 43.3864 36.1364C41.9976 33.1707 40.1852 32.088 38.6553 33.2884ZM42.4213 46.5401C43.7394 50.4473 44.8222 53.7426 44.8222 53.8368C44.8222 54.0486 34.9363 54.0486 34.9363 53.8132C34.9128 53.4602 39.738 39.4082 39.8793 39.4082C39.9499 39.4082 41.1032 42.6093 42.4213 46.5401Z" fill="#1D1D1D"/>
<path d="M57.2972 33.2649C55.6496 33.5002 54.9905 33.9004 54.7081 34.889C54.4727 35.7363 54.5904 36.2306 55.1318 36.8661C55.4378 37.2427 55.9556 37.2898 58.9684 37.2898H62.4284L62.3343 40.0437C61.8165 53.672 61.534 61.4394 61.534 62.122V62.9458H58.5918C55.7673 62.9458 55.6025 62.9694 55.0611 63.5343C54.2609 64.311 54.2609 65.4879 55.0611 66.2411C55.885 67.0179 57.156 67.1355 64.7351 67.1591C71.0903 67.1826 71.1138 67.1826 71.6081 66.6413C72.3143 65.888 72.3143 64.3581 71.6317 63.7461C71.2315 63.3695 70.6431 63.2754 68.3835 63.1812C65.8885 63.0635 65.6531 63.0165 65.7002 62.6163C65.7237 62.1456 66.1709 49.7648 66.4298 41.9973L66.5946 37.1956L68.8778 37.2663C71.0668 37.3133 71.208 37.2898 71.7729 36.7249C72.4084 36.0894 72.5261 35.3126 72.1024 34.3947C71.561 33.2178 71.2786 33.1707 64.7116 33.1236C61.3457 33.1236 58.0034 33.1707 57.2972 33.2649Z" fill="#1D1D1D"/>
<path d="M9.58679 28.11C8.64528 28.6749 8.26868 29.3811 8.26868 30.5815C8.26868 32.2056 9.58679 33.5237 11.1874 33.5237C12.6702 33.5237 13.9883 32.135 13.9883 30.5815C13.9883 28.2042 11.611 26.8625 9.58679 28.11Z" fill="#1D1D1D"/>
<path d="M87.3308 28.0865C86.4128 28.6985 86.0362 29.4281 86.0127 30.5344C86.0127 31.6877 86.6011 32.6999 87.5662 33.1706C89.5904 34.1121 91.7323 32.794 91.7323 30.5815C91.7323 29.381 91.3557 28.6749 90.4142 28.11C89.4492 27.5216 88.2017 27.5216 87.3308 28.0865Z" fill="#1D1D1D"/>
<path d="M10.3634 47.1757C8.80989 47.6464 7.84485 49.3411 8.33914 50.824C8.76282 52.095 9.79847 52.8247 11.2107 52.8247C12.2464 52.8247 12.4818 52.7306 13.1879 52.0244C13.894 51.3183 13.9882 51.0829 13.9882 50.0473C13.9882 48.3526 13.1879 47.4581 11.399 47.058C11.2107 47.0109 10.74 47.0815 10.3634 47.1757Z" fill="#1D1D1D"/>
<path d="M88.1315 47.1992C86.1072 47.6229 85.2599 50.3297 86.6721 51.8832C87.7549 53.1307 89.6614 53.2248 90.8618 52.095C93.0273 50.0472 91.0972 46.5637 88.1315 47.1992Z" fill="#1D1D1D"/>
<path d="M9.72802 66.8296C8.83358 67.3239 8.26868 68.336 8.26868 69.4188C8.26868 70.6192 8.64528 71.3253 9.58679 71.8902C11.564 73.1142 13.9883 71.7254 13.9883 69.4188C13.9883 67.2298 11.6346 65.794 9.72802 66.8296Z" fill="#1D1D1D"/>
<path d="M87.519 66.8531C86.1773 67.5121 85.5889 69.5364 86.3421 70.9015C87.0953 72.2903 89.0254 72.761 90.4141 71.8901C91.3556 71.3252 91.7322 70.6191 91.7322 69.4187C91.7322 67.2061 89.5197 65.8645 87.519 66.8531Z" fill="#1D1D1D"/>
<path d="M9.30459 86.6012C8.36308 87.4015 7.98648 88.5784 8.33955 89.6376C9.06921 91.8736 11.8937 92.4856 13.3766 90.6968C13.8474 90.1319 13.9886 89.7317 13.9886 88.7902C13.9886 87.7546 13.8944 87.5192 13.1883 86.813C12.4822 86.1069 12.2468 86.0128 11.2111 86.0128C10.2932 86.0128 9.8695 86.154 9.30459 86.6012Z" fill="#1D1D1D"/>
<path d="M29.099 86.3423C27.7103 87.0955 27.2395 89.0256 28.1104 90.4143C28.6753 91.3558 29.3815 91.7324 30.5819 91.7324C32.206 91.7324 33.5241 90.4143 33.5241 88.8138C33.5241 87.9899 32.7944 86.7189 32.0883 86.3658C31.288 85.9422 29.8287 85.9186 29.099 86.3423Z" fill="#1D1D1D"/>
<path d="M48.141 86.6247C45.7872 88.6018 47.8821 92.6268 50.8007 91.6617C53.0133 90.9321 53.6017 88.2017 51.8835 86.6482C50.8949 85.7538 49.1766 85.7538 48.141 86.6247Z" fill="#1D1D1D"/>
<path d="M67.842 86.4364C65.4176 87.9193 66.5474 91.7324 69.419 91.7324C70.6194 91.7324 71.3256 91.3558 71.8905 90.4143C72.7614 89.0256 72.2906 87.0955 70.9019 86.3423C70.1487 85.8951 68.5952 85.9422 67.842 86.4364Z" fill="#1D1D1D"/>
<path d="M86.813 86.8131C86.1068 87.5192 86.0127 87.7546 86.0127 88.7902C86.0127 92.2032 90.4142 92.9093 91.6382 89.7082C92.0148 88.7431 91.5911 87.3544 90.6967 86.6248C90.1318 86.154 89.7316 86.0128 88.7901 86.0128C87.7545 86.0128 87.5191 86.1069 86.813 86.8131Z" fill="#1D1D1D"/>
</g>
<defs>
<clipPath id="clip0_68_1168">
<rect width="100" height="100" fill="white"/>
</clipPath>
</defs>
</svg>
