<svg width="107" height="102" viewBox="0 0 107 102" fill="none" xmlns="http://www.w3.org/2000/svg">
<path d="M83.345 0.376916C82.6541 0.795615 82.4029 1.42366 81.2096 5.96655C80.1838 9.86045 80.0791 10.7397 80.6444 11.4724C81.398 12.4564 83.4706 12.3517 84.0358 11.3259C84.4964 10.4466 86.548 2.09358 86.4224 1.59114C86.2549 0.85842 85.1872 8.7738e-05 84.4964 8.7738e-05C84.1824 8.7738e-05 83.6799 0.167567 83.345 0.376916Z" fill="#1D1D1D"/>
<path d="M56.5901 4.81505C55.3968 5.0244 54.1198 5.65244 53.3452 6.44798C53.0102 6.78293 46.4995 15.0104 38.8582 24.7242L24.9783 42.4142L16.6672 47.2083C12.1033 49.8252 7.58139 52.4839 6.63932 53.112C3.58282 55.1008 1.57306 57.7805 0.484445 61.3394C0.0657461 62.6374 -0.0179937 63.3491 0.00294127 65.5264C0.00294127 67.8083 0.086681 68.3526 0.58912 69.818C2.70355 76.0357 8.14664 79.9715 14.5946 79.9715C16.1019 79.9715 17.1905 79.7831 19.7237 79.0922C19.8702 79.0504 22.0684 82.6302 25.3133 88.2408C31.2169 98.457 31.9078 99.4201 34.1688 100.53C35.4877 101.179 35.697 101.22 37.7696 101.22C39.7165 101.22 40.1143 101.158 41.161 100.655C42.5846 100.006 44.2385 98.4989 44.9921 97.2428C46.2064 95.1493 46.4366 92.344 45.5574 90.104C45.3271 89.5388 43.757 86.6707 42.0612 83.7398C40.3655 80.8089 38.9419 78.3176 38.8791 78.1711C38.8373 78.0455 40.0724 77.2081 41.6425 76.3079C43.1917 75.4286 44.6153 74.4865 44.7828 74.2563C45.3899 73.377 45.1805 72.4349 43.736 69.9227C42.4171 67.6199 42.2287 67.2012 42.5009 67.2012C42.5637 67.2012 50.0375 65.7357 59.1023 63.9772C68.1462 62.1977 77.5041 60.3554 79.9116 59.8949C82.2982 59.4134 84.5173 58.9109 84.8313 58.7435C85.7943 58.241 87.197 56.7546 87.6366 55.7498C88.16 54.5565 88.3484 52.7142 88.0344 51.5837C87.9088 51.1022 86.4224 48.3179 84.7476 45.4079C83.0728 42.477 81.4189 39.6089 81.084 39.0018L80.4559 37.9341L82.7588 34.4799C84.0149 32.5748 85.1035 30.7325 85.1872 30.3975C85.3338 29.6439 85.3128 29.602 82.6332 24.9754C81.5445 23.0912 80.3931 21.3746 80.1 21.1234C79.5767 20.7047 79.3673 20.6837 77.4413 20.8093C76.2899 20.8721 74.322 20.9768 73.045 21.0606L70.7421 21.1862L66.8692 14.4242C64.7338 10.6978 62.6403 7.2435 62.1797 6.76199C60.798 5.23374 58.6208 4.48009 56.5901 4.81505ZM58.872 9.37886C59.4372 9.79756 83.8055 51.9396 83.973 52.7979C84.2242 54.0959 83.2193 55.1427 81.5445 55.3101L80.8537 55.3729L67.9996 33.1191C58.0974 15.9734 55.1875 10.7815 55.334 10.5094C55.5852 10.0488 56.632 9.08578 57.0297 8.93923C57.4903 8.77175 58.3068 8.96017 58.872 9.37886ZM64.5244 35.4847C71.098 46.8733 76.4574 56.2103 76.4364 56.2522C76.3317 56.3359 40.0096 63.4538 39.9678 63.391C39.57 62.8676 28.9769 44.2565 29.0188 44.1518C29.2072 43.6075 52.2984 14.4451 52.424 14.5917C52.5078 14.6754 57.9509 24.0752 64.5244 35.4847ZM79.2626 27.5085L80.7072 29.9998L79.4929 31.8421C78.823 32.8679 78.195 33.6843 78.1112 33.6425C78.0275 33.6215 76.8761 31.7374 75.5572 29.4555C72.8356 24.766 72.8356 25.1847 75.6618 25.0591C76.5202 25.0173 77.3576 24.9963 77.525 24.9963C77.6716 25.0173 78.4671 26.1268 79.2626 27.5085ZM30.9448 56.1057C33.771 60.9835 36.0529 65.003 36.032 65.0239C35.9064 65.1496 19.9121 74.34 19.2212 74.6959C13.1292 77.7943 5.61351 74.0469 4.27367 67.243C3.56188 63.6841 5.132 59.4762 7.95822 57.278C9.42367 56.1685 25.4808 46.8943 25.6692 47.0618C25.732 47.1455 28.1186 51.2069 30.9448 56.1057ZM39.3188 70.6136L40.2608 72.2256L39.8003 72.5187C37.1415 74.1516 36.681 74.3609 36.4925 74.0888C35.9692 73.3142 34.5875 70.7182 34.6503 70.6764C35.1736 70.2577 38.1255 68.7294 38.2092 68.8341C38.293 68.9178 38.7954 69.7134 39.3188 70.6136ZM36.3041 82.1069C41.9566 91.9253 42.2497 92.5953 41.7891 94.1863C40.868 97.18 36.9113 98.1849 34.7759 95.9239C34.3153 95.4215 24.1409 78.0245 23.8688 77.2499C23.785 77.0197 24.769 76.3497 27.2602 74.9052C29.1863 73.7957 30.7982 72.8745 30.861 72.8745C30.9239 72.8745 33.3732 77.0197 36.3041 82.1069Z" fill="#1D1D1D"/>
<path d="M26.4019 60.9416C25.7948 61.2975 25.3761 62.3652 25.5017 63.1398C25.7529 64.3959 27.3858 65.1077 28.5791 64.4796C29.6887 63.8725 29.8562 61.9465 28.8303 61.13C28.2442 60.6695 27.0299 60.5857 26.4019 60.9416Z" fill="#1D1D1D"/>
<path d="M18.8234 65.338C18.3629 65.5893 17.4208 66.1126 16.7509 66.5104C16.081 66.9082 15.2436 67.285 14.9295 67.3478C14.155 67.4943 13.171 67.0966 12.7523 66.4267C12.3127 65.7777 11.1403 65.2752 10.4495 65.4427C9.1515 65.7567 8.48159 67.5571 9.23524 68.6667C10.6798 70.8439 13.0454 71.8907 15.6204 71.5139C16.7509 71.3464 20.896 69.1063 21.7125 68.2271C22.508 67.3687 22.4871 66.3429 21.6706 65.5055C20.9169 64.7519 20.0167 64.71 18.8234 65.338Z" fill="#1D1D1D"/>
<path d="M98.4809 12.2051C91.4468 16.1199 91.6352 15.9943 91.384 16.8945C91.0071 18.2553 91.8655 19.4695 93.2053 19.4695C94.3149 19.4695 106.101 12.9796 106.687 12.0376C107.525 10.6977 106.583 9.00201 105.013 9.00201C104.406 9.00201 102.982 9.69286 98.4809 12.2051Z" fill="#1D1D1D"/>
<path d="M92.7238 29.1832C91.7608 30.1463 91.8236 31.528 92.8494 32.2816C93.1425 32.491 95.2988 33.2028 97.6435 33.8308C101.056 34.7519 102.082 34.9404 102.647 34.8147C104.133 34.4588 104.74 32.5328 103.694 31.4861C103.254 31.0674 102.249 30.7115 98.9205 29.8113C94.1055 28.5343 93.4565 28.4505 92.7238 29.1832Z" fill="#1D1D1D"/>
</svg>
