<svg width="89" height="98" viewBox="0 0 89 98" fill="none" xmlns="http://www.w3.org/2000/svg">
<path d="M56.5901 0.815048C55.3968 1.0244 54.1198 1.65244 53.3452 2.44798C53.0102 2.78293 46.4995 11.0104 38.8582 20.7242L24.9783 38.4142L16.6672 43.2083C12.1033 45.8252 7.58139 48.4839 6.63932 49.112C3.58282 51.1008 1.57306 53.7805 0.484445 57.3394C0.0657461 58.6374 -0.0179937 59.3491 0.00294127 61.5264C0.00294127 63.8083 0.086681 64.3526 0.58912 65.818C2.70355 72.0357 8.14664 75.9715 14.5946 75.9715C16.1019 75.9715 17.1905 75.7831 19.7237 75.0922C19.8702 75.0504 22.0684 78.6302 25.3133 84.2408C31.2169 94.457 31.9078 95.4201 34.1688 96.5296C35.4877 97.1786 35.697 97.2205 37.7696 97.2205C39.7165 97.2205 40.1143 97.1577 41.161 96.6552C42.5846 96.0062 44.2385 94.4989 44.9921 93.2428C46.2064 91.1493 46.4366 88.344 45.5574 86.104C45.3271 85.5388 43.757 82.6707 42.0612 79.7398C40.3655 76.8089 38.9419 74.3176 38.8791 74.1711C38.8373 74.0455 40.0724 73.2081 41.6425 72.3079C43.1917 71.4286 44.6153 70.4865 44.7828 70.2563C45.3899 69.377 45.1805 68.4349 43.736 65.9227C42.4171 63.6199 42.2287 63.2012 42.5009 63.2012C42.5637 63.2012 50.0375 61.7357 59.1023 59.9772C68.1462 58.1977 77.5041 56.3554 79.9116 55.8949C82.2982 55.4134 84.5173 54.9109 84.8313 54.7435C85.7943 54.241 87.197 52.7546 87.6366 51.7498C88.16 50.5565 88.3484 48.7142 88.0344 47.5837C87.9088 47.1022 86.4224 44.3179 84.7476 41.4079C83.0728 38.477 81.4189 35.6089 81.084 35.0018L80.4559 33.9341L82.7588 30.4799C84.0149 28.5748 85.1035 26.7325 85.1872 26.3975C85.3338 25.6439 85.3128 25.602 82.6332 20.9754C81.5445 19.0912 80.3931 17.3746 80.1 17.1234C79.5767 16.7047 79.3673 16.6837 77.4413 16.8093C76.2899 16.8721 74.322 16.9768 73.045 17.0606L70.7421 17.1862L66.8692 10.4242C64.7338 6.69776 62.6403 3.2435 62.1797 2.76199C60.798 1.23374 58.6208 0.480087 56.5901 0.815048ZM58.872 5.37886C59.4372 5.79756 83.8055 47.9396 83.973 48.7979C84.2242 50.0959 83.2193 51.1427 81.5445 51.3101L80.8537 51.3729L67.9996 29.1191C58.0974 11.9734 55.1875 6.7815 55.334 6.50935C55.5852 6.04878 56.632 5.08578 57.0297 4.93923C57.4903 4.77175 58.3068 4.96017 58.872 5.37886ZM64.5244 31.4847C71.098 42.8733 76.4574 52.2103 76.4364 52.2522C76.3317 52.3359 40.0096 59.4538 39.9678 59.391C39.57 58.8676 28.9769 40.2565 29.0188 40.1518C29.2072 39.6075 52.2984 10.4451 52.424 10.5917C52.5078 10.6754 57.9509 20.0752 64.5244 31.4847ZM79.2626 23.5085L80.7072 25.9998L79.4929 27.8421C78.823 28.8679 78.195 29.6843 78.1112 29.6425C78.0275 29.6215 76.8761 27.7374 75.5572 25.4555C72.8356 20.766 72.8356 21.1847 75.6618 21.0591C76.5202 21.0173 77.3576 20.9963 77.525 20.9963C77.6716 21.0173 78.4671 22.1268 79.2626 23.5085ZM30.9448 52.1057C33.771 56.9835 36.0529 61.003 36.032 61.0239C35.9064 61.1496 19.9121 70.34 19.2212 70.6959C13.1292 73.7943 5.61351 70.0469 4.27367 63.243C3.56188 59.6841 5.132 55.4762 7.95822 53.278C9.42367 52.1685 25.4808 42.8943 25.6692 43.0618C25.732 43.1455 28.1186 47.2069 30.9448 52.1057ZM39.3188 66.6136L40.2608 68.2256L39.8003 68.5187C37.1415 70.1516 36.681 70.3609 36.4925 70.0888C35.9692 69.3142 34.5875 66.7182 34.6503 66.6764C35.1736 66.2577 38.1255 64.7294 38.2092 64.8341C38.293 64.9178 38.7954 65.7134 39.3188 66.6136ZM36.3041 78.1069C41.9566 87.9253 42.2497 88.5953 41.7891 90.1863C40.868 93.18 36.9113 94.1849 34.7759 91.9239C34.3153 91.4215 24.1409 74.0245 23.8688 73.2499C23.785 73.0197 24.769 72.3497 27.2602 70.9052C29.1863 69.7957 30.7982 68.8745 30.861 68.8745C30.9239 68.8745 33.3732 73.0197 36.3041 78.1069Z" fill="#1D1D1D"/>
</svg>
