<svg width="60" height="100" viewBox="0 0 60 100" fill="none" xmlns="http://www.w3.org/2000/svg">
<path d="M5.2617 0.0319138C5.12498 0.0514603 4.68551 0.178528 4.27534 0.315361C2.19521 0.989761 0.60337 2.75885 0.134607 4.89935C-0.00211533 5.51511 -0.0118812 10.2359 0.00765056 50.2994L0.0369482 95.0153L0.251798 95.6506C0.906113 97.5663 2.41006 99.0715 4.31441 99.7263L5.11521 100H29.6764H54.2376L55.0384 99.7263C56.6303 99.179 57.9389 98.055 58.6714 96.6084C59.4038 95.1423 59.3647 96.2761 59.3647 78.468V62.5169H57.8022H56.2397V73.4637V84.4105H29.6764H3.1132V50.0062V15.6018H29.6764H56.2397V24.9848V34.3678H57.8022H59.3647V19.9708C59.3647 3.91218 59.4038 4.86025 58.6714 3.40393C57.9584 1.98671 56.6693 0.872475 55.0873 0.286041L54.3353 0.0123672L29.9206 0.00259399C16.4925 -0.00717926 5.39842 0.0123672 5.2617 0.0319138ZM54.3939 3.4137C55.0384 3.72647 55.683 4.38132 55.976 5.02641C56.1811 5.46624 56.1908 5.64217 56.2201 8.97509L56.2494 12.4742H29.6764H3.1132V9.17057C3.1132 5.49556 3.15227 5.19257 3.72846 4.44975C4.16792 3.87309 4.68551 3.48212 5.28123 3.27687C5.77929 3.10094 6.74612 3.10094 29.8229 3.12048L53.847 3.14004L54.3939 3.4137ZM56.2201 91.0275C56.1908 94.3702 56.1811 94.5461 55.976 94.986C55.683 95.631 55.0384 96.2859 54.3939 96.5987L53.847 96.8723H29.6764H5.50585L5.04685 96.6573C4.4023 96.3641 3.74799 95.719 3.43548 95.0739L3.16203 94.5266L3.13274 91.0275L3.10344 87.5382H29.6764H56.2494L56.2201 91.0275Z" fill="#1D1D1D"/>
</svg>
