<svg width="102" height="100" viewBox="0 0 102 100" fill="none" xmlns="http://www.w3.org/2000/svg">
<path d="M68.0851 0.159302C66.8607 0.452332 65.0637 1.48771 64.1948 2.42542C63.7604 2.89426 63.1087 3.87103 62.773 4.59384L62.1411 5.90272L62.0819 11.7047L62.0226 17.5263L33.4482 17.5654L4.87372 17.624L3.74812 18.171C2.48429 18.7961 1.55616 19.7338 0.943992 21.0231L0.529297 21.9218V52.2994V82.677L0.943992 83.5756C1.55616 84.8649 2.48429 85.8026 3.74812 86.4278L4.87372 86.9748L18.065 87.0334L31.2365 87.092V91.5656V96.0587H26.1021C22.0342 96.0587 20.8296 96.1173 20.3952 96.3322C19.0918 97.016 19.0918 99.0086 20.3952 99.6923C21.2245 100.103 68.8947 100.103 69.7241 99.6923C71.0274 99.0086 71.0274 97.016 69.7241 96.3322C69.2897 96.1173 68.0851 96.0587 64.0171 96.0587H58.8828V91.5656V87.092L72.074 87.0334L85.2455 86.9748L86.3711 86.4278C87.635 85.8026 88.5631 84.8649 89.1753 83.5756C89.5702 82.716 89.59 82.3644 89.6492 73.1827L89.7085 63.669L92.6113 63.5908C95.3759 63.5322 95.5734 63.4932 96.8372 62.9071C98.6738 62.0475 99.8191 60.9536 100.708 59.1758L101.438 57.6911V31.7872V5.88319L100.708 4.39849C99.8191 2.62077 98.6738 1.52678 96.8372 0.667221L95.5142 0.0420914L82.1847 0.00302124C74.5425 -0.0165176 68.5195 0.0616226 68.0851 0.159302ZM95.7511 4.47663C96.1856 4.76966 96.7583 5.33619 97.015 5.74644L97.4889 6.48878L97.5482 27.2354L97.5877 48.0016H81.7897H65.9919V27.6261C65.9919 13.8927 66.0708 7.03577 66.2091 6.52785C66.4658 5.60969 67.7099 4.32035 68.5985 4.06639C68.9935 3.94917 74.345 3.89057 82.1057 3.9101L94.9415 3.94917L95.7511 4.47663ZM62.0819 39.5427L62.1411 57.6716L62.773 58.9805C63.6419 60.7973 64.7478 61.9303 66.5448 62.8094L68.0456 63.5322L76.8924 63.5908L85.7392 63.6494V67.537V71.4441H69.6451C52.1489 71.4441 52.7216 71.405 52.2082 72.5185C51.912 73.1632 51.912 73.6321 52.2082 74.2767C52.7216 75.3902 52.1489 75.3512 69.6451 75.3512H85.7392V78.4768C85.7392 81.9151 85.601 82.5011 84.6531 82.9309C83.9027 83.263 6.21654 83.263 5.46614 82.9309C4.51827 82.5011 4.38004 81.9151 4.38004 78.4768V75.3512H20.4741C32.52 75.3512 36.6867 75.2926 37.0619 75.1167C37.6346 74.8628 38.148 74.0423 38.148 73.3976C38.148 72.753 37.6346 71.9325 37.0619 71.6785C36.6867 71.5027 32.52 71.4441 20.4741 71.4441H4.38004V47.1615C4.39978 21.1013 4.34054 22.2734 5.38715 21.7069C5.7821 21.492 11.0152 21.4529 33.9419 21.4334H62.0424L62.0819 39.5427ZM97.5482 54.4873C97.4889 56.812 97.4494 57.1637 97.015 57.8279C96.7583 58.2381 96.1856 58.8047 95.7511 59.0977L94.9415 59.6251H81.7897H68.638L67.8284 59.0977C67.3939 58.8047 66.8212 58.2381 66.5645 57.8279C66.1301 57.1637 66.0906 56.812 66.0313 54.4873L65.9524 51.9087H81.7897H97.6271L97.5482 54.4873ZM54.9333 91.5656V96.0587H45.0596H35.1859V91.5656V87.0724H45.0596H54.9333V91.5656Z" fill="#1D1D1D"/>
</svg>
